<?xml version="1.0" standalone="no"?>
<!DOCTYPE svg PUBLIC "-//W3C//DTD SVG 1.1//EN" "http://www.w3.org/Graphics/SVG/1.1/DTD/svg11.dtd" >
<svg>
<metadata>
Created by FontForge 20090622 at Wed Aug 26 16:24:41 2015
 By deploy user
Copyright (c) 1990-2000 ParaType Inc.. All Rights Reserved. Charter is a registered trade mark of International Typeface Corporation.
</metadata>
<defs>
<font id="CharterC" horiz-adv-x="500" >
  <font-face 
    font-family="CharterCTT"
    font-weight="400"
    font-stretch="normal"
    units-per-em="1000"
    panose-1="2 6 5 3 5 5 6 2 2 3"
    ascent="800"
    descent="-200"
    x-height="481"
    cap-height="671"
    bbox="-366 -236 1193 892"
    underline-thickness="50"
    underline-position="-75"
    unicode-range="U+0020-U+2122"
  />
<missing-glyph 
d="M50 0h400v512h-400v-512zM58 8v496h384v-496h-384z" />
    <glyph glyph-name=".notdef" 
d="M50 0h400v512h-400v-512zM58 8v496h384v-496h-384z" />
    <glyph glyph-name=".null" horiz-adv-x="0" 
 />
    <glyph glyph-name="nonmarkingreturn" horiz-adv-x="233" 
 />
    <glyph glyph-name="space" unicode=" " horiz-adv-x="233" 
 />
    <glyph glyph-name="exclam" unicode="!" horiz-adv-x="340" 
d="M112 49q0 24 17 41t41 17t41 -17t17 -41t-17 -41t-41 -17t-41 17t-17 41zM117 567q-1 6 -1.5 14t-0.5 23q0 48 15.5 63.5t39.5 15.5t39.5 -15.5t15.5 -63.5q0 -15 -0.5 -23t-1.5 -14l-29 -396h-48z" />
    <glyph glyph-name="quotedbl" unicode="&#x22;" horiz-adv-x="332" 
d="M238 422l-32 223l-1 21q0 48 41 48q19 0 30.5 -12.5t11.5 -35.5l-2 -21l-32 -223h-16zM77 422l-32 223l-1 21q0 23 10.5 35.5t30.5 12.5q19 0 30.5 -12t11.5 -36l-2 -21l-32 -223h-16z" />
    <glyph glyph-name="numbersign" unicode="#" horiz-adv-x="746" 
d="M275 277h149l51 146h-151zM418 692l-79 -222h154l80 239l47 -17l-78 -222h139v-47h-155l-49 -146h163v-47h-179l-84 -253l-47 16l80 237h-153l-83 -253l-47 16l82 237h-144v47h159l48 146h-158v47h174l83 240z" />
    <glyph glyph-name="dollar" unicode="$" horiz-adv-x="556" 
d="M302 46q56 11 84.5 44.5t28.5 82.5q0 45 -26.5 73t-86.5 48v-248zM259 625q-50 -13 -74 -43t-24 -75q0 -85 98 -115v233zM302 743v-71h8q35 0 76.5 -5.5t83.5 -16.5v-156h-45l-15 93l-15 21q-26 9 -46.5 13t-46.5 4v-245q106 -30 151 -72.5t45 -112.5q0 -76 -50 -125.5
t-146 -69.5v-102h-43v102q-64 2 -110.5 8t-90.5 17v168h46l18 -109l9 -13q31 -14 59 -19t69 -6v260q-96 26 -139.5 69t-43.5 113q0 72 48 121t135 63v71h43z" />
    <glyph glyph-name="percent" unicode="%" horiz-adv-x="852" 
d="M669 371q-38 0 -57.5 -44.5t-19.5 -129.5q0 -173 77 -173q40 0 60.5 44t20.5 129q0 86 -20.5 130t-60.5 44zM673 407q69 0 108.5 -56.5t39.5 -153.5q0 -98 -40 -153.5t-110 -55.5t-110 55.5t-40 153.5q0 100 40 155t112 55zM669 671l-428 -671h-60l427 671h61zM179 647
q-38 0 -57.5 -44.5t-19.5 -129.5q0 -173 77 -173q40 0 60.5 44t20.5 129q0 86 -20.5 130t-60.5 44zM183 683q69 0 108.5 -56.5t39.5 -153.5t-40 -153t-110 -56t-110 55.5t-40 152.5q0 100 40 155.5t112 55.5z" />
    <glyph glyph-name="ampersand" unicode="&#x26;" horiz-adv-x="704" 
d="M223 335q-22 -16 -37 -30.5t-24 -30t-13 -32.5t-4 -38q0 -34 11 -62.5t31 -49.5t48 -32.5t61 -11.5q36 0 68 14t67 46zM276 390q52 26 75 57t23 79q0 51 -26 81t-71 30q-41 0 -67.5 -27.5t-26.5 -69.5q0 -18 4.5 -34.5t15.5 -34t28.5 -37t44.5 -44.5zM483 171
q25 35 36.5 60t19.5 58l-18 19l-55 8v41h203v-41l-72 -10q-8 -26 -16.5 -48t-18.5 -42t-21.5 -39.5t-26.5 -40.5l78 -95h91v-41h-176v24l-45 50q-57 -47 -102 -66.5t-96 -19.5q-45 0 -84 15t-67 41t-44 62.5t-16 78.5q0 61 30 102t102 77q-24 25 -40 45t-25.5 37.5t-13 34.5
t-3.5 37q0 35 14 65.5t38.5 52.5t58.5 34.5t73 12.5q37 0 68.5 -11.5t54.5 -32t35.5 -49t12.5 -62.5q0 -27 -7.5 -49.5t-25 -43t-45.5 -39.5t-69 -39z" />
    <glyph glyph-name="quotesingle" unicode="'" horiz-adv-x="171" 
d="M77 422l-32 223l-1 21q0 23 10.5 35.5t30.5 12.5q19 0 30.5 -12t11.5 -32q0 -5 -0.5 -12.5t-1.5 -12.5l-32 -223h-16z" />
    <glyph glyph-name="parenleft" unicode="(" horiz-adv-x="417" 
d="M386 676q-51 -11 -88 -38.5t-60.5 -75t-35 -116.5t-11.5 -161q0 -90 11.5 -158t35.5 -115t60.5 -74.5t87.5 -37.5v-42q-67 7 -119 39.5t-88 87.5t-54.5 131t-18.5 171q0 192 71.5 302.5t208.5 128.5v-42z" />
    <glyph glyph-name="parenright" unicode=")" horiz-adv-x="417" 
d="M31 718q137 -18 208.5 -128.5t71.5 -302.5q0 -95 -18.5 -171t-54.5 -131t-88 -87.5t-119 -39.5v42q51 10 87.5 37.5t60.5 75t35.5 115t11.5 158.5q0 92 -11 160.5t-35 116t-61 75t-88 38.5v42z" />
    <glyph glyph-name="asterisk" unicode="*" 
d="M244 484l-47 -121l-63 -25v72l100 81zM369 410v-72l-67 26l-47 120l11 7zM446 571l-45 -64h-128l-4 13l108 69zM289 657l-32 -125h-14l-32 125l39 61zM54 571l45 -64h128l4 13l-108 69z" />
    <glyph glyph-name="plus" unicode="+" horiz-adv-x="833" 
d="M124 269v58h263v269h58v-269h264v-58h-264v-269h-58v269h-263z" />
    <glyph glyph-name="comma" unicode="," horiz-adv-x="278" 
d="M39 -136q36 4 57.5 20t33 36t15.5 41t4 35v11h-64q-7 7 -11.5 17t-4.5 24q0 17 5.5 28t14.5 18t20 9.5t21 2.5q22 0 37 -9t24 -22.5t13 -30.5t4 -32q0 -36 -12.5 -67t-35 -55t-53.5 -40t-68 -20v34z" />
    <glyph glyph-name="hyphenminus" unicode="-" horiz-adv-x="319" 
d="M272 274v-67h-225v67h225z" />
    <glyph glyph-name="period" unicode="." horiz-adv-x="280" 
d="M76 55q0 26 19 45t45 19t45 -19t19 -45t-19 -45t-45 -19t-45 19t-19 45z" />
    <glyph glyph-name="slash" unicode="/" horiz-adv-x="542" 
d="M101 -93h-61l429 764h61z" />
    <glyph glyph-name="zero" unicode="0" horiz-adv-x="556" 
d="M276 635q-68 0 -104.5 -71t-36.5 -229q0 -48 5 -101t20 -97t43 -72.5t75 -28.5q22 0 39 7t29.5 17.5t22 24t15.5 27.5q13 28 25 80.5t12 144.5q0 80 -10.5 137t-32.5 96q-6 11 -15 22.5t-21 21t-28.5 15.5t-37.5 6zM281 683q19 0 40 -3.5t42 -13t42 -25.5t40 -41
q34 -45 52 -110.5t18 -150.5q0 -56 -7 -99t-16.5 -73.5t-19.5 -50.5t-17 -30q-18 -28 -39.5 -47t-44 -30t-46.5 -16t-47 -5q-49 0 -86 17.5t-63 46.5t-43 65.5t-27 75t-14 75.5t-4 66q0 25 2 57.5t9 68t20.5 71t35.5 65.5q20 27 42 44t44.5 26.5t44.5 13t42 3.5z" />
    <glyph glyph-name="one" unicode="1" horiz-adv-x="556" 
d="M346 683v-622l12 -20h112v-41h-348v48h119l12 18v537l-163 -27v42l226 65h30z" />
    <glyph glyph-name="two" unicode="2" horiz-adv-x="556" 
d="M442 80l18 84h45v-164h-463v63l84 69.5l52.5 44l35.5 31t33 31.5q25 24 49.5 51t44 57.5t32 65.5t12.5 76q0 67 -34.5 105t-96.5 38q-48 0 -90 -24v-107q-13 -9 -25.5 -12t-20.5 -3t-18 2.5t-18 9t-13.5 17t-5.5 26.5q0 26 15.5 51.5t44 45.5t67.5 32.5t86 12.5
q42 0 79.5 -13t66 -37t45 -58.5t16.5 -76.5q0 -35 -10.5 -67t-28.5 -61.5t-42.5 -57.5t-52.5 -55q-24 -24 -47 -44.5l-47 -41l-52 -42.5l-62 -49h301z" />
    <glyph glyph-name="three" unicode="3" horiz-adv-x="556" 
d="M153 509q-11 -8 -22.5 -10.5t-18.5 -2.5q-28 0 -41 17t-13 37q0 33 20.5 58t52 41.5t68.5 25t70 8.5q50 0 87 -13.5t61.5 -36.5t36.5 -53t12 -64q0 -32 -11.5 -58.5t-31.5 -46.5t-47 -34t-59 -22v-2q34 -2 66 -12.5t56 -30t38.5 -48.5t14.5 -68q0 -15 -3 -34t-11.5 -39.5
t-24.5 -41t-41 -39.5q-35 -26 -80 -39t-93 -13q-37 0 -72.5 9t-63.5 24t-45 35t-17 43q0 19 14 35t43 16q12 0 29 -5l31 -85q17 -11 36 -17.5t45 -6.5q39 0 69.5 13.5t50.5 35t30.5 50t10.5 58.5q0 61 -37.5 93.5t-109.5 32.5q-9 0 -22 -1t-22 -2l-10 -1v59h29q18 0 43 5
t48 19.5t39 39.5t16 66q0 17 -5.5 42t-26.5 48q-23 24 -49.5 31t-47.5 7q-16 0 -39.5 -4.5t-52.5 -24.5v-94z" />
    <glyph glyph-name="four" unicode="4" horiz-adv-x="556" 
d="M102 259h247v309zM427 677v-418h112v-65h-112v-232h-78v232h-322v65l341 418h59z" />
    <glyph glyph-name="five" unicode="5" horiz-adv-x="556" 
d="M459 671v-78h-296v-200q33 10 61.5 13t46.5 3q37 0 75.5 -9.5t70 -31.5t51.5 -58.5t20 -90.5q0 -51 -19 -93.5t-54 -73.5q-26 -23 -71.5 -43.5t-116.5 -20.5q-4 0 -19 1t-34.5 4.5t-41.5 10t-40 17.5t-30 26.5t-12 37.5q0 19 14 36t45 17q8 0 13.5 -1t9.5 -2l40 -86
q8 -3 25.5 -8.5t44.5 -5.5t54.5 9.5t49.5 30t36 51.5t14 74q0 46 -20 75t-51 45t-67 21.5t-67 5.5q-19 0 -39.5 -1t-50.5 -5v330h358z" />
    <glyph glyph-name="six" unicode="6" horiz-adv-x="556" 
d="M144 282v-9q0 -63 12.5 -107.5t33 -73.5t46.5 -42.5t54 -13.5q17 0 41.5 8.5t47 29.5t38.5 56.5t16 89.5q0 48 -13.5 80t-35 50.5t-48.5 26.5t-54 8q-29 0 -65 -9.5t-73 -35.5v-58zM443 656h-8q-76 0 -128 -27.5t-85.5 -69t-50.5 -89t-24 -86.5q52 39 94.5 50t71.5 11
q59 0 99.5 -20.5t65.5 -52t36 -70t11 -74.5q0 -43 -15.5 -89t-57.5 -85q-25 -24 -66 -45t-102 -21q-52 0 -89.5 17t-63.5 44t-42 60.5t-24.5 66.5t-11.5 62t-3 47q0 83 25 159t74.5 134.5t123 95t170.5 40.5v-58z" />
    <glyph glyph-name="seven" unicode="7" horiz-adv-x="556" 
d="M531 671v-40l-332 -646v-23h-83l326 633h-308l-16 -91h-47v167h460z" />
    <glyph glyph-name="eight" unicode="8" horiz-adv-x="556" 
d="M324 370q13 9 27.5 21.5t26.5 30t19.5 40t7.5 50.5q0 26 -7 49t-22 40t-38 27t-54 10q-30 0 -53 -11.5t-38 -28.5t-23 -38t-8 -39q0 -58 41.5 -91t120.5 -60zM222 330q-37 -15 -57 -38t-29 -46t-10.5 -41t-1.5 -23q0 -20 6 -45t23.5 -47t48 -37.5t78.5 -15.5q35 0 62 10
t45 28t27 42t9 51q0 35 -13 58t-38.5 40t-63 31.5zM366 352q18 -6 42.5 -18t47 -32t38 -50t15.5 -71q0 -50 -19.5 -87t-52 -61t-75 -36t-87.5 -12q-38 0 -78.5 9.5t-73.5 31.5t-54.5 58.5t-21.5 90.5q0 36 11.5 64.5t31 50.5t44 37t50.5 24q-45 18 -75 55.5t-30 97.5
q0 34 11.5 66.5t36 58t64 41.5t95.5 16q54 0 91.5 -17.5t60.5 -43t33 -54.5t10 -51q0 -29 -9.5 -54.5t-25 -47t-36.5 -38t-44 -28.5z" />
    <glyph glyph-name="nine" unicode="9" horiz-adv-x="556" 
d="M410 321q5 21 8 46t3 61q0 28 -4.5 64t-19 67.5t-42.5 53.5t-76 22q-36 0 -59.5 -13.5t-37.5 -27.5q-16 -17 -30.5 -50t-14.5 -88q0 -53 13.5 -82.5t23.5 -41.5q17 -20 43 -33t67 -13q32 0 64.5 9t61.5 26zM103 -4q4 2 19.5 9t36.5 19l46 27.5t49 33.5q56 42 89.5 88.5
t54.5 97.5q-56 -26 -93.5 -32.5t-57.5 -6.5q-52 0 -88.5 18t-61.5 45q-18 20 -36 57t-18 95q0 63 22.5 106.5t52.5 70.5q26 23 67.5 41t101.5 18q33 0 59.5 -6.5t46 -16t33.5 -21t23 -20.5q11 -12 22.5 -29t20.5 -40t15 -53t6 -67q0 -78 -25.5 -149t-75 -132.5t-121.5 -112
t-165 -86.5z" />
    <glyph glyph-name="colon" unicode=":" horiz-adv-x="320" 
d="M96 55q0 26 19 45t45 19t45 -19t19 -45t-19 -45t-45 -19t-45 19t-19 45zM96 417q0 26 19 45t45 19t45 -19t19 -45t-19 -45t-45 -19t-45 19t-19 45z" />
    <glyph glyph-name="semicolon" unicode=";" horiz-adv-x="320" 
d="M65 -136q36 4 57.5 20t33 36t15.5 41t4 35v11h-64q-7 7 -11.5 17t-4.5 24q0 17 5.5 28t14.5 18t20 9.5t21 2.5q22 0 37 -9t24 -22.5t13 -30.5t4 -32q0 -36 -12.5 -67t-35 -55t-53.5 -40t-68 -20v34zM96 417q0 26 19 45t45 19t45 -19t19 -45t-19 -45t-45 -19t-45 19
t-19 45z" />
    <glyph glyph-name="less" unicode="&#x3c;" horiz-adv-x="833" 
d="M704 497l-488 -199l488 -199v-62l-575 236v50l575 236v-62z" />
    <glyph glyph-name="equal" unicode="=" horiz-adv-x="833" 
d="M709 234v-58h-585v58h585zM709 420v-58h-585v58h585z" />
    <glyph glyph-name="greater" unicode="&#x3e;" horiz-adv-x="833" 
d="M704 323v-50l-575 -236v62l488 199l-488 199v62z" />
    <glyph glyph-name="question" unicode="?" horiz-adv-x="486" 
d="M143 49q0 24 17 41t41 17t41 -17t17 -41t-17 -41t-41 -17t-41 17t-17 41zM227 171h-53v146q2 1 13 5t25.5 12t31.5 19.5t31 27.5q24 26 33.5 55.5t9.5 61.5q0 42 -12 68.5t-32 42.5t-46 22t-54 6l-41 -99q-2 0 -6.5 -0.5t-10.5 -0.5q-9 0 -19.5 2t-20 7t-15.5 15t-6 27
q0 12 7.5 28.5t25.5 31.5t46.5 25t70.5 10q100 0 152.5 -48.5t52.5 -131.5q0 -40 -15 -72.5t-40 -58.5t-58 -47t-70 -37v-117z" />
    <glyph glyph-name="at" unicode="@" horiz-adv-x="942" 
d="M553 450q-5 1 -14 1.5t-13 0.5q-33 0 -62.5 -17.5t-51 -48t-34.5 -71t-13 -86.5q0 -54 21 -82.5t60 -28.5q29 0 53.5 15.5t53.5 50.5l41 210zM699 488l-5.5 -15t-4.5 -16t-5.5 -22.5t-7.5 -32.5l-4 -21l-39 -172q-5 -20 -6.5 -32t-1.5 -23q0 -20 11 -31.5t29 -11.5
q30 0 59 22t51.5 58.5t36 83.5t13.5 97q0 63 -21 114t-59 87t-91.5 56t-119.5 20q-83 0 -154 -30t-122.5 -82.5t-81 -124t-29.5 -155.5q0 -81 25.5 -148t73 -114t113.5 -73t147 -26q68 0 129 17.5t132 55.5l14 -34q-82 -45 -156.5 -66.5t-147.5 -21.5q-86 0 -159 29.5
t-127 82t-84.5 125.5t-30.5 160q0 96 34.5 178t95 142t143.5 94t181 34q78 0 141 -22.5t107.5 -64.5t68.5 -101t24 -132q0 -62 -20 -119.5t-54.5 -101.5t-79.5 -70t-94 -26q-38 0 -55 20.5t-17 65.5q-43 -45 -77.5 -64.5t-69.5 -19.5q-27 0 -50 12t-39.5 33t-25.5 50.5
t-9 65.5q0 55 20 104.5t54 87t79 60t95 22.5q25 0 47.5 -6.5t51.5 -20.5l18 23h54z" />
    <glyph glyph-name="A" unicode="A" horiz-adv-x="640" 
d="M201 297h202l-103 277zM350 679l240 -626l60 -12v-41h-227v41l62 5l7 14l-72 191h-236l-71 -191l10 -14l65 -5v-41h-196v41l58 12l234 626h66z" />
    <glyph glyph-name="B" unicode="B" horiz-adv-x="604" 
d="M197 50q20 -2 37.5 -3t35.5 -1q25 0 58 3t62 17t49 43t20 81q0 20 -6 47t-31 50q-14 13 -32 20t-36 10.5t-34 4.5t-26 1q-11 0 -24.5 -0.5t-27 -1.5t-25.5 -2t-20 -2v-267zM197 367q10 -1 19 -1h18q53 0 88.5 11.5t57 30.5t30.5 44t9 51q0 39 -15.5 63t-39.5 37.5
t-52 18.5t-53 5q-21 0 -39.5 -1.5t-22.5 -1.5v-257zM288 671q37 0 80.5 -6.5t75.5 -23.5q42 -23 57.5 -56t15.5 -72q0 -29 -9 -57.5t-37 -51.5q-20 -17 -48.5 -29t-50.5 -17v-2q24 -1 59.5 -8t63.5 -24q35 -23 49.5 -56.5t14.5 -75.5q0 -32 -12 -69.5t-53 -69.5
q-22 -18 -48.5 -28.5t-53 -16t-51.5 -7t-44 -1.5h-264v41l57 5l17 14v551l-17 14l-57 5v41h255z" />
    <glyph glyph-name="C" unicode="C" horiz-adv-x="632" 
d="M588 23q-47 -17 -97.5 -26t-100.5 -9q-30 0 -63 4.5t-66 16t-65 31.5t-61 52q-12 12 -27.5 33.5t-30 52t-24.5 71t-10 91.5q0 46 9 85.5t24 71.5t34.5 58t41.5 45q18 16 41.5 31t54.5 26.5t68.5 18.5t83.5 7q64 0 111.5 -11.5t76.5 -22.5v-154h-56l-15 91l-13 18
q-23 11 -49.5 18.5t-61.5 7.5q-71 0 -118 -26t-75.5 -67.5t-40 -93.5t-11.5 -104q0 -71 18 -123.5t45 -86.5q12 -15 29.5 -30.5t41 -28.5t54.5 -21t70 -8q27 0 48.5 4t39.5 9l16 16l22 111h56v-158z" />
    <glyph glyph-name="D" unicode="D" horiz-adv-x="693" 
d="M197 46h79q74 0 121.5 19t76.5 47q32 31 52.5 86t20.5 140q0 86 -22 141.5t-59 88t-86 45t-104 12.5h-79v-579zM280 671q94 0 154 -21t95 -47q22 -16 43.5 -39.5t38.5 -56t28 -75t11 -96.5q0 -97 -39 -173t-115 -120q-45 -26 -96 -34.5t-120 -8.5h-247v41l57 5l17 14v551
l-17 14l-57 5v41h247z" />
    <glyph glyph-name="E" unicode="E" horiz-adv-x="576" 
d="M33 41l57 5l17 14v551l-17 14l-57 5v41h479v-146h-56l-14 85l-14 15h-231v-253h164l14 14l11 73h46v-220h-46l-11 73l-14 14h-164v-280h267l14 15l14 102h56v-163h-515v41z" />
    <glyph glyph-name="F" unicode="F" horiz-adv-x="546" 
d="M41 41l57 5l17 14v551l-17 14l-65 5v41h480v-156h-56l-14 95l-14 15h-224v-263h164l14 14l11 73h46v-221h-46l-11 74l-14 14h-164v-256l17 -14l71 -5v-41h-252v41z" />
    <glyph glyph-name="G" unicode="G" horiz-adv-x="694" 
d="M667 322v-41l-55 -5l-17 -14v-239q-38 -12 -92.5 -23.5t-114.5 -11.5q-67 0 -130 21.5t-118 77.5q-17 18 -34 42t-31 55.5t-23 70.5t-9 86q0 50 10 90.5t26 73t36 56.5t41 42q30 25 61.5 40.5t63 24.5t62.5 12t59 3q24 0 72 -4.5t120 -24.5v-159h-56l-15 91l-14 18
q-23 11 -51.5 18.5t-63.5 7.5q-65 0 -106.5 -21.5t-64.5 -44.5q-28 -29 -51.5 -83t-23.5 -139q0 -56 13 -110t43 -96.5t79.5 -68.5t122.5 -26q22 0 47.5 3t51.5 10v208l-17 14l-71 5v41h250z" />
    <glyph glyph-name="H" unicode="H" horiz-adv-x="738" 
d="M276 671v-41l-62 -5l-17 -14v-236h344v236l-17 14l-62 5v41h243v-41l-57 -5l-17 -14v-551l17 -14l57 -5v-41h-243v41l62 5l17 14v269h-344v-269l17 -14l62 -5v-41h-243v41l57 5l17 14v551l-17 14l-57 5v41h243z" />
    <glyph glyph-name="I" unicode="I" horiz-adv-x="322" 
d="M35 41l64 5l17 14v551l-17 14l-64 5v41h252v-41l-64 -5l-17 -14v-551l17 -14l64 -5v-41h-252v41z" />
    <glyph glyph-name="J" unicode="J" horiz-adv-x="444" 
d="M254 625l-67 5v41h253v-41l-62 -5l-17 -14v-355q0 -23 -2 -51t-8 -57t-18 -56t-32 -48q-18 -20 -39.5 -31t-42.5 -16.5t-40.5 -7t-33.5 -1.5q-18 0 -52 3.5t-81 20.5v167h56l24 -126l14 -13q16 -4 35 -4q43 0 69 20t39.5 51.5t17.5 69.5t4 75v359z" />
    <glyph glyph-name="K" unicode="K" horiz-adv-x="612" 
d="M33 41l57 5l17 14v551l-17 14l-57 5v41h243v-41l-62 -5l-17 -14v-271h38l222 271l-6 14l-56 5v41h208v-41l-66 -8l-210 -250l227 -331h73v-41h-165v30l-191 269h-74v-239l17 -14l62 -5v-41h-243v41z" />
    <glyph glyph-name="L" unicode="L" horiz-adv-x="520" 
d="M26 41l64 5l17 14v551l-17 14l-64 5v41h244v-41l-57 -5l-16 -14v-565h225l14 16l17 120h52v-182h-479v41z" />
    <glyph glyph-name="M" unicode="M" horiz-adv-x="868" 
d="M31 41l60 8l18 19v543l-13 14l-66 5v41h212v-27l188 -502l190 498v31h215v-41l-62 -5l-12 -14v-551l12 -14l62 -5v-41h-240v41l66 5l10 14v564l-237 -624h-43l-228 614v-546l18 -19l61 -8v-41h-211v41z" />
    <glyph glyph-name="N" unicode="N" horiz-adv-x="714" 
d="M29 41l61 8l18 19v543l-18 14l-64 5v41h188v-25l342 -512v470l-18 18l-60 8v41h210v-41l-60 -8l-18 -18v-604h-66l-382 568v-500l18 -19l60 -8v-41h-211v41z" />
    <glyph glyph-name="O" unicode="O" horiz-adv-x="732" 
d="M364 634q-57 0 -98 -24t-67.5 -65t-38.5 -95t-12 -113q0 -15 1.5 -39.5t7 -53.5t16.5 -60.5t31 -59.5q18 -27 39 -43.5t42.5 -26.5t42.5 -13.5t39 -3.5q13 0 32.5 2.5t40.5 11t43 24.5t42 43q21 28 32.5 59.5t17.5 61.5t7.5 55t1.5 40q0 78 -20 139.5t-55 99.5
q-20 21 -41 33t-40.5 18.5t-36.5 8t-27 1.5zM369 687q75 0 134.5 -27.5t100.5 -74.5t63 -111.5t22 -137.5q0 -81 -25 -145t-65 -108q-17 -18 -39 -35.5t-51 -32t-64.5 -23t-77.5 -8.5q-78 0 -135 27.5t-95 67.5q-15 15 -31.5 38.5t-30.5 55t-23 72.5t-9 91q0 52 10 94t26 76
t36 59.5t40 43.5q15 13 35.5 27t47 25t59.5 18.5t72 7.5z" />
    <glyph glyph-name="P" unicode="P" horiz-adv-x="566" 
d="M205 305q25 -5 43 -5.5t24 -0.5q36 0 66.5 11t53 32.5t35 53.5t12.5 73q0 32 -8.5 61.5t-32.5 52.5q-15 14 -32.5 22.5t-35.5 13t-36 5.5t-34 1q-17 0 -31.5 -0.5t-23.5 -1.5v-318zM41 41l57 5l17 14v551l-17 14l-65 5v41h228q85 0 139 -14.5t85 -40.5t42.5 -61.5
t11.5 -77.5q0 -64 -21.5 -107t-57 -69t-82 -37t-97.5 -11q-18 0 -42.5 1.5t-33.5 2.5v-197l17 -14l71 -5v-41h-252v41z" />
    <glyph glyph-name="Q" unicode="Q" horiz-adv-x="732" 
d="M364 634q-57 0 -98 -24t-67.5 -65t-38.5 -95t-12 -113q0 -15 1.5 -39.5t7 -53.5t16.5 -60.5t31 -59.5q18 -27 39 -43.5t42.5 -26.5t42.5 -13.5t39 -3.5q13 0 32.5 2.5t40.5 11t43 24.5t42 43q21 28 32.5 59.5t17.5 61.5t7.5 55t1.5 40q0 78 -20 139.5t-55 99.5
q-20 21 -41 33t-40.5 18.5t-36.5 8t-27 1.5zM650 -160q-33 -7 -70 -11.5t-72 -4.5q-16 0 -35.5 1.5t-39 6t-38.5 13.5t-34 24q-14 13 -22 29t-12.5 32t-6 31.5t-1.5 27.5q-20 2 -48.5 10.5t-59 25t-61 42.5t-54 64t-38.5 88.5t-15 116.5q0 52 10 94t26 76t36 59.5t40 43.5
q15 13 35.5 27t47 25t59.5 18.5t73 7.5q75 0 134 -27.5t100 -75t63 -111.5t22 -137q0 -81 -25 -145t-65 -108q-28 -30 -73 -58.5t-112 -36.5q1 -35 14.5 -58t34.5 -36.5t46 -18.5t49 -5q12 0 33.5 1.5t58.5 9.5v-41z" />
    <glyph glyph-name="R" unicode="R" horiz-adv-x="646" 
d="M197 346q9 -1 25 -1.5t35 -0.5q14 0 31.5 1t35.5 5t36 11.5t32 21.5q24 23 30.5 50.5t6.5 51.5q0 29 -8 58t-37 50q-14 10 -31.5 16.5t-36 10t-37 4.5t-34.5 1h-48v-279zM288 671q32 0 74 -5.5t79 -24t62.5 -53t25.5 -92.5q0 -27 -9 -59.5t-39 -59.5q-21 -19 -53 -32
t-61 -18v-2q34 -7 57 -22.5t38 -36.5t24 -46t15 -52q9 -36 18.5 -61t25.5 -40.5t39.5 -22t60.5 -6.5h11v-38q-21 -4 -43 -6t-42 -2q-19 0 -45 3.5t-49 21.5q-14 11 -24.5 27t-17.5 33t-12 34.5l-9 31.5q-12 46 -26 76.5t-33.5 48.5t-45.5 25t-63 7q-13 0 -27 -0.5t-22 -1.5
v-238l17 -14l57 -5v-41h-238v41l57 5l17 14v551l-17 14l-57 5v41h255z" />
    <glyph glyph-name="S" unicode="S" horiz-adv-x="556" 
d="M60 196h56l15 -115l13 -17q15 -8 40.5 -15.5t69.5 -7.5q33 0 61 6.5t48.5 21t32 38t11.5 57.5q0 38 -14.5 56.5t-33.5 31.5q-26 17 -57.5 31.5l-63.5 29t-62 30.5t-53.5 36t-37.5 46t-14 61q0 61 23.5 99.5t59 60.5t76 29.5t74.5 7.5q30 0 73.5 -5.5t94.5 -22.5v-155h-56
l-11 95l-15 17q-17 9 -38.5 15t-51.5 6q-27 0 -51.5 -8t-43 -23t-30 -37.5t-11.5 -51.5t12 -51t41 -39q24 -15 54 -28l61.5 -27t61.5 -30t53.5 -37t38 -47.5t14.5 -61.5q0 -63 -26 -102.5t-65 -62t-86 -31t-89 -8.5q-66 0 -109.5 12t-64.5 20v176z" />
    <glyph glyph-name="T" unicode="T" horiz-adv-x="594" 
d="M578 671v-156h-55l-14 95l-14 15h-153v-565l17 -14l67 -5v-41h-258v41l67 5l17 14v565h-153l-14 -15l-14 -95h-55v156h562z" />
    <glyph glyph-name="U" unicode="U" horiz-adv-x="694" 
d="M268 671v-41l-62 -5l-17 -14v-362q0 -14 1 -32t4.5 -37.5t11 -39.5t20.5 -36q14 -17 31 -27.5t36 -16.5t38 -8t37 -2q38 0 75.5 9.5t64.5 42.5q13 16 21 36t12 40.5t5 38.5t1 32v355l-19 18l-60 8v41h211v-41l-60 -8l-18 -18v-364q0 -42 -7 -86.5t-32.5 -81.5
t-75.5 -60.5t-135 -23.5t-135 22t-76 58t-33.5 81t-7.5 91v371l-17 14l-57 5v41h243z" />
    <glyph glyph-name="V" unicode="V" horiz-adv-x="618" 
d="M210 671v-41l-58 -5l-11 -14l188 -504l181 504l-10 14l-62 5v41h199v-41l-62 -11l-230 -624h-69l-235 624l-64 11v41h233z" />
    <glyph glyph-name="W" unicode="W" horiz-adv-x="928" 
d="M63 617l-63 13v41h230v-41l-63 -7l-8 -14l123 -462l161 524h70l164 -535l121 469l-11 14l-67 11v41h207v-41l-67 -13l-159 -617h-68l-169 547l-165 -547h-68z" />
    <glyph glyph-name="X" unicode="X" horiz-adv-x="600" 
d="M252 671v-41l-60 -5l-8 -12l131 -206l142 202l-9 13l-58 8v41h204v-41l-64 -9l-183 -261l194 -307l68 -12v-41h-253v41l67 7l7 14l-141 227l-158 -224l6 -18l67 -6v-41h-213v41l66 13l201 281l-181 283l-66 12v41h241z" />
    <glyph glyph-name="Y" unicode="Y" horiz-adv-x="586" 
d="M219 671v-41l-57 -5l-10 -11l153 -275l168 267l-9 14l-61 10v41h204v-41l-61 -12l-209 -334v-224l16 -14l68 -5v-41h-258v41l68 5l16 14v212l-199 349l-61 9v41h232z" />
    <glyph glyph-name="Z" unicode="Z" horiz-adv-x="586" 
d="M534 671v-42l-380 -580h302l11 13l18 119h54v-181h-494v41l379 582h-267l-19 -13l-16 -94h-55v155h467z" />
    <glyph glyph-name="bracketleft" unicode="[" horiz-adv-x="421" 
d="M376 708v-43h-158v-755h158v-42h-237v840h237z" />
    <glyph glyph-name="backslash" unicode="\" horiz-adv-x="542" 
d="M73 671l429 -764h-61l-429 764h61z" />
    <glyph glyph-name="bracketright" unicode="]" horiz-adv-x="421" 
d="M282 -132h-237v42h158v755h-158v43h237v-840z" />
    <glyph glyph-name="asciicircum" unicode="^" horiz-adv-x="1000" 
d="M544 714l254 -276h-45l-253 213l-254 -213h-44l255 276h87z" />
    <glyph glyph-name="underscore" unicode="_" 
d="M500 -80v-58h-500v58h500z" />
    <glyph glyph-name="grave" unicode="`" 
d="M203 736l97 -190h-50l-146 190h99z" />
    <glyph glyph-name="a" unicode="a" horiz-adv-x="506" 
d="M334 268q-32 -9 -70 -21.5t-64 -24.5q-12 -6 -24.5 -13t-22.5 -18t-16.5 -25.5t-6.5 -35.5q0 -14 4 -28.5t13 -26.5t24.5 -20t38.5 -8q20 0 48 8.5t76 36.5v176zM334 58q-58 -41 -97 -54t-67 -13q-34 0 -58 11.5t-39.5 30.5t-23 42t-7.5 47q0 28 9 48.5t23.5 35
t32.5 24.5t36 17l29.5 11t39 12.5l52.5 14.5l70 18v32q0 15 -0.5 34t-8.5 36t-26 29t-53 12q-20 0 -40 -4t-39 -11v-84h-69q-9 0 -20 4t-11 22q0 20 10.5 40.5t34.5 37.5t62 28t93 11q9 0 23.5 -0.5t31.5 -4.5t34 -11.5t30 -21.5q12 -12 18.5 -27t9.5 -30t3.5 -27.5
t0.5 -20.5v-290l17 -21h53v-36h-140z" />
    <glyph glyph-name="b" unicode="b" horiz-adv-x="540" 
d="M169 46q8 -1 24 -1.5t30 -0.5q30 0 63.5 7t61.5 28t46.5 59.5t18.5 102.5q0 35 -6.5 70t-23.5 62.5t-48 45t-79 17.5q-26 0 -49.5 -5t-37.5 -9v-376zM169 736v-280q23 11 59 22.5t77 11.5t77 -13.5t63 -42t42.5 -73t15.5 -106.5q0 -61 -19.5 -111.5t-67.5 -87.5
q-25 -20 -53 -31t-55 -16.5t-52 -7t-43 -1.5h-128v669h-77v31l123 36h38z" />
    <glyph glyph-name="c" unicode="c" horiz-adv-x="446" 
d="M425 42q-57 -34 -96.5 -42.5t-65.5 -8.5q-49 0 -90.5 16.5t-71.5 48.5t-47 78.5t-17 105.5q0 58 17 104.5t48.5 79t76.5 49.5t100 17q41 0 68.5 -9t44.5 -23t24.5 -30.5t7.5 -31.5q0 -25 -15 -40t-39 -15q-8 0 -21 3t-26 11v82q-8 5 -20 9t-30 4t-45 -8.5t-52 -37.5
t-36 -71t-11 -84q0 -8 1 -26t6 -40t15 -45.5t28.5 -42.5t47 -31.5t70.5 -12.5q39 0 72 14t56 29v-52z" />
    <glyph glyph-name="d" unicode="d" horiz-adv-x="566" 
d="M383 432q-12 3 -36 8.5t-45 5.5q-45 0 -78 -17t-54.5 -45.5t-32 -66t-10.5 -79.5q0 -48 12.5 -82.5t33 -57t47 -33t55.5 -10.5q28 0 56 10t52 24v343zM306 669v31l123 36h38v-679l17 -16l48 -5v-36h-149v52q-48 -39 -86.5 -50t-65.5 -11q-44 0 -79.5 17.5t-61 49
t-39.5 74.5t-14 93q0 41 8.5 74.5t22 59.5t30 45t32.5 32q31 25 73.5 39.5t92.5 14.5q20 0 44.5 -3t42.5 -6v188h-77z" />
    <glyph glyph-name="e" unicode="e" horiz-adv-x="490" 
d="M359 305v25q0 15 -4 34.5t-10 30.5q-2 4 -8 13t-16.5 17t-26 14.5t-37.5 6.5q-32 0 -55.5 -13t-39 -33t-23.5 -45t-11 -50h231zM448 51q-40 -28 -87.5 -44t-96.5 -16q-57 0 -99.5 19t-71 52t-42.5 78t-14 97q0 57 18.5 105.5t51.5 82.5q10 10 25 21.5t35 21.5t45.5 16
t56.5 6q29 0 60.5 -8.5t58 -30.5t43 -61t16.5 -99v-28h-324v-15q0 -37 10 -71t31 -63.5t52.5 -47.5t74.5 -18q25 0 64 10.5t93 47.5v-55z" />
    <glyph glyph-name="f" unicode="f" horiz-adv-x="322" 
d="M30 36l53 5l18 16v364h-64v32l64 15v10q0 66 17 116t45.5 83.5t64 50t73.5 16.5q40 0 60.5 -17t20.5 -41q0 -20 -12 -32.5t-29 -16.5l-91 60q-28 -17 -46.5 -51.5t-18.5 -104.5v-73h139v-47h-139v-364l17 -16l62 -5v-36h-234v36z" />
    <glyph glyph-name="g" unicode="g" horiz-adv-x="522" 
d="M206 30l-19 -7.5t-29 -17.5t-26.5 -30t-11.5 -44q0 -21 10 -39.5t28 -33t43 -22.5t55 -8q26 0 52.5 6.5t48 20t35 34.5t13.5 50q0 12 -3 22.5t-13.5 19.5t-30.5 17t-55 14zM244 450q-42 0 -69 -30t-27 -91q0 -7 2 -27t11 -41.5t29 -38t56 -16.5q17 0 34.5 6.5t31.5 21
t23 37.5t9 57q0 20 -5 41.5t-16.5 39.5t-30.5 29.5t-48 11.5zM512 463v-48h-110q7 -9 17.5 -31t10.5 -60q0 -29 -12 -57t-35.5 -50.5t-58.5 -36.5t-81 -14q-12 0 -21 1q-7 -13 -9 -27t-2 -22q0 -12 2 -20l96 -15q38 -6 69.5 -15t54 -22.5t34.5 -33.5t12 -47q0 -22 -13.5 -53
t-44 -60t-80 -49.5t-121.5 -20.5q-58 0 -88.5 12t-43.5 22q-19 14 -33.5 37t-14.5 58q0 52 30 84t78 40q-10 17 -10 40q0 26 13.5 51.5t34.5 48.5q-25 6 -47.5 18t-39.5 31t-27 44t-10 58q0 14 5 41.5t24.5 54.5t58 47.5t105.5 20.5q23 0 52 -5t62 -22h143z" />
    <glyph glyph-name="h" unicode="h" horiz-adv-x="566" 
d="M180 736v-305q18 11 39.5 21.5t43.5 19t43 13.5t39 5q37 0 62.5 -12t41.5 -32.5t22.5 -48t6.5 -58.5v-282l17 -16l54 -5v-36h-220v36l48 5l17 16v265q0 14 -3.5 36.5t-17.5 39.5q-15 17 -36 21.5t-38 4.5q-20 0 -47.5 -5.5t-71.5 -26.5v-335l18 -16l47 -5v-36h-220v36
l54 5l17 16v612h-77v31l123 36h38z" />
    <glyph glyph-name="i" unicode="i" horiz-adv-x="280" 
d="M189 486v-429l17 -16l54 -5v-36h-226v36l54 5l17 16v362h-71v31l117 36h38zM95 650q0 24 17 41t41 17t41 -17t17 -41t-17 -41t-41 -17t-41 17t-17 41z" />
    <glyph glyph-name="j" unicode="j" horiz-adv-x="266" 
d="M37 419v31l117 36h38v-402q0 -64 -5 -108t-17 -75.5t-32 -52.5t-50 -39l-13 -6.5t-21.5 -9t-28.5 -8t-34 -3.5q-26 0 -40 8t-20.5 18t-7.5 19t-1 11q0 17 10 30t27 20l97 -59q14 7 24 15t16 24t9 43t3 73v435h-71zM88 650q0 24 17 41t41 17t41 -17t17 -41t-17 -41
t-41 -17t-41 17t-17 41z" />
    <glyph glyph-name="k" unicode="k" horiz-adv-x="518" 
d="M25 36l54 5l17 16v612h-77v31l123 36h38v-481h18l153 171l-7 14l-45 4v37h190v-37l-64 -8l-137 -145l177 -248l64 -5v-38h-156v33l-136 194h-57v-170l18 -16l47 -5v-36h-220v36z" />
    <glyph glyph-name="l" unicode="l" horiz-adv-x="284" 
d="M28 36l59 5l17 16v612h-77v31l123 36h38v-679l18 -16l58 -5v-36h-236v36z" />
    <glyph glyph-name="m" unicode="m" horiz-adv-x="844" 
d="M185 431q16 9 36.5 19.5t42.5 19.5t43 14.5t38 5.5q36 0 63.5 -17t46.5 -49q19 12 42.5 24t47 21t45 15t37.5 6q37 0 62 -14.5t40 -37t21 -49t6 -50.5v-282l17 -16l54 -5v-36h-220v36l47 5l18 16v265q0 48 -18 75t-69 27q-29 0 -58.5 -9t-56.5 -23v-335l18 -16l47 -5v-36
h-214v36l48 5l17 16v265q0 30 -7 49.5t-18.5 31t-27 16.5t-32.5 5q-33 0 -64 -10.5t-52 -21.5v-335l17 -16l48 -5v-36h-220v36l54 5l17 16v362h-71v31l117 36h38v-55z" />
    <glyph glyph-name="n" unicode="n" horiz-adv-x="570" 
d="M30 36l54 5l17 16v362h-71v31l117 36h38v-55q10 6 29 15.5t42 19.5t47.5 17t46.5 7q14 0 36.5 -4t44 -19.5t37 -45.5t15.5 -82v-282l17 -16l54 -5v-36h-220v36l48 5l17 16v265q0 16 -2.5 34t-12.5 33t-29 25t-52 10q-26 0 -54.5 -7t-63.5 -25v-335l17 -16l48 -5v-36h-220
v36z" />
    <glyph glyph-name="o" unicode="o" horiz-adv-x="540" 
d="M268 446q-16 0 -43 -8.5t-52 -40.5q-23 -31 -32.5 -72.5t-9.5 -83.5q0 -30 5.5 -63.5t20.5 -65.5q12 -24 26 -39t29 -23.5t29.5 -11.5t27.5 -3q24 0 52 12t51 47t30 73.5t7 72.5q0 16 -1.5 35.5t-6 40.5t-13.5 42t-23 39q-26 32 -53 40.5t-44 8.5zM271 490q54 0 97 -19.5
t73 -53.5t46 -79.5t16 -97.5q0 -61 -20 -106.5t-49 -75.5q-23 -24 -63.5 -45.5t-101.5 -21.5q-33 0 -59.5 7t-47.5 17.5t-36.5 23t-25.5 24.5q-26 28 -44.5 71.5t-18.5 105.5q0 48 14 93.5t42.5 80t72.5 55.5t105 21z" />
    <glyph glyph-name="p" unicode="p" horiz-adv-x="552" 
d="M177 58q26 -11 44.5 -14t29.5 -3q44 0 76.5 16.5t54.5 44.5t32.5 65t10.5 78q0 36 -8.5 69t-26.5 58t-45 39.5t-64 14.5q-29 0 -57.5 -10.5t-46.5 -21.5v-336zM22 -182l55 5l16 16v580h-71v31l117 36h38v-55q25 19 45.5 30.5t38.5 18t33.5 8.5t29.5 2q37 0 71.5 -14
t61 -42.5t42.5 -72.5t16 -104q0 -73 -23.5 -121.5t-50.5 -74.5q-29 -29 -71 -46.5t-99 -17.5q-9 0 -32.5 1t-61.5 8v-167l17 -16l64 -5v-36h-236v36z" />
    <glyph glyph-name="q" unicode="q" horiz-adv-x="530" 
d="M371 438q-25 7 -43.5 8.5t-25.5 1.5q-48 0 -81.5 -16.5t-54.5 -44.5t-30 -65.5t-9 -80.5q0 -36 8 -70.5t26 -61.5t47.5 -43t73.5 -16q17 0 35.5 3.5t53.5 11.5v373zM371 33q-48 -25 -82 -31t-52 -6q-57 0 -95.5 22.5t-61.5 57t-33 75t-10 76.5q0 76 26 126.5t66 82.5
q25 20 70.5 38t118.5 18q19 0 55.5 -3t84.5 -14q-2 -26 -2.5 -44t-0.5 -29v-563l17 -17l54 -4v-36h-235v40h63l17 17v194z" />
    <glyph glyph-name="r" unicode="r" horiz-adv-x="382" 
d="M31 36l54 5l17 16v362h-72v31l117 36h38v-94q51 53 79 76t50 23t37.5 -4t25.5 -9v-86h-32q-8 10 -20 17t-29 7q-32 0 -59 -22t-51 -51v-286l17 -16l70 -5v-36h-242v36z" />
    <glyph glyph-name="s" unicode="s" horiz-adv-x="400" 
d="M345 356h-48l-9 71q-24 13 -43.5 16t-29.5 3q-15 0 -30 -3t-27 -10.5t-19.5 -21t-7.5 -34.5q0 -32 23.5 -53.5t66.5 -40.5q34 -15 60 -29t43.5 -29.5t26.5 -35.5t9 -48q0 -47 -19 -76t-48 -45.5t-62.5 -22.5t-63.5 -6q-42 0 -72 6.5t-53 14.5v130h48l12 -85
q13 -7 34 -14.5t48 -7.5q51 0 74.5 22.5t23.5 57.5q0 23 -11 39t-28 28t-37 20.5t-37 16.5q-49 23 -69 38.5t-26 23.5q-14 17 -18.5 34.5t-4.5 34.5q0 46 20.5 74t49 42.5t58.5 19t49 4.5q42 0 69.5 -6.5t47.5 -14.5v-113z" />
    <glyph glyph-name="t" unicode="t" horiz-adv-x="334" 
d="M25 421v31l66 29l43 93h37v-106h152v-47h-152v-264q0 -39 7 -60.5t18.5 -32.5t26 -13.5t29.5 -2.5q24 0 40.5 2.5t30.5 5.5v-37q-42 -14 -78.5 -18.5t-59.5 -4.5q-16 0 -37 3.5t-37 18.5q-17 17 -20.5 39.5t-3.5 40.5v323h-62z" />
    <glyph glyph-name="u" unicode="u" horiz-adv-x="572" 
d="M181 490v-330q0 -16 4 -40t21 -41q15 -16 35.5 -20t36.5 -4t45.5 4.5t71.5 24.5v339h-71v31l117 36h38v-433l18 -16l47 -5v-36h-149v56q-38 -28 -81.5 -46.5t-84.5 -18.5q-24 0 -49 7t-46 30q-24 26 -30.5 57.5t-6.5 57.5v280h-71v31l117 36h38z" />
    <glyph glyph-name="v" unicode="v" horiz-adv-x="494" 
d="M212 481v-36l-53 -5l-12 -16l117 -327l128 327l-8 16l-54 5v36h177v-36l-59 -9l-175 -436h-56l-161 438l-61 7v36h217z" />
    <glyph glyph-name="w" unicode="w" horiz-adv-x="770" 
d="M214 481v-36l-53 -5l-12 -16l91 -325l134 382h61l118 -382l102 325l-8 16l-54 5v36h177v-36l-56 -9l-143 -436h-62l-121 379l-135 -379h-62l-133 438l-61 7v36h217z" />
    <glyph glyph-name="x" unicode="x" horiz-adv-x="504" 
d="M233 481v-36l-46 -7l-5 -10l84 -131l91 128l-8 13l-48 7v36h180v-36l-56 -11l-132 -175l147 -214l60 -8v-37h-213v37l42 7l5 8l-93 149l-102 -145l5 -12l57 -7v-37h-189v37l57 8l144 193l-134 195l-61 12v36h215z" />
    <glyph glyph-name="y" unicode="y" horiz-adv-x="496" 
d="M217 481v-36l-53 -5l-12 -16l120 -311l125 311l-8 16l-54 5v36h178v-36l-58 -9l-200 -486q-20 -48 -35.5 -73.5t-23.5 -35.5q-15 -20 -39.5 -39.5t-62.5 -19.5q-33 0 -50.5 17t-17.5 40q0 10 5 25.5t21 27.5l96 -38q30 33 48 72.5t33 77.5l-169 434l-61 7v36h218z" />
    <glyph glyph-name="z" unicode="z" horiz-adv-x="468" 
d="M45 50l267 385h-185l-14 -16l-11 -78h-47v140h361v-38l-277 -397h215l15 16l11 84h51v-146h-386v50z" />
    <glyph glyph-name="braceleft" unicode="{" horiz-adv-x="486" 
d="M418 666q-38 -2 -62.5 -8.5t-39 -20t-20 -35.5t-5.5 -56v-81q0 -41 -7 -70.5t-22.5 -50t-40.5 -33.5t-61 -21q69 -14 100 -54t31 -115v-83q0 -41 5 -66.5t19 -40.5t39 -20.5t64 -5.5v-39q-67 0 -107.5 8.5t-62.5 29t-29.5 56t-7.5 89.5v85q0 38 -6 64t-21 41.5t-39.5 22
t-61.5 6.5h-18v43h31q63 0 89 29t26 100v102q0 85 45 123t147 38h15v-37z" />
    <glyph glyph-name="bar" unicode="|" 
d="M281 764v-1000h-62v1000h62z" />
    <glyph glyph-name="braceright" unicode="}" horiz-adv-x="486" 
d="M83 703q102 0 147 -38t45 -123v-102q0 -71 26 -100t89 -29h31v-43h-19q-36 0 -60.5 -6.5t-39 -22t-21 -41.5t-6.5 -64v-85q0 -55 -7.5 -90.5t-30 -56t-63 -28.5t-106.5 -8v39q39 0 64 5.5t39 20.5t19 40.5t5 66.5v83q0 75 31 115t100 54q-36 8 -61 21t-40.5 33.5
t-22.5 50t-7 70.5v81q0 34 -5.5 56t-20 35.5t-39 20t-62.5 8.5v37h15z" />
    <glyph glyph-name="asciitilde" unicode="~" horiz-adv-x="833" 
d="M746 306q-55 -38 -99 -54t-90 -16q-15 0 -28 1.5t-29 5t-37.5 10.5t-53.5 19q-47 17 -77.5 24t-56.5 7q-21 0 -41 -4t-42.5 -13t-48 -24t-57.5 -37v65q58 38 102 54.5t88 16.5q17 0 31.5 -1.5t33 -6t44.5 -13.5l66 -23q36 -14 59.5 -19t46.5 -5q21 0 41.5 4t43 13
t47.5 23.5t57 36.5v-64z" />
    <glyph glyph-name="afii10051" horiz-adv-x="740" 
d="M578 671v-156h-55l-14 95l-14 15h-163v-259q61 18 103.5 22t56.5 4q65 0 104 -18.5t61 -41.5q19 -20 33.5 -53t14.5 -83q0 -54 -16.5 -93.5t-44.5 -65t-65.5 -37.5t-78.5 -12q-20 0 -44 3.5t-47 8.5v120h48l11 -74l12 -10q5 -1 11 -1.5t13 -0.5q21 0 40 8t34 26t24 45.5
t9 66.5q0 54 -15 85.5t-37 48t-47 21t-46 4.5q-30 0 -65 -6t-69 -17v-316h-174v41l67 5l17 14v565h-143l-14 -15l-14 -95h-55v156h562z" />
    <glyph glyph-name="afii10051" unicode="&#x402;" horiz-adv-x="740" 
d="M578 671v-156h-55l-14 95l-14 15h-163v-259q61 18 103.5 22t56.5 4q65 0 104 -18.5t61 -41.5q19 -20 33.5 -53t14.5 -83q0 -54 -16.5 -93.5t-44.5 -65t-65.5 -37.5t-78.5 -12q-20 0 -44 3.5t-47 8.5v120h48l11 -74l12 -10q5 -1 11 -1.5t13 -0.5q21 0 40 8t34 26t24 45.5
t9 66.5q0 54 -15 85.5t-37 48t-47 21t-46 4.5q-30 0 -65 -6t-69 -17v-316h-174v41l67 5l17 14v565h-143l-14 -15l-14 -95h-55v156h562z" />
    <glyph glyph-name="afii10052" horiz-adv-x="546" 
d="M41 41l57 5l17 14v551l-17 14l-65 5v41h480v-182h-52l-18 120l-14 16h-224v-565l17 -14l71 -5v-41h-252v41zM425 892l-140 -148h-50l90 148h100z" />
    <glyph glyph-name="afii10052" unicode="&#x403;" horiz-adv-x="546" 
d="M41 41l57 5l17 14v551l-17 14l-65 5v41h480v-182h-52l-18 120l-14 16h-224v-565l17 -14l71 -5v-41h-252v41zM425 892l-140 -148h-50l90 148h100z" />
    <glyph glyph-name="quotesinglbase" unicode="&#x201a;" horiz-adv-x="201" 
d="M31 -164q23 27 38.5 48t24.5 38.5t13 33t4 31.5v10q0 5 -2 16h-64q-8 11 -10.5 19t-2.5 17q0 26 17 42t43 16q35 0 56.5 -24.5t21.5 -64.5q0 -47 -22 -88t-74 -94h-43z" />
    <glyph glyph-name="afii10100" unicode="&#x192;" horiz-adv-x="440" 
d="M30 36l54 5l17 16v367l-17 16l-54 5v36h394v-165h-51l-14 103l-15 16h-159v-378l17 -16l70 -5v-36h-242v36zM379 736l-146 -190h-50l97 190h99z" />
    <glyph glyph-name="afii10100" unicode="&#x453;" horiz-adv-x="440" 
d="M30 36l54 5l17 16v367l-17 16l-54 5v36h394v-165h-51l-14 103l-15 16h-159v-378l17 -16l70 -5v-36h-242v36zM379 736l-146 -190h-50l97 190h99z" />
    <glyph glyph-name="quotedblbase" unicode="&#x201e;" horiz-adv-x="402" 
d="M228 -164q44 52 62 85.5t18 65.5q0 12 -2 26h-64q-8 11 -10.5 19t-2.5 17q0 26 17 42t44 16q34 0 55.5 -24.5t21.5 -64.5q0 -47 -22 -88t-74 -94h-43zM27 -164q23 27 38.5 48t24.5 38.5t13 33t4 31.5q0 12 -2 26h-64q-8 11 -10.5 19t-2.5 17q0 26 17 42t43 16
q35 0 56.5 -24.5t21.5 -64.5q0 -47 -22 -88t-74 -94h-43z" />
    <glyph glyph-name="ellipsis" unicode="&#x2026;" horiz-adv-x="1000" 
d="M769 55q0 26 19 45t45 19t45 -19t19 -45t-19 -45t-45 -19t-45 19t-19 45zM436 55q0 26 19 45t45 19t45 -19t19 -45t-19 -45t-45 -19t-45 19t-19 45zM103 55q0 26 19 45t45 19t45 -19t19 -45t-19 -45t-45 -19t-45 19t-19 45z" />
    <glyph glyph-name="dagger" unicode="&#x2020;" 
d="M257 460l42 -166l-42 -423h-14l-41 423l41 166h14zM483 483l-73 -46l-141 35v16l141 40zM232 488v-16l-144 -35l-71 46l71 45zM294 642l-37 -140h-14l-38 140l44 76z" />
    <glyph glyph-name="daggerdbl" unicode="&#x2021;" 
d="M257 84l37 -140l-45 -76l-44 76l38 140h14zM483 106l-73 -46l-141 35v16l141 40zM232 111v-16l-144 -35l-71 46l71 45zM257 460l48 -166l-48 -167h-14l-51 167l51 166h14zM483 483l-73 -46l-141 35v16l141 40zM232 488v-16l-144 -35l-71 46l71 45zM294 642l-37 -140h-14
l-38 140l44 76z" />
    <glyph glyph-name="accent" horiz-adv-x="2" 
d="M-90 736l-146 -190h-50l97 190h99z" />
    <glyph glyph-name="accent" unicode="&#x20ac;" horiz-adv-x="2" 
d="M-90 736l-146 -190h-50l97 190h99z" />
    <glyph glyph-name="accent" unicode="&#x301;" horiz-adv-x="2" 
d="M-90 736l-146 -190h-50l97 190h99z" />
    <glyph glyph-name="accent" unicode="&#x2c6;" horiz-adv-x="2" 
d="M-90 736l-146 -190h-50l97 190h99z" />
    <glyph glyph-name="perthousand" unicode="&#x2030;" horiz-adv-x="1224" 
d="M1041 371q-38 0 -57.5 -44.5t-19.5 -130.5q0 -172 77 -172q40 0 60.5 44t20.5 130q0 85 -20.5 129t-60.5 44zM1045 407q69 0 108.5 -56t39.5 -153q0 -98 -40 -154t-110 -56t-110 55.5t-40 152.5q0 100 40 155.5t112 55.5zM669 371q-38 0 -57.5 -44.5t-19.5 -129.5
q0 -173 77 -173q40 0 60.5 44t20.5 129q0 86 -20.5 130t-60.5 44zM673 407q69 0 108.5 -56.5t39.5 -153.5q0 -98 -40 -153.5t-110 -55.5t-110 55.5t-40 153.5q0 100 40 155t112 55zM669 671l-428 -671h-60l427 671h61zM179 647q-38 0 -57.5 -44.5t-19.5 -129.5
q0 -173 77 -173q40 0 60.5 44t20.5 129q0 86 -20.5 130t-60.5 44zM183 683q69 0 108.5 -56.5t39.5 -153.5t-40 -153t-110 -56t-110 55.5t-40 152.5q0 100 40 155.5t112 55.5z" />
    <glyph glyph-name="afii10058" unicode="&#x160;" horiz-adv-x="926" 
d="M529 50q20 -2 38 -3t38 -1q15 0 34 1t38.5 5t38.5 12t34 23q26 24 33.5 54.5t7.5 56.5q0 23 -6 52t-31 54q-26 27 -61 34.5t-67 7.5q-21 0 -45.5 -1.5t-51.5 -6.5v-288zM610 671v-41l-64 -5l-17 -14v-225q25 3 51.5 4.5t52.5 1.5q18 0 40.5 -1t46.5 -5.5t48.5 -13
t46.5 -23.5q38 -26 57 -62.5t19 -87.5q0 -31 -12 -70.5t-53 -73.5q-22 -18 -48 -29t-52.5 -17t-51.5 -7.5t-45 -1.5h-264v41l57 5l17 14v565h-158q-2 -38 -6 -81t-8.5 -85.5t-9.5 -81t-10 -67.5q-7 -38 -17.5 -79t-25 -80t-33.5 -72.5t-43 -55.5q-24 -23 -46 -29t-36 -6
q-10 0 -22.5 3t-21.5 9q-8 5 -15.5 16.5t-7.5 32.5q0 23 12 37.5t30 19.5l74 -44q16 23 30 49t26 58.5t22 73.5t19 94q5 32 14.5 103.5t14.5 166.5l-15 13l-87 10v41h491z" />
    <glyph glyph-name="afii10058" unicode="&#x409;" horiz-adv-x="926" 
d="M529 50q20 -2 38 -3t38 -1q15 0 34 1t38.5 5t38.5 12t34 23q26 24 33.5 54.5t7.5 56.5q0 23 -6 52t-31 54q-26 27 -61 34.5t-67 7.5q-21 0 -45.5 -1.5t-51.5 -6.5v-288zM610 671v-41l-64 -5l-17 -14v-225q25 3 51.5 4.5t52.5 1.5q18 0 40.5 -1t46.5 -5.5t48.5 -13
t46.5 -23.5q38 -26 57 -62.5t19 -87.5q0 -31 -12 -70.5t-53 -73.5q-22 -18 -48 -29t-52.5 -17t-51.5 -7.5t-45 -1.5h-264v41l57 5l17 14v565h-158q-2 -38 -6 -81t-8.5 -85.5t-9.5 -81t-10 -67.5q-7 -38 -17.5 -79t-25 -80t-33.5 -72.5t-43 -55.5q-24 -23 -46 -29t-36 -6
q-10 0 -22.5 3t-21.5 9q-8 5 -15.5 16.5t-7.5 32.5q0 23 12 37.5t30 19.5l74 -44q16 23 30 49t26 58.5t22 73.5t19 94q5 32 14.5 103.5t14.5 166.5l-15 13l-87 10v41h491z" />
    <glyph glyph-name="guilsinglleft" unicode="&#x2039;" horiz-adv-x="245" 
d="M199 347l-117 -107l117 -108v-65l-164 133v80l164 133v-66z" />
    <glyph glyph-name="afii10059" unicode="&#x152;" horiz-adv-x="1000" 
d="M603 50q20 -2 38 -3t38 -1q15 0 34 1t38.5 5t38.5 12t34 23q26 24 33.5 54.5t7.5 56.5q0 23 -6 52t-31 54q-26 27 -61 34.5t-67 7.5q-21 0 -45.5 -1.5t-51.5 -6.5v-288zM276 671v-41l-62 -5l-17 -14v-228h316v228l-17 14l-62 5v41h243v-41l-57 -5l-17 -14v-225
q25 3 51.5 4.5t52.5 1.5q34 0 79 -7t84.5 -27.5t67 -58.5t27.5 -100q0 -31 -12 -70.5t-53 -73.5q-22 -18 -48 -29t-52.5 -17t-51.5 -7.5t-45 -1.5h-269v41l62 5l17 14v277h-316v-277l17 -14l62 -5v-41h-243v41l57 5l17 14v551l-17 14l-57 5v41h243z" />
    <glyph glyph-name="afii10059" unicode="&#x40a;" horiz-adv-x="1000" 
d="M603 50q20 -2 38 -3t38 -1q15 0 34 1t38.5 5t38.5 12t34 23q26 24 33.5 54.5t7.5 56.5q0 23 -6 52t-31 54q-26 27 -61 34.5t-67 7.5q-21 0 -45.5 -1.5t-51.5 -6.5v-288zM276 671v-41l-62 -5l-17 -14v-228h316v228l-17 14l-62 5v41h243v-41l-57 -5l-17 -14v-225
q25 3 51.5 4.5t52.5 1.5q34 0 79 -7t84.5 -27.5t67 -58.5t27.5 -100q0 -31 -12 -70.5t-53 -73.5q-22 -18 -48 -29t-52.5 -17t-51.5 -7.5t-45 -1.5h-269v41l62 5l17 14v277h-316v-277l17 -14l62 -5v-41h-243v41l57 5l17 14v551l-17 14l-57 5v41h243z" />
    <glyph glyph-name="afii10061" horiz-adv-x="644" 
d="M276 671v-41l-62 -5l-17 -14v-245h73q11 0 28.5 3t34.5 17q20 15 33 37t18 34l43 96q10 22 22 44.5t27 40.5t34 29.5t45 11.5q30 0 49.5 -15.5t19.5 -45.5q0 -19 -9.5 -33t-24.5 -21l-72 44q-16 -20 -22 -34l-14 -32l-43 -96q-21 -48 -46.5 -68t-45.5 -28v-2
q32 -6 56.5 -21.5t39.5 -32.5q9 -11 22.5 -32t33.5 -67l59 -132l27 -17l69 -5v-41h-190v30l-67 175q-20 53 -50.5 86t-87.5 33h-62v-264l17 -14l62 -5v-41h-243v41l57 5l17 14v551l-17 14l-57 5v41h243zM474 892l-140 -148h-50l90 148h100z" />
    <glyph glyph-name="afii10061" unicode="&#x40c;" horiz-adv-x="644" 
d="M276 671v-41l-62 -5l-17 -14v-245h73q11 0 28.5 3t34.5 17q20 15 33 37t18 34l43 96q10 22 22 44.5t27 40.5t34 29.5t45 11.5q30 0 49.5 -15.5t19.5 -45.5q0 -19 -9.5 -33t-24.5 -21l-72 44q-16 -20 -22 -34l-14 -32l-43 -96q-21 -48 -46.5 -68t-45.5 -28v-2
q32 -6 56.5 -21.5t39.5 -32.5q9 -11 22.5 -32t33.5 -67l59 -132l27 -17l69 -5v-41h-190v30l-67 175q-20 53 -50.5 86t-87.5 33h-62v-264l17 -14l62 -5v-41h-243v41l57 5l17 14v551l-17 14l-57 5v41h243zM474 892l-140 -148h-50l90 148h100z" />
    <glyph glyph-name="afii10060" horiz-adv-x="800" 
d="M578 671v-156h-55l-14 95l-14 15h-163v-259q38 11 83 18.5t89 7.5q66 0 107 -15.5t63.5 -41.5t30 -59t7.5 -68v-148l17 -14l57 -5v-41h-238v41l57 5l17 14v153v5q0 20 -4 44t-24 44q-10 10 -24 16.5t-29 10t-30.5 5t-28.5 1.5q-21 0 -62.5 -4.5t-87.5 -18.5v-256l17 -14
l67 -5v-41h-258v41l67 5l17 14v565h-143l-14 -15l-14 -95h-55v156h562z" />
    <glyph glyph-name="afii10060" unicode="&#x40b;" horiz-adv-x="800" 
d="M578 671v-156h-55l-14 95l-14 15h-163v-259q38 11 83 18.5t89 7.5q66 0 107 -15.5t63.5 -41.5t30 -59t7.5 -68v-148l17 -14l57 -5v-41h-238v41l57 5l17 14v153v5q0 20 -4 44t-24 44q-10 10 -24 16.5t-29 10t-30.5 5t-28.5 1.5q-21 0 -62.5 -4.5t-87.5 -18.5v-256l17 -14
l67 -5v-41h-258v41l67 5l17 14v565h-143l-14 -15l-14 -95h-55v156h562z" />
    <glyph glyph-name="afii10145" horiz-adv-x="724" 
d="M276 671v-41l-62 -5l-17 -14v-565h330v565l-17 14l-62 5v41h243v-41l-57 -5l-17 -14v-551l17 -14l57 -5v-41h-271l-14 -15l-16 -185h-56l-16 185l-14 15h-271v41l57 5l17 14v551l-17 14l-57 5v41h243z" />
    <glyph glyph-name="afii10145" unicode="&#x40f;" horiz-adv-x="724" 
d="M276 671v-41l-62 -5l-17 -14v-565h330v565l-17 14l-62 5v41h243v-41l-57 -5l-17 -14v-551l17 -14l57 -5v-41h-271l-14 -15l-16 -185h-56l-16 185l-14 15h-271v41l57 5l17 14v551l-17 14l-57 5v41h243z" />
    <glyph glyph-name="afii10099" horiz-adv-x="562" 
d="M180 736v-117h200v-44h-200v-144q20 11 43 22.5t49 20.5q16 6 34 11t39 5q42 0 68.5 -15.5t43.5 -39.5q10 -14 18 -33.5t14 -48.5t9 -68.5t3 -92.5q0 -67 -5 -116t-13 -84t-17 -58t-16 -38q-13 -24 -31.5 -47.5t-44.5 -39.5q-21 -13 -47.5 -20t-49.5 -7q-26 0 -40 8
t-20.5 18t-7.5 19t-1 11q0 17 10 30t27 20l97 -59q19 12 29 26t17 35q10 28 15 69t7 80t2.5 69.5t0.5 39.5q0 62 -3.5 103.5t-9 68.5t-12 42.5t-12.5 24.5q-17 24 -35 30.5t-40 6.5q-21 0 -49 -5.5t-72 -26.5v-335l18 -16l47 -5v-36h-220v36l54 5l17 16v518h-100v44h100v50
h-77v31l123 36h38z" />
    <glyph glyph-name="afii10099" unicode="&#x452;" horiz-adv-x="562" 
d="M180 736v-117h200v-44h-200v-144q20 11 43 22.5t49 20.5q16 6 34 11t39 5q42 0 68.5 -15.5t43.5 -39.5q10 -14 18 -33.5t14 -48.5t9 -68.5t3 -92.5q0 -67 -5 -116t-13 -84t-17 -58t-16 -38q-13 -24 -31.5 -47.5t-44.5 -39.5q-21 -13 -47.5 -20t-49.5 -7q-26 0 -40 8
t-20.5 18t-7.5 19t-1 11q0 17 10 30t27 20l97 -59q19 12 29 26t17 35q10 28 15 69t7 80t2.5 69.5t0.5 39.5q0 62 -3.5 103.5t-9 68.5t-12 42.5t-12.5 24.5q-17 24 -35 30.5t-40 6.5q-21 0 -49 -5.5t-72 -26.5v-335l18 -16l47 -5v-36h-220v36l54 5l17 16v518h-100v44h100v50
h-77v31l123 36h38z" />
    <glyph glyph-name="quoteleft" unicode="&#x2018;" horiz-adv-x="201" 
d="M174 713q-44 -51 -62 -85.5t-18 -66.5v-10q0 -4 2 -15h64q8 -11 10.5 -19t2.5 -17q0 -26 -17 -42t-44 -16q-34 0 -55.5 25t-21.5 64q0 23 5 44t16 42t29.5 44.5t45.5 51.5h43z" />
    <glyph glyph-name="quoteright" unicode="&#x2019;" horiz-adv-x="201" 
d="M31 442q22 26 37.5 47t25 39t13.5 33.5t4 31.5v10t-2 16h-64q-8 11 -10.5 18.5t-2.5 17.5q0 26 17 42t44 16q34 0 55.5 -25t21.5 -64q0 -23 -5 -44.5t-16.5 -43t-29.5 -44.5t-45 -50h-43z" />
    <glyph glyph-name="quotedblleft" unicode="&#x201c;" horiz-adv-x="403" 
d="M376 713q-44 -52 -62 -86t-18 -65v-10t2 -16h64q8 -12 10.5 -19.5t2.5 -17.5q0 -25 -17 -41t-44 -16q-34 0 -55.5 25t-21.5 64q0 46 21.5 87.5t74.5 94.5h43zM174 713q-44 -51 -62 -85.5t-18 -66.5v-10q0 -4 2 -15h64q8 -11 10.5 -19t2.5 -17q0 -26 -17 -42t-44 -16
q-34 0 -55.5 25t-21.5 64q0 23 5 44t16 42t29.5 44.5t45.5 51.5h43z" />
    <glyph glyph-name="quotedblright" unicode="&#x201d;" horiz-adv-x="402" 
d="M228 442q43 50 61.5 85t18.5 67v9q0 5 -2 16h-64q-8 11 -10.5 19t-2.5 17q0 26 17 42t44 16q34 0 55.5 -25t21.5 -64q0 -23 -5 -44.5t-16.5 -43t-29.5 -44.5t-45 -50h-43zM27 442q22 26 37.5 47t25 39t13.5 33.5t4 31.5v10t-2 16h-64q-8 11 -10.5 18.5t-2.5 17.5
q0 26 17 42t44 16q34 0 55.5 -25t21.5 -64q0 -23 -5 -44.5t-16.5 -43t-29.5 -44.5t-45 -50h-43z" />
    <glyph glyph-name="bullet" unicode="&#x2022;" horiz-adv-x="590" 
d="M149 370q0 30 11.5 56.5t31.5 46.5t46.5 31.5t56.5 11.5t56.5 -11.5t46.5 -31.5t31.5 -46.5t11.5 -56.5t-11.5 -56.5t-31.5 -46.5t-46.5 -31.5t-56.5 -11.5t-56.5 11.5t-46.5 31.5t-31.5 46.5t-11.5 56.5z" />
    <glyph glyph-name="endash" unicode="&#x2013;" 
d="M500 271v-61h-500v61h500z" />
    <glyph glyph-name="emdash" unicode="&#x2014;" horiz-adv-x="1000" 
d="M0 271h1000v-61h-1000v61z" />
    <glyph glyph-name="Accent" horiz-adv-x="2" 
d="M-176 892l-140 -148h-50l90 148h100z" />
    <glyph glyph-name="Accent" unicode="&#x2dc;" horiz-adv-x="2" 
d="M-176 892l-140 -148h-50l90 148h100z" />
    <glyph glyph-name="trademark" unicode="&#x2122;" horiz-adv-x="822" 
d="M378 421l31 4v209l-32 5v23h102v-12l68 -180l69 179v13h100v-23l-32 -5v-209l32 -5v-21h-107v21l30 5v212l-92 -238h-22l-88 238v-212l31 -4v-22h-90v22zM256 425l38 -4v-22h-122v21l39 4v215h-52l-8 -6l-6 -40h-27v69h229v-69h-26l-6 40l-7 6h-52v-214z" />
    <glyph glyph-name="afii10106" unicode="&#x161;" horiz-adv-x="730" 
d="M415 50q30 -6 65 -6q44 0 64.5 8.5t28.5 13.5q11 8 22.5 26.5t11.5 50.5q0 31 -10 49t-19 26q-20 19 -46.5 23.5t-45.5 4.5q-20 0 -37 -2t-34 -6v-188zM486 481v-36l-54 -5l-17 -16v-138q20 2 38 3t39 1q38 0 78.5 -6.5t73.5 -32.5q32 -25 41.5 -53.5t9.5 -52.5
q0 -34 -13 -62.5t-43 -49.5q-17 -12 -35.5 -18.5t-36 -9.5t-32 -4t-22.5 -1h-253v36l54 5l17 16v378h-110q-2 -55 -9 -117t-18 -113q-17 -74 -36.5 -113t-35.5 -57q-14 -16 -35.5 -30t-51.5 -14q-5 0 -14.5 1.5t-18.5 7.5q-15 10 -18.5 22.5t-3.5 20.5q0 17 9 32.5t27 24.5
l63 -42q9 10 17.5 24t17.5 34t17 47t16 63q9 46 14.5 99.5t7.5 96.5l-17 18l-62 5v36h396z" />
    <glyph glyph-name="afii10106" unicode="&#x459;" horiz-adv-x="730" 
d="M415 50q30 -6 65 -6q44 0 64.5 8.5t28.5 13.5q11 8 22.5 26.5t11.5 50.5q0 31 -10 49t-19 26q-20 19 -46.5 23.5t-45.5 4.5q-20 0 -37 -2t-34 -6v-188zM486 481v-36l-54 -5l-17 -16v-138q20 2 38 3t39 1q38 0 78.5 -6.5t73.5 -32.5q32 -25 41.5 -53.5t9.5 -52.5
q0 -34 -13 -62.5t-43 -49.5q-17 -12 -35.5 -18.5t-36 -9.5t-32 -4t-22.5 -1h-253v36l54 5l17 16v378h-110q-2 -55 -9 -117t-18 -113q-17 -74 -36.5 -113t-35.5 -57q-14 -16 -35.5 -30t-51.5 -14q-5 0 -14.5 1.5t-18.5 7.5q-15 10 -18.5 22.5t-3.5 20.5q0 17 9 32.5t27 24.5
l63 -42q9 10 17.5 24t17.5 34t17 47t16 63q9 46 14.5 99.5t7.5 96.5l-17 18l-62 5v36h396z" />
    <glyph glyph-name="guilsinglright" unicode="&#x203a;" horiz-adv-x="244" 
d="M209 280v-80l-163 -133v65l117 108l-117 107v66z" />
    <glyph glyph-name="afii10107" unicode="&#x153;" horiz-adv-x="800" 
d="M485 50q30 -6 65 -6q44 0 64.5 8.5t28.5 13.5q11 8 22.5 26.5t11.5 50.5q0 37 -13.5 58t-33 31t-40 12t-34.5 2q-20 0 -37 -2t-34 -6v-188zM30 36l54 5l17 16v367l-17 16l-54 5v36h220v-36l-48 -5l-17 -16v-144h216v144l-17 16l-48 5v36h220v-36l-54 -5l-17 -16v-138
q20 2 38 3t39 1q38 0 78.5 -6.5t73.5 -32.5q32 -25 41.5 -53.5t9.5 -52.5q0 -47 -21.5 -75t-51.5 -44t-60.5 -21t-48.5 -5h-247v36l48 5l17 16v177h-216v-177l17 -16l48 -5v-36h-220v36z" />
    <glyph glyph-name="afii10107" unicode="&#x45a;" horiz-adv-x="800" 
d="M485 50q30 -6 65 -6q44 0 64.5 8.5t28.5 13.5q11 8 22.5 26.5t11.5 50.5q0 37 -13.5 58t-33 31t-40 12t-34.5 2q-20 0 -37 -2t-34 -6v-188zM30 36l54 5l17 16v367l-17 16l-54 5v36h220v-36l-48 -5l-17 -16v-144h216v144l-17 16l-48 5v36h220v-36l-54 -5l-17 -16v-138
q20 2 38 3t39 1q38 0 78.5 -6.5t73.5 -32.5q32 -25 41.5 -53.5t9.5 -52.5q0 -47 -21.5 -75t-51.5 -44t-60.5 -21t-48.5 -5h-247v36l48 5l17 16v177h-216v-177l17 -16l48 -5v-36h-220v36z" />
    <glyph glyph-name="afii10109" horiz-adv-x="536" 
d="M30 36l54 5l17 16v367l-17 16l-54 5v36h220v-36l-48 -5l-17 -16v-154h48q29 0 53 14t38 47l34 78q14 35 37.5 58t59.5 23q31 0 47 -16.5t16 -38.5q0 -33 -28 -49l-70 40q-8 -9 -11 -16.5t-7 -15.5l-30 -71q-16 -38 -36.5 -51t-31.5 -16v-2q23 -5 37.5 -15t24.5 -22
t16.5 -25l13.5 -26l55 -111l17 -12l68 -7v-36h-166v32l-54 124q-17 39 -37.5 54.5t-47.5 15.5h-46v-167l17 -18l48 -5v-36h-220v36zM426 736l-146 -190h-50l97 190h99z" />
    <glyph glyph-name="afii10109" unicode="&#x45c;" horiz-adv-x="536" 
d="M30 36l54 5l17 16v367l-17 16l-54 5v36h220v-36l-48 -5l-17 -16v-154h48q29 0 53 14t38 47l34 78q14 35 37.5 58t59.5 23q31 0 47 -16.5t16 -38.5q0 -33 -28 -49l-70 40q-8 -9 -11 -16.5t-7 -15.5l-30 -71q-16 -38 -36.5 -51t-31.5 -16v-2q23 -5 37.5 -15t24.5 -22
t16.5 -25l13.5 -26l55 -111l17 -12l68 -7v-36h-166v32l-54 124q-17 39 -37.5 54.5t-47.5 15.5h-46v-167l17 -18l48 -5v-36h-220v36zM426 736l-146 -190h-50l97 190h99z" />
    <glyph glyph-name="afii10108" horiz-adv-x="566" 
d="M180 736v-117h200v-44h-200v-144q18 11 44 23.5t48 20.5q40 15 73 15q42 0 66.5 -14t38.5 -34q28 -39 28 -103v-282l17 -16l54 -5v-36h-220v36l48 5l17 16v265q0 14 -3.5 36.5t-17.5 39.5q-15 17 -36 21.5t-38 4.5q-20 0 -47.5 -5.5t-71.5 -26.5v-335l18 -16l47 -5v-36
h-220v36l54 5l17 16v518h-100v44h100v50h-77v31l123 36h38z" />
    <glyph glyph-name="afii10108" unicode="&#x45b;" horiz-adv-x="566" 
d="M180 736v-117h200v-44h-200v-144q18 11 44 23.5t48 20.5q40 15 73 15q42 0 66.5 -14t38.5 -34q28 -39 28 -103v-282l17 -16l54 -5v-36h-220v36l48 5l17 16v265q0 14 -3.5 36.5t-17.5 39.5q-15 17 -36 21.5t-38 4.5q-20 0 -47.5 -5.5t-71.5 -26.5v-335l18 -16l47 -5v-36
h-220v36l54 5l17 16v518h-100v44h100v50h-77v31l123 36h38z" />
    <glyph glyph-name="afii10193" unicode="&#x178;" horiz-adv-x="580" 
d="M30 36l54 5l17 16v367l-17 16l-54 5v36h220v-36l-48 -5l-17 -16v-378h210v378l-17 16l-48 5v36h220v-36l-54 -5l-17 -16v-367l17 -16l54 -5v-36h-204l-15 -16l-15 -154h-52l-15 154l-15 16h-204v36z" />
    <glyph glyph-name="afii10193" unicode="&#x45f;" horiz-adv-x="580" 
d="M30 36l54 5l17 16v367l-17 16l-54 5v36h220v-36l-48 -5l-17 -16v-378h210v378l-17 16l-48 5v36h220v-36l-54 -5l-17 -16v-367l17 -16l54 -5v-36h-204l-15 -16l-15 -154h-52l-15 154l-15 16h-204v36z" />
    <glyph glyph-name="nonbreakingspace" unicode="&#xa0;" horiz-adv-x="233" 
 />
    <glyph glyph-name="afii10062" unicode="&#xa1;" horiz-adv-x="604" 
d="M219 671v-41l-57 -5l-10 -11l196 -362l149 354l-9 14l-65 10v41h202v-41l-64 -12l-190 -434q-11 -25 -28 -58.5t-42 -64t-57 -52t-73 -21.5q-38 0 -66.5 9t-40.5 15v148h52l20 -102l14 -15q11 -7 25 -7q23 0 42 12t34 31t26.5 41.5t20.5 43.5l-250 457l-61 9v41h232z
M234 789q13 -10 32 -16.5t54 -6.5t54 6.5t32 16.5v69q6 5 15 8.5t22 3.5q23 0 38 -13t15 -35q0 -28 -18 -45.5t-45 -28t-57.5 -14.5t-55.5 -4t-55.5 4t-57.5 14.5t-45 28t-18 45.5q0 22 15 35t38 13q13 0 22 -3.5t15 -8.5v-69z" />
    <glyph glyph-name="afii10062" unicode="&#x40e;" horiz-adv-x="604" 
d="M219 671v-41l-57 -5l-10 -11l196 -362l149 354l-9 14l-65 10v41h202v-41l-64 -12l-190 -434q-11 -25 -28 -58.5t-42 -64t-57 -52t-73 -21.5q-38 0 -66.5 9t-40.5 15v148h52l20 -102l14 -15q11 -7 25 -7q23 0 42 12t34 31t26.5 41.5t20.5 43.5l-250 457l-61 9v41h232z
M234 789q13 -10 32 -16.5t54 -6.5t54 6.5t32 16.5v69q6 5 15 8.5t22 3.5q23 0 38 -13t15 -35q0 -28 -18 -45.5t-45 -28t-57.5 -14.5t-55.5 -4t-55.5 4t-57.5 14.5t-45 28t-18 45.5q0 22 15 35t38 13q13 0 22 -3.5t15 -8.5v-69z" />
    <glyph glyph-name="afii10110" unicode="&#xa2;" horiz-adv-x="496" 
d="M217 481v-36l-53 -5l-12 -16l120 -311l125 311l-8 16l-54 5v36h178v-36l-58 -9l-200 -486q-20 -48 -35.5 -73.5t-23.5 -35.5q-15 -20 -39.5 -39.5t-62.5 -19.5q-33 0 -50.5 17t-17.5 40q0 10 5 25.5t21 27.5l96 -38q30 33 48 72.5t33 77.5l-169 434l-61 7v36h218z
M204 615q14 -10 31.5 -15.5t44.5 -5.5t44.5 5.5t31.5 15.5v78q5 8 15 15.5t28 7.5q20 0 33.5 -13t13.5 -36q0 -25 -13 -45.5t-35.5 -35t-53 -22.5t-64.5 -8q-35 0 -65 8t-52.5 22.5t-35.5 35t-13 45.5q0 23 13.5 36t33.5 13q18 0 28 -7.5t15 -15.5v-78z" />
    <glyph glyph-name="afii10110" unicode="&#x45e;" horiz-adv-x="496" 
d="M217 481v-36l-53 -5l-12 -16l120 -311l125 311l-8 16l-54 5v36h178v-36l-58 -9l-200 -486q-20 -48 -35.5 -73.5t-23.5 -35.5q-15 -20 -39.5 -39.5t-62.5 -19.5q-33 0 -50.5 17t-17.5 40q0 10 5 25.5t21 27.5l96 -38q30 33 48 72.5t33 77.5l-169 434l-61 7v36h218z
M204 615q14 -10 31.5 -15.5t44.5 -5.5t44.5 5.5t31.5 15.5v78q5 8 15 15.5t28 7.5q20 0 33.5 -13t13.5 -36q0 -25 -13 -45.5t-35.5 -35t-53 -22.5t-64.5 -8q-35 0 -65 8t-52.5 22.5t-35.5 35t-13 45.5q0 23 13.5 36t33.5 13q18 0 28 -7.5t15 -15.5v-78z" />
    <glyph glyph-name="afii10057" unicode="&#xa3;" horiz-adv-x="444" 
d="M254 625l-67 5v41h253v-41l-62 -5l-17 -14v-355q0 -23 -2 -51t-8 -57t-18 -56t-32 -48q-18 -20 -39.5 -31t-42.5 -16.5t-40.5 -7t-33.5 -1.5q-18 0 -52 3.5t-81 20.5v167h56l24 -126l14 -13q16 -4 35 -4q43 0 69 20t39.5 51.5t17.5 69.5t4 75v359z" />
    <glyph glyph-name="afii10057" unicode="&#x408;" horiz-adv-x="444" 
d="M254 625l-67 5v41h253v-41l-62 -5l-17 -14v-355q0 -23 -2 -51t-8 -57t-18 -56t-32 -48q-18 -20 -39.5 -31t-42.5 -16.5t-40.5 -7t-33.5 -1.5q-18 0 -52 3.5t-81 20.5v167h56l24 -126l14 -13q16 -4 35 -4q43 0 69 20t39.5 51.5t17.5 69.5t4 75v359z" />
    <glyph glyph-name="currency" unicode="&#xa4;" horiz-adv-x="607" 
d="M302 586q-31 0 -58.5 -12t-48.5 -33t-33 -49t-12 -59q0 -32 12 -60t33 -49t49 -33t60 -12q31 0 59 12t49 33t33 49t12 60t-12 60t-33 48.5t-49 32.5t-61 12zM178 592q34 24 62 34t63 10t64 -10t63 -34l100 101l35 -36l-100 -100q23 -32 32.5 -61t9.5 -64t-9.5 -64
t-32.5 -61l100 -100l-35 -36l-100 101q-32 -23 -61 -33t-66 -10t-65 10t-60 33l-101 -101l-35 36l101 100q-23 32 -33 61t-10 64t10 64t33 61l-101 100l35 36z" />
    <glyph glyph-name="afii10050" unicode="&#xa5;" horiz-adv-x="520" 
d="M41 41l57 5l17 14v551l-17 14l-65 5v41h370l14 15l18 114h52v-205h-24l-60 30h-198v-565l17 -14l71 -5v-41h-252v41z" />
    <glyph glyph-name="afii10050" unicode="&#x490;" horiz-adv-x="520" 
d="M41 41l57 5l17 14v551l-17 14l-65 5v41h370l14 15l18 114h52v-205h-24l-60 30h-198v-565l17 -14l71 -5v-41h-252v41z" />
    <glyph glyph-name="brokenbar" unicode="&#xa6;" 
d="M281 199v-370h-62v370h62zM281 699v-370h-62v370h62z" />
    <glyph glyph-name="section" unicode="&#xa7;" 
d="M223 424q-46 -22 -66.5 -49.5t-20.5 -66.5q0 -24 6.5 -42.5t22.5 -35t44 -32.5t70 -36q47 32 66 59.5t19 62.5q0 45 -33 78t-108 62zM406 566h-45l-10 80q-31 17 -52.5 23.5t-44.5 6.5q-44 0 -72.5 -24.5t-28.5 -60.5q0 -34 28 -56q7 -6 13 -10t15.5 -9t26 -13l45.5 -22
q84 -40 120 -80.5t36 -94.5q0 -107 -122 -162q55 -26 80 -57t25 -76q0 -33 -13.5 -61t-38.5 -48t-59 -31t-76 -11q-34 0 -67 7t-77 24l-2 129h48l14 -90q27 -14 49.5 -20t46.5 -6q45 0 73.5 23t28.5 61q0 24 -13 43t-43 38q-7 4 -12.5 7.5t-15.5 8.5l-28 13.5l-50 23.5
q-122 57 -122 166q0 54 27.5 90t90.5 65q-56 29 -78.5 58.5t-22.5 74.5q0 67 50 104.5t140 37.5q35 0 65 -5t71 -18v-129z" />
    <glyph glyph-name="afii10023" unicode="&#xa8;" horiz-adv-x="576" 
d="M33 41l57 5l17 14v551l-17 14l-57 5v41h479v-146h-56l-14 85l-14 15h-231v-253h164l14 14l11 73h46v-220h-46l-11 73l-14 14h-164v-280h267l14 15l14 102h56v-163h-515v41zM334 816q0 22 15 37t37 15t37 -15t15 -37t-15 -37t-37 -15t-37 15t-15 37zM150 816q0 22 15 37
t37 15t37 -15t15 -37t-15 -37t-37 -15t-37 15t-15 37z" />
    <glyph glyph-name="afii10023" unicode="&#x401;" horiz-adv-x="576" 
d="M33 41l57 5l17 14v551l-17 14l-57 5v41h479v-146h-56l-14 85l-14 15h-231v-253h164l14 14l11 73h46v-220h-46l-11 73l-14 14h-164v-280h267l14 15l14 102h56v-163h-515v41zM334 816q0 22 15 37t37 15t37 -15t15 -37t-15 -37t-37 -15t-37 15t-15 37zM150 816q0 22 15 37
t37 15t37 -15t15 -37t-15 -37t-37 -15t-37 15t-15 37z" />
    <glyph glyph-name="copyright" unicode="&#xa9;" horiz-adv-x="900" 
d="M607 127q-45 -16 -83.5 -20.5t-61.5 -4.5q-54 0 -98.5 17t-76.5 48t-50 74.5t-18 96.5q0 52 18 95.5t50.5 75t78.5 48.5t102 17q17 0 55 -4t84 -19v-120h-43l-15 75q-25 16 -44 19t-30 3q-41 0 -72.5 -15.5t-53 -41.5t-32.5 -60.5t-11 -72.5q0 -46 14 -81.5t36.5 -59.5
t51 -36t57.5 -12q23 0 46 6t40 13l13 84h43v-125zM450 686q-72 0 -134.5 -28t-108 -75.5t-72 -110.5t-26.5 -132t26.5 -132t72 -110.5t108 -75.5t134.5 -28t134.5 28t108 75.5t72 110.5t26.5 132t-26.5 132t-72 110.5t-108 75.5t-134.5 28zM450 726q80 0 150.5 -31
t122.5 -83.5t82 -122.5t30 -149t-30 -149t-82 -122.5t-122.5 -83.5t-150.5 -31t-150.5 31t-122.5 83.5t-82 122.5t-30 149t30 149t82 122.5t122.5 83.5t150.5 31z" />
    <glyph glyph-name="afii10053" unicode="&#xaa;" horiz-adv-x="636" 
d="M592 23q-69 -24 -121.5 -29.5t-84.5 -5.5q-66 0 -128 20.5t-109.5 63t-76.5 108t-29 156.5q0 48 9 88t24 73t34 59t40 44q12 10 32.5 24.5t51 27.5t71.5 22t93 9q40 0 90 -7.5t104 -26.5v-154h-56l-15 91l-13 18q-23 11 -52.5 18.5t-64.5 7.5q-69 0 -115.5 -25.5
t-74 -63.5t-40 -83.5t-13.5 -85.5h306v-46h-306q0 -51 15.5 -107.5t46.5 -97.5q37 -48 84 -64t102 -16q32 0 55.5 3t46.5 10l16 16l22 111h56v-158z" />
    <glyph glyph-name="afii10053" unicode="&#x404;" horiz-adv-x="636" 
d="M592 23q-69 -24 -121.5 -29.5t-84.5 -5.5q-66 0 -128 20.5t-109.5 63t-76.5 108t-29 156.5q0 48 9 88t24 73t34 59t40 44q12 10 32.5 24.5t51 27.5t71.5 22t93 9q40 0 90 -7.5t104 -26.5v-154h-56l-15 91l-13 18q-23 11 -52.5 18.5t-64.5 7.5q-69 0 -115.5 -25.5
t-74 -63.5t-40 -83.5t-13.5 -85.5h306v-46h-306q0 -51 15.5 -107.5t46.5 -97.5q37 -48 84 -64t102 -16q32 0 55.5 3t46.5 10l16 16l22 111h56v-158z" />
    <glyph glyph-name="guillemotleft" unicode="&#xab;" horiz-adv-x="442" 
d="M396 347l-117 -107l117 -108v-65l-164 133v80l164 133v-66zM199 347l-117 -107l117 -108v-65l-164 133v80l164 133v-66z" />
    <glyph glyph-name="logicalnot" unicode="&#xac;" horiz-adv-x="833" 
d="M709 419v-245h-56v188h-529v57h585z" />
    <glyph glyph-name="uni00AD" unicode="&#xad;" horiz-adv-x="319" 
d="M272 274v-67h-225v67h225z" />
    <glyph glyph-name="registered" unicode="&#xae;" horiz-adv-x="900" 
d="M403 355q17 0 39 1.5t42 9.5t33.5 24.5t13.5 46.5q0 45 -32.5 65.5t-86.5 20.5h-16t-17 -1v-167h24zM457 560q51 0 82.5 -9.5t49.5 -25t24 -35t6 -38.5q0 -30 -12 -50.5t-30.5 -33t-39.5 -19.5t-39 -11q35 -5 54 -20.5t29.5 -35.5t16.5 -41.5t15.5 -39.5t27.5 -29.5
t52 -11.5h10v-36q-25 -5 -39 -6.5t-20 -1.5q-32 0 -53.5 10t-35 25.5t-21 34t-13.5 35.5q-8 22 -15.5 40t-19.5 30.5t-29.5 19t-44.5 6.5q-8 0 -16.5 -0.5t-16.5 -1.5v-150l63 -7v-37h-191v36l53 7v352l-58 10v34h211zM450 686q-72 0 -134.5 -28t-108 -75.5t-72 -110.5
t-26.5 -132t26.5 -132t72 -110.5t108 -75.5t134.5 -28t134.5 28t108 75.5t72 110.5t26.5 132t-26.5 132t-72 110.5t-108 75.5t-134.5 28zM450 726q80 0 150.5 -31t122.5 -83.5t82 -122.5t30 -149t-30 -149t-82 -122.5t-122.5 -83.5t-150.5 -31t-150.5 31t-122.5 83.5
t-82 122.5t-30 149t30 149t82 122.5t122.5 83.5t150.5 31z" />
    <glyph glyph-name="afii10056" unicode="&#xaf;" horiz-adv-x="322" 
d="M191 816q0 22 15 37t37 15t37 -15t15 -37t-15 -37t-37 -15t-37 15t-15 37zM27 816q0 22 15 37t37 15t37 -15t15 -37t-15 -37t-37 -15t-37 15t-15 37zM35 41l64 5l17 14v551l-17 14l-64 5v41h252v-41l-64 -5l-17 -14v-551l17 -14l64 -5v-41h-252v41z" />
    <glyph glyph-name="afii10056" unicode="&#x407;" horiz-adv-x="322" 
d="M191 816q0 22 15 37t37 15t37 -15t15 -37t-15 -37t-37 -15t-37 15t-15 37zM27 816q0 22 15 37t37 15t37 -15t15 -37t-15 -37t-37 -15t-37 15t-15 37zM35 41l64 5l17 14v551l-17 14l-64 5v41h252v-41l-64 -5l-17 -14v-551l17 -14l64 -5v-41h-252v41z" />
    <glyph glyph-name="degree" unicode="&#xb0;" horiz-adv-x="330" 
d="M164 670q-20 0 -37.5 -7.5t-31 -21t-21 -31.5t-7.5 -38q0 -42 28.5 -70.5t69.5 -28.5t69.5 28.5t28.5 70.5q0 21 -7.5 38.5t-21 31t-31.5 21t-39 7.5zM167 710q28 0 52.5 -11t43 -29.5t29.5 -44t11 -53.5q0 -29 -11 -54.5t-29.5 -44t-44 -29.5t-54.5 -11t-54 10.5
t-43.5 29.5t-29 44t-10.5 54q0 30 11 55t29.5 44t44 29.5t55.5 10.5z" />
    <glyph glyph-name="plusminus" unicode="&#xb1;" horiz-adv-x="833" 
d="M124 350v58h263v168h58v-168h264v-58h-264v-168h-58v168h-263zM709 77v-58h-585v58h585z" />
    <glyph glyph-name="afii10055" unicode="&#xb2;" horiz-adv-x="322" 
d="M35 41l64 5l17 14v551l-17 14l-64 5v41h252v-41l-64 -5l-17 -14v-551l17 -14l64 -5v-41h-252v41z" />
    <glyph glyph-name="afii10055" unicode="&#x406;" horiz-adv-x="322" 
d="M35 41l64 5l17 14v551l-17 14l-64 5v41h252v-41l-64 -5l-17 -14v-551l17 -14l64 -5v-41h-252v41z" />
    <glyph glyph-name="afii10103" unicode="&#xb3;" horiz-adv-x="280" 
d="M189 486v-429l17 -16l54 -5v-36h-226v36l54 5l17 16v362h-71v31l117 36h38zM95 650q0 24 17 41t41 17t41 -17t17 -41t-17 -41t-41 -17t-41 17t-17 41z" />
    <glyph glyph-name="afii10103" unicode="&#x456;" horiz-adv-x="280" 
d="M189 486v-429l17 -16l54 -5v-36h-226v36l54 5l17 16v362h-71v31l117 36h38zM95 650q0 24 17 41t41 17t41 -17t17 -41t-17 -41t-41 -17t-41 17t-17 41z" />
    <glyph glyph-name="afii10098" unicode="&#xb4;" horiz-adv-x="420" 
d="M30 36l54 5l17 16v367l-17 16l-54 5v36h297l15 16l11 94h51v-176h-20l-57 20h-142v-378l17 -16l70 -5v-36h-242v36z" />
    <glyph glyph-name="afii10098" unicode="&#x491;" horiz-adv-x="420" 
d="M30 36l54 5l17 16v367l-17 16l-54 5v36h297l15 16l11 94h51v-176h-20l-57 20h-142v-378l17 -16l70 -5v-36h-242v36z" />
    <glyph glyph-name="uni00B5" unicode="&#xb5;" horiz-adv-x="546" 
d="M167 432l-47 -220q-4 -20 -7 -37.5t-3 -37.5q0 -41 22.5 -63t55.5 -22q31 0 53 14t37.5 36t24.5 47.5t14 48.5l51 234h73l-57 -264q-5 -22 -7 -35.5t-2 -24.5q0 -20 11.5 -38t34.5 -18q27 0 41 17t23 38t15.5 38t17.5 17q2 0 7 -3t5 -16q0 -28 -9.5 -55.5t-26.5 -49
t-40 -35t-50 -13.5q-42 0 -61 27.5t-19 67.5v6h-2q-26 -59 -61 -80t-74 -21q-14 0 -31 3t-33 13.5t-28 30t-16 52.5h-2l-8 -44q-4 -22 -9.5 -58.5l-11 -71t-8.5 -60t-3 -24.5q-2 -10 -10.5 -22.5t-29.5 -12.5q-12 0 -19.5 5t-11 12t-5 14.5t-1.5 13.5q0 7 9 41.5l21.5 83
l26 103.5t23.5 102l55 261h72z" />
    <glyph glyph-name="paragraph" unicode="&#xb6;" horiz-adv-x="484" 
d="M458 635l-62 -10v-704h-49v709h-76v-349h-4q-126 0 -183.5 46t-57.5 148q0 103 56 149.5t180 46.5h196v-36z" />
    <glyph glyph-name="periodcentered" unicode="&#xb7;" horiz-adv-x="280" 
d="M76 335q0 26 19 45t45 19t45 -19t19 -45t-19 -45t-45 -19t-45 19t-19 45z" />
    <glyph glyph-name="periodcentered" unicode="&#x2219;" horiz-adv-x="280" 
d="M76 335q0 26 19 45t45 19t45 -19t19 -45t-19 -45t-45 -19t-45 19t-19 45z" />
    <glyph glyph-name="afii10071" unicode="&#xb8;" horiz-adv-x="490" 
d="M359 305v25q0 15 -4 34.5t-10 30.5q-2 4 -8 13t-16.5 17t-26 14.5t-37.5 6.5q-32 0 -55.5 -13t-39 -33t-23.5 -45t-11 -50h231zM448 51q-40 -28 -87.5 -44t-96.5 -16q-57 0 -99.5 19t-71 52t-42.5 78t-14 97q0 57 18.5 105.5t51.5 82.5q10 10 25 21.5t35 21.5t45.5 16
t56.5 6q29 0 60.5 -8.5t58 -30.5t43 -61t16.5 -99v-28h-324v-15q0 -37 10 -71t31 -63.5t52.5 -47.5t74.5 -18q25 0 64 10.5t93 47.5v-55zM290 639q0 22 15 37t37 15t37 -15t15 -37t-15 -37t-37 -15t-37 15t-15 37zM106 639q0 22 15 37t37 15t37 -15t15 -37t-15 -37t-37 -15
t-37 15t-15 37z" />
    <glyph glyph-name="afii10071" unicode="&#x451;" horiz-adv-x="490" 
d="M359 305v25q0 15 -4 34.5t-10 30.5q-2 4 -8 13t-16.5 17t-26 14.5t-37.5 6.5q-32 0 -55.5 -13t-39 -33t-23.5 -45t-11 -50h231zM448 51q-40 -28 -87.5 -44t-96.5 -16q-57 0 -99.5 19t-71 52t-42.5 78t-14 97q0 57 18.5 105.5t51.5 82.5q10 10 25 21.5t35 21.5t45.5 16
t56.5 6q29 0 60.5 -8.5t58 -30.5t43 -61t16.5 -99v-28h-324v-15q0 -37 10 -71t31 -63.5t52.5 -47.5t74.5 -18q25 0 64 10.5t93 47.5v-55zM290 639q0 22 15 37t37 15t37 -15t15 -37t-15 -37t-37 -15t-37 15t-15 37zM106 639q0 22 15 37t37 15t37 -15t15 -37t-15 -37t-37 -15
t-37 15t-15 37z" />
    <glyph glyph-name="afii61352" unicode="&#xb9;" horiz-adv-x="1052" 
d="M1006 310v-50h-274v50h274zM869 407q22 0 38 9t26.5 25t15.5 36.5t5 43.5t-5 43.5t-15.5 36.5t-26.5 25t-38 9t-38 -9t-26.5 -25t-15.5 -36.5t-5 -43.5t5 -43.5t15.5 -36.5t26.5 -25t38 -9zM869 671q33 0 60 -11t46.5 -31t30 -47.5t10.5 -60.5t-10.5 -60.5t-30 -47.5
t-46.5 -31t-60 -11t-60 11t-46.5 31t-30 47.5t-10.5 60.5t10.5 60.5t30 47.5t46.5 31t60 11zM29 41l61 8l18 19v543l-18 14l-64 5v41h188v-25l342 -512v470l-18 18l-60 8v41h210v-41l-60 -8l-18 -18v-604h-66l-382 568v-500l18 -19l60 -8v-41h-211v41z" />
    <glyph glyph-name="afii61352" unicode="&#x2116;" horiz-adv-x="1052" 
d="M1006 310v-50h-274v50h274zM869 407q22 0 38 9t26.5 25t15.5 36.5t5 43.5t-5 43.5t-15.5 36.5t-26.5 25t-38 9t-38 -9t-26.5 -25t-15.5 -36.5t-5 -43.5t5 -43.5t15.5 -36.5t26.5 -25t38 -9zM869 671q33 0 60 -11t46.5 -31t30 -47.5t10.5 -60.5t-10.5 -60.5t-30 -47.5
t-46.5 -31t-60 -11t-60 11t-46.5 31t-30 47.5t-10.5 60.5t10.5 60.5t30 47.5t46.5 31t60 11zM29 41l61 8l18 19v543l-18 14l-64 5v41h188v-25l342 -512v470l-18 18l-60 8v41h210v-41l-60 -8l-18 -18v-604h-66l-382 568v-500l18 -19l60 -8v-41h-211v41z" />
    <glyph glyph-name="afii10101" unicode="&#xba;" horiz-adv-x="472" 
d="M131 220q0 -9 5 -36.5t22.5 -57t50 -52.5t88.5 -23q26 0 50 5.5t43.5 12.5t33 14.5t18.5 10.5v-52q-64 -34 -107.5 -42.5t-71.5 -8.5q-50 0 -91.5 17.5t-71.5 49.5t-46.5 77.5t-16.5 101.5q0 74 24 122.5t60.5 77.5t81 41t86.5 12q46 0 75.5 -6.5t46.5 -18t24 -27
t7 -32.5q0 -26 -16 -37.5t-36 -11.5q-17 0 -26.5 5t-12.5 7v64q-17 11 -33 14t-30 3q-26 0 -57 -9t-59 -45q-20 -26 -30 -61t-11 -67h230v-48h-230z" />
    <glyph glyph-name="afii10101" unicode="&#x454;" horiz-adv-x="472" 
d="M131 220q0 -9 5 -36.5t22.5 -57t50 -52.5t88.5 -23q26 0 50 5.5t43.5 12.5t33 14.5t18.5 10.5v-52q-64 -34 -107.5 -42.5t-71.5 -8.5q-50 0 -91.5 17.5t-71.5 49.5t-46.5 77.5t-16.5 101.5q0 74 24 122.5t60.5 77.5t81 41t86.5 12q46 0 75.5 -6.5t46.5 -18t24 -27
t7 -32.5q0 -26 -16 -37.5t-36 -11.5q-17 0 -26.5 5t-12.5 7v64q-17 11 -33 14t-30 3q-26 0 -57 -9t-59 -45q-20 -26 -30 -61t-11 -67h230v-48h-230z" />
    <glyph glyph-name="guillemotright" unicode="&#xbb;" horiz-adv-x="442" 
d="M407 280v-80l-163 -133v65l117 108l-117 107v66zM209 280v-80l-163 -133v65l117 108l-117 107v66z" />
    <glyph glyph-name="afii10105" unicode="&#xbc;" horiz-adv-x="266" 
d="M37 419v31l117 36h38v-402q0 -64 -5 -108t-17 -75.5t-32 -52.5t-50 -39l-13 -6.5t-21.5 -9t-28.5 -8t-34 -3.5q-26 0 -40 8t-20.5 18t-7.5 19t-1 11q0 17 10 30t27 20l97 -59q14 7 24 15t16 24t9 43t3 73v435h-71zM88 650q0 24 17 41t41 17t41 -17t17 -41t-17 -41
t-41 -17t-41 17t-17 41z" />
    <glyph glyph-name="afii10105" unicode="&#x458;" horiz-adv-x="266" 
d="M37 419v31l117 36h38v-402q0 -64 -5 -108t-17 -75.5t-32 -52.5t-50 -39l-13 -6.5t-21.5 -9t-28.5 -8t-34 -3.5q-26 0 -40 8t-20.5 18t-7.5 19t-1 11q0 17 10 30t27 20l97 -59q14 7 24 15t16 24t9 43t3 73v435h-71zM88 650q0 24 17 41t41 17t41 -17t17 -41t-17 -41
t-41 -17t-41 17t-17 41z" />
    <glyph glyph-name="afii10054" unicode="&#xbd;" horiz-adv-x="556" 
d="M60 196h56l15 -115l13 -17q15 -8 40.5 -15.5t69.5 -7.5q33 0 61 6.5t48.5 21t32 38t11.5 57.5q0 38 -14.5 56.5t-33.5 31.5q-26 17 -57.5 31.5l-63.5 29t-62 30.5t-53.5 36t-37.5 46t-14 61q0 61 23.5 99.5t59 60.5t76 29.5t74.5 7.5q30 0 73.5 -5.5t94.5 -22.5v-155h-56
l-11 95l-15 17q-17 9 -38.5 15t-51.5 6q-27 0 -51.5 -8t-43 -23t-30 -37.5t-11.5 -51.5t12 -51t41 -39q24 -15 54 -28l61.5 -27t61.5 -30t53.5 -37t38 -47.5t14.5 -61.5q0 -63 -26 -102.5t-65 -62t-86 -31t-89 -8.5q-66 0 -109.5 12t-64.5 20v176z" />
    <glyph glyph-name="afii10054" unicode="&#x405;" horiz-adv-x="556" 
d="M60 196h56l15 -115l13 -17q15 -8 40.5 -15.5t69.5 -7.5q33 0 61 6.5t48.5 21t32 38t11.5 57.5q0 38 -14.5 56.5t-33.5 31.5q-26 17 -57.5 31.5l-63.5 29t-62 30.5t-53.5 36t-37.5 46t-14 61q0 61 23.5 99.5t59 60.5t76 29.5t74.5 7.5q30 0 73.5 -5.5t94.5 -22.5v-155h-56
l-11 95l-15 17q-17 9 -38.5 15t-51.5 6q-27 0 -51.5 -8t-43 -23t-30 -37.5t-11.5 -51.5t12 -51t41 -39q24 -15 54 -28l61.5 -27t61.5 -30t53.5 -37t38 -47.5t14.5 -61.5q0 -63 -26 -102.5t-65 -62t-86 -31t-89 -8.5q-66 0 -109.5 12t-64.5 20v176z" />
    <glyph glyph-name="afii10102" unicode="&#xbe;" horiz-adv-x="400" 
d="M345 356h-48l-9 71q-24 13 -43.5 16t-29.5 3q-15 0 -30 -3t-27 -10.5t-19.5 -21t-7.5 -34.5q0 -32 23.5 -53.5t66.5 -40.5q34 -15 60 -29t43.5 -29.5t26.5 -35.5t9 -48q0 -47 -19 -76t-48 -45.5t-62.5 -22.5t-63.5 -6q-42 0 -72 6.5t-53 14.5v130h48l12 -85
q13 -7 34 -14.5t48 -7.5q51 0 74.5 22.5t23.5 57.5q0 23 -11 39t-28 28t-37 20.5t-37 16.5q-49 23 -69 38.5t-26 23.5q-14 17 -18.5 34.5t-4.5 34.5q0 46 20.5 74t49 42.5t58.5 19t49 4.5q42 0 69.5 -6.5t47.5 -14.5v-113z" />
    <glyph glyph-name="afii10102" unicode="&#x455;" horiz-adv-x="400" 
d="M345 356h-48l-9 71q-24 13 -43.5 16t-29.5 3q-15 0 -30 -3t-27 -10.5t-19.5 -21t-7.5 -34.5q0 -32 23.5 -53.5t66.5 -40.5q34 -15 60 -29t43.5 -29.5t26.5 -35.5t9 -48q0 -47 -19 -76t-48 -45.5t-62.5 -22.5t-63.5 -6q-42 0 -72 6.5t-53 14.5v130h48l12 -85
q13 -7 34 -14.5t48 -7.5q51 0 74.5 22.5t23.5 57.5q0 23 -11 39t-28 28t-37 20.5t-37 16.5q-49 23 -69 38.5t-26 23.5q-14 17 -18.5 34.5t-4.5 34.5q0 46 20.5 74t49 42.5t58.5 19t49 4.5q42 0 69.5 -6.5t47.5 -14.5v-113z" />
    <glyph glyph-name="afii10104" unicode="&#xbf;" horiz-adv-x="280" 
d="M170 639q0 22 15 37t37 15t37 -15t15 -37t-15 -37t-37 -15t-37 15t-15 37zM16 639q0 22 15 37t37 15t37 -15t15 -37t-15 -37t-37 -15t-37 15t-15 37zM189 486v-429l17 -16l54 -5v-36h-226v36l54 5l17 16v362h-71v31l117 36h38z" />
    <glyph glyph-name="afii10104" unicode="&#x457;" horiz-adv-x="280" 
d="M170 639q0 22 15 37t37 15t37 -15t15 -37t-15 -37t-37 -15t-37 15t-15 37zM16 639q0 22 15 37t37 15t37 -15t15 -37t-15 -37t-37 -15t-37 15t-15 37zM189 486v-429l17 -16l54 -5v-36h-226v36l54 5l17 16v362h-71v31l117 36h38z" />
    <glyph glyph-name="afii10017" unicode="&#xc0;" horiz-adv-x="640" 
d="M201 297h202l-103 277zM350 679l240 -626l60 -12v-41h-227v41l62 5l7 14l-72 191h-236l-71 -191l10 -14l65 -5v-41h-196v41l58 12l234 626h66z" />
    <glyph glyph-name="afii10017" unicode="&#x410;" horiz-adv-x="640" 
d="M201 297h202l-103 277zM350 679l240 -626l60 -12v-41h-227v41l62 5l7 14l-72 191h-236l-71 -191l10 -14l65 -5v-41h-196v41l58 12l234 626h66z" />
    <glyph glyph-name="afii10018" unicode="&#xc1;" horiz-adv-x="600" 
d="M197 50q20 -2 37.5 -3t35.5 -1q16 0 35.5 1t39.5 5t39 12t34 22q26 24 33.5 54t7.5 54q0 23 -6.5 52.5t-29.5 54.5q-26 27 -60 34t-66 7q-25 0 -51 -2t-49 -6v-284zM507 671v-146h-56l-14 85l-14 15h-226v-243q43 5 74 5.5t39 0.5q44 0 88.5 -9t80 -30.5t58 -58.5
t22.5 -94q0 -32 -12 -70.5t-53 -71.5q-22 -18 -48 -28.5t-52.5 -16.5t-51.5 -7.5t-45 -1.5h-264v41l57 5l17 14v551l-17 14l-57 5v41h474z" />
    <glyph glyph-name="afii10018" unicode="&#x411;" horiz-adv-x="600" 
d="M197 50q20 -2 37.5 -3t35.5 -1q16 0 35.5 1t39.5 5t39 12t34 22q26 24 33.5 54t7.5 54q0 23 -6.5 52.5t-29.5 54.5q-26 27 -60 34t-66 7q-25 0 -51 -2t-49 -6v-284zM507 671v-146h-56l-14 85l-14 15h-226v-243q43 5 74 5.5t39 0.5q44 0 88.5 -9t80 -30.5t58 -58.5
t22.5 -94q0 -32 -12 -70.5t-53 -71.5q-22 -18 -48 -28.5t-52.5 -16.5t-51.5 -7.5t-45 -1.5h-264v41l57 5l17 14v551l-17 14l-57 5v41h474z" />
    <glyph glyph-name="afii10019" unicode="&#xc2;" horiz-adv-x="604" 
d="M197 50q20 -2 37.5 -3t35.5 -1q25 0 58 3t62 17t49 43t20 81q0 20 -6 47t-31 50q-14 13 -32 20t-36 10.5t-34 4.5t-26 1q-11 0 -24.5 -0.5t-27 -1.5t-25.5 -2t-20 -2v-267zM197 367q10 -1 19 -1h18q53 0 88.5 11.5t57 30.5t30.5 44t9 51q0 39 -15.5 63t-39.5 37.5
t-52 18.5t-53 5q-21 0 -39.5 -1.5t-22.5 -1.5v-257zM288 671q37 0 80.5 -6.5t75.5 -23.5q42 -23 57.5 -56t15.5 -72q0 -29 -9 -57.5t-37 -51.5q-20 -17 -48.5 -29t-50.5 -17v-2q24 -1 59.5 -8t63.5 -24q35 -23 49.5 -56.5t14.5 -75.5q0 -32 -12 -69.5t-53 -69.5
q-22 -18 -48.5 -28.5t-53 -16t-51.5 -7t-44 -1.5h-264v41l57 5l17 14v551l-17 14l-57 5v41h255z" />
    <glyph glyph-name="afii10019" unicode="&#x412;" horiz-adv-x="604" 
d="M197 50q20 -2 37.5 -3t35.5 -1q25 0 58 3t62 17t49 43t20 81q0 20 -6 47t-31 50q-14 13 -32 20t-36 10.5t-34 4.5t-26 1q-11 0 -24.5 -0.5t-27 -1.5t-25.5 -2t-20 -2v-267zM197 367q10 -1 19 -1h18q53 0 88.5 11.5t57 30.5t30.5 44t9 51q0 39 -15.5 63t-39.5 37.5
t-52 18.5t-53 5q-21 0 -39.5 -1.5t-22.5 -1.5v-257zM288 671q37 0 80.5 -6.5t75.5 -23.5q42 -23 57.5 -56t15.5 -72q0 -29 -9 -57.5t-37 -51.5q-20 -17 -48.5 -29t-50.5 -17v-2q24 -1 59.5 -8t63.5 -24q35 -23 49.5 -56.5t14.5 -75.5q0 -32 -12 -69.5t-53 -69.5
q-22 -18 -48.5 -28.5t-53 -16t-51.5 -7t-44 -1.5h-264v41l57 5l17 14v551l-17 14l-57 5v41h255z" />
    <glyph glyph-name="afii10020" unicode="&#xc3;" horiz-adv-x="546" 
d="M41 41l57 5l17 14v551l-17 14l-65 5v41h480v-182h-52l-18 120l-14 16h-224v-565l17 -14l71 -5v-41h-252v41z" />
    <glyph glyph-name="afii10020" unicode="&#x413;" horiz-adv-x="546" 
d="M41 41l57 5l17 14v551l-17 14l-65 5v41h480v-182h-52l-18 120l-14 16h-224v-565l17 -14l71 -5v-41h-252v41z" />
    <glyph glyph-name="afii10021" unicode="&#xc4;" horiz-adv-x="660" 
d="M461 46v579h-146q-7 -75 -18 -149t-31.5 -146.5t-54 -143.5t-84.5 -140h334zM625 671v-41l-57 -5l-17 -14v-555l12 -10h74v-216h-56l-20 155l-14 15h-462l-14 -15l-20 -155h-56v216h62q48 58 82 121.5t59 144.5q11 35 20 73t16 77t12.5 77t8.5 72l-16 19h-86v41h472z" />
    <glyph glyph-name="afii10021" unicode="&#x414;" horiz-adv-x="660" 
d="M461 46v579h-146q-7 -75 -18 -149t-31.5 -146.5t-54 -143.5t-84.5 -140h334zM625 671v-41l-57 -5l-17 -14v-555l12 -10h74v-216h-56l-20 155l-14 15h-462l-14 -15l-20 -155h-56v216h62q48 58 82 121.5t59 144.5q11 35 20 73t16 77t12.5 77t8.5 72l-16 19h-86v41h472z" />
    <glyph glyph-name="afii10022" unicode="&#xc5;" horiz-adv-x="576" 
d="M33 41l57 5l17 14v551l-17 14l-57 5v41h479v-146h-56l-14 85l-14 15h-231v-253h164l14 14l11 73h46v-220h-46l-11 73l-14 14h-164v-280h267l14 15l14 102h56v-163h-515v41z" />
    <glyph glyph-name="afii10022" unicode="&#x415;" horiz-adv-x="576" 
d="M33 41l57 5l17 14v551l-17 14l-57 5v41h479v-146h-56l-14 85l-14 15h-231v-253h164l14 14l11 73h46v-220h-46l-11 73l-14 14h-164v-280h267l14 15l14 102h56v-163h-515v41z" />
    <glyph glyph-name="afii10024" unicode="&#xc6;" horiz-adv-x="914" 
d="M576 671v-41l-59 -5l-17 -14v-251h49q27 0 58 19.5t52 73.5l38 99q10 26 22 51t30 44q21 22 41 27t32 5q30 0 49 -17t19 -44q0 -21 -11 -34t-23 -18l-72 42q-14 -17 -20.5 -31.5t-14.5 -34.5l-36 -96q-20 -52 -46.5 -72.5t-48.5 -27.5v-2q38 -7 74.5 -38t65.5 -94
l70 -149l27 -17l69 -5v-41h-182v30l-80 190q-18 43 -47 70.5t-77 27.5h-38v-258l17 -14l59 -5v-41h-238v41l59 5l17 14v258h-38q-48 0 -77 -27.5t-47 -70.5l-80 -190v-30h-182v41l69 5l27 17l70 149q29 63 65.5 94t74.5 38v2q-22 7 -48.5 27.5t-46.5 72.5l-36 96
q-8 20 -14.5 34.5t-20.5 31.5l-72 -42q-12 5 -23 18t-11 34q0 27 19 44t49 17q12 0 32 -5t41 -27q18 -19 30 -44t22 -51l38 -99q21 -54 52 -73.5t58 -19.5h49v251l-17 14l-59 5v41h238z" />
    <glyph glyph-name="afii10024" unicode="&#x416;" horiz-adv-x="914" 
d="M576 671v-41l-59 -5l-17 -14v-251h49q27 0 58 19.5t52 73.5l38 99q10 26 22 51t30 44q21 22 41 27t32 5q30 0 49 -17t19 -44q0 -21 -11 -34t-23 -18l-72 42q-14 -17 -20.5 -31.5t-14.5 -34.5l-36 -96q-20 -52 -46.5 -72.5t-48.5 -27.5v-2q38 -7 74.5 -38t65.5 -94
l70 -149l27 -17l69 -5v-41h-182v30l-80 190q-18 43 -47 70.5t-77 27.5h-38v-258l17 -14l59 -5v-41h-238v41l59 5l17 14v258h-38q-48 0 -77 -27.5t-47 -70.5l-80 -190v-30h-182v41l69 5l27 17l70 149q29 63 65.5 94t74.5 38v2q-22 7 -48.5 27.5t-46.5 72.5l-36 96
q-8 20 -14.5 34.5t-20.5 31.5l-72 -42q-12 5 -23 18t-11 34q0 27 19 44t49 17q12 0 32 -5t41 -27q18 -19 30 -44t22 -51l38 -99q21 -54 52 -73.5t58 -19.5h49v251l-17 14l-59 5v41h238z" />
    <glyph glyph-name="afii10025" unicode="&#xc7;" horiz-adv-x="560" 
d="M60 655q63 20 109.5 24t72.5 4q41 0 83.5 -6t77 -24t56.5 -51t22 -87q0 -24 -9 -48t-27 -45t-44.5 -37t-60.5 -25v-2q38 -2 70 -15t55.5 -34t36.5 -50t13 -62q0 -48 -18 -87.5t-60 -68.5q-21 -15 -47.5 -25t-54 -16.5t-54 -9t-48.5 -2.5q-9 0 -27.5 1t-44 4t-56.5 9.5
t-65 17.5v176h56l15 -115l13 -17q20 -12 44 -19t60 -7q40 0 74 10t59 28.5t39.5 45.5t14.5 62q0 49 -18.5 77t-44.5 42.5t-54.5 18t-49.5 3.5q-23 0 -43 -2.5t-43 -9.5v60q5 0 21.5 -1t33.5 -1q30 0 61 5.5t58 27.5q26 21 36.5 46.5t10.5 54.5q0 36 -12.5 60.5t-32.5 39.5
t-45 21.5t-50 6.5q-26 0 -50.5 -5t-50.5 -16l-15 -17l-11 -95h-56v155z" />
    <glyph glyph-name="afii10025" unicode="&#x417;" horiz-adv-x="560" 
d="M60 655q63 20 109.5 24t72.5 4q41 0 83.5 -6t77 -24t56.5 -51t22 -87q0 -24 -9 -48t-27 -45t-44.5 -37t-60.5 -25v-2q38 -2 70 -15t55.5 -34t36.5 -50t13 -62q0 -48 -18 -87.5t-60 -68.5q-21 -15 -47.5 -25t-54 -16.5t-54 -9t-48.5 -2.5q-9 0 -27.5 1t-44 4t-56.5 9.5
t-65 17.5v176h56l15 -115l13 -17q20 -12 44 -19t60 -7q40 0 74 10t59 28.5t39.5 45.5t14.5 62q0 49 -18.5 77t-44.5 42.5t-54.5 18t-49.5 3.5q-23 0 -43 -2.5t-43 -9.5v60q5 0 21.5 -1t33.5 -1q30 0 61 5.5t58 27.5q26 21 36.5 46.5t10.5 54.5q0 36 -12.5 60.5t-32.5 39.5
t-45 21.5t-50 6.5q-26 0 -50.5 -5t-50.5 -16l-15 -17l-11 -95h-56v155z" />
    <glyph glyph-name="afii10026" unicode="&#xc8;" horiz-adv-x="750" 
d="M276 671v-41l-62 -5l-17 -14v-453l356 433v20l-17 14l-62 5v41h243v-41l-57 -5l-17 -14v-551l17 -14l57 -5v-41h-243v41l62 5l17 14v463l-356 -433v-30l17 -14l62 -5v-41h-243v41l57 5l17 14v551l-17 14l-57 5v41h243z" />
    <glyph glyph-name="afii10026" unicode="&#x418;" horiz-adv-x="750" 
d="M276 671v-41l-62 -5l-17 -14v-453l356 433v20l-17 14l-62 5v41h243v-41l-57 -5l-17 -14v-551l17 -14l57 -5v-41h-243v41l62 5l17 14v463l-356 -433v-30l17 -14l62 -5v-41h-243v41l57 5l17 14v551l-17 14l-57 5v41h243z" />
    <glyph glyph-name="afii10027" unicode="&#xc9;" horiz-adv-x="750" 
d="M289 789q13 -10 32 -16.5t54 -6.5t54 6.5t32 16.5v69q6 5 15 8.5t22 3.5q23 0 38 -13t15 -35q0 -28 -18 -45.5t-45 -28t-57.5 -14.5t-55.5 -4t-55.5 4t-57.5 14.5t-45 28t-18 45.5q0 22 15 35t38 13q13 0 22 -3.5t15 -8.5v-69zM276 671v-41l-62 -5l-17 -14v-453l356 433
v20l-17 14l-62 5v41h243v-41l-57 -5l-17 -14v-551l17 -14l57 -5v-41h-243v41l62 5l17 14v463l-356 -433v-30l17 -14l62 -5v-41h-243v41l57 5l17 14v551l-17 14l-57 5v41h243z" />
    <glyph glyph-name="afii10027" unicode="&#x419;" horiz-adv-x="750" 
d="M289 789q13 -10 32 -16.5t54 -6.5t54 6.5t32 16.5v69q6 5 15 8.5t22 3.5q23 0 38 -13t15 -35q0 -28 -18 -45.5t-45 -28t-57.5 -14.5t-55.5 -4t-55.5 4t-57.5 14.5t-45 28t-18 45.5q0 22 15 35t38 13q13 0 22 -3.5t15 -8.5v-69zM276 671v-41l-62 -5l-17 -14v-453l356 433
v20l-17 14l-62 5v41h243v-41l-57 -5l-17 -14v-551l17 -14l57 -5v-41h-243v41l62 5l17 14v463l-356 -433v-30l17 -14l62 -5v-41h-243v41l57 5l17 14v551l-17 14l-57 5v41h243z" />
    <glyph glyph-name="afii10028" unicode="&#xca;" horiz-adv-x="644" 
d="M276 671v-41l-62 -5l-17 -14v-245h73q11 0 28.5 3t34.5 17q20 15 33 37t18 34l43 96q10 22 22 44.5t27 40.5t34 29.5t45 11.5q30 0 49.5 -15.5t19.5 -45.5q0 -19 -9.5 -33t-24.5 -21l-72 44q-16 -20 -22 -34l-14 -32l-43 -96q-21 -48 -46.5 -68t-45.5 -28v-2
q32 -6 56.5 -21.5t39.5 -32.5q9 -11 22.5 -32t33.5 -67l59 -132l27 -17l69 -5v-41h-190v30l-67 175q-20 53 -50.5 86t-87.5 33h-62v-264l17 -14l62 -5v-41h-243v41l57 5l17 14v551l-17 14l-57 5v41h243z" />
    <glyph glyph-name="afii10028" unicode="&#x41a;" horiz-adv-x="644" 
d="M276 671v-41l-62 -5l-17 -14v-245h73q11 0 28.5 3t34.5 17q20 15 33 37t18 34l43 96q10 22 22 44.5t27 40.5t34 29.5t45 11.5q30 0 49.5 -15.5t19.5 -45.5q0 -19 -9.5 -33t-24.5 -21l-72 44q-16 -20 -22 -34l-14 -32l-43 -96q-21 -48 -46.5 -68t-45.5 -28v-2
q32 -6 56.5 -21.5t39.5 -32.5q9 -11 22.5 -32t33.5 -67l59 -132l27 -17l69 -5v-41h-190v30l-67 175q-20 53 -50.5 86t-87.5 33h-62v-264l17 -14l62 -5v-41h-243v41l57 5l17 14v551l-17 14l-57 5v41h243z" />
    <glyph glyph-name="afii10029" unicode="&#xcb;" horiz-adv-x="636" 
d="M603 671v-41l-57 -5l-17 -14v-551l17 -14l57 -5v-41h-243v41l62 5l17 14v565h-158q-2 -38 -6 -81t-8.5 -85.5t-9.5 -81t-10 -67.5q-9 -53 -26 -110t-41.5 -104t-58 -77.5t-75.5 -30.5q-9 0 -20.5 2t-22 8.5t-17.5 18.5t-7 32q0 23 12 37.5t30 19.5l74 -44q16 23 30 49
t26 58.5t22 73.5t19 94q5 32 14.5 103.5t14.5 166.5l-15 13l-87 10v41h484z" />
    <glyph glyph-name="afii10029" unicode="&#x41b;" horiz-adv-x="636" 
d="M603 671v-41l-57 -5l-17 -14v-551l17 -14l57 -5v-41h-243v41l62 5l17 14v565h-158q-2 -38 -6 -81t-8.5 -85.5t-9.5 -81t-10 -67.5q-9 -53 -26 -110t-41.5 -104t-58 -77.5t-75.5 -30.5q-9 0 -20.5 2t-22 8.5t-17.5 18.5t-7 32q0 23 12 37.5t30 19.5l74 -44q16 23 30 49
t26 58.5t22 73.5t19 94q5 32 14.5 103.5t14.5 166.5l-15 13l-87 10v41h484z" />
    <glyph glyph-name="afii10030" unicode="&#xcc;" horiz-adv-x="868" 
d="M31 41l60 8l18 19v543l-13 14l-66 5v41h212v-27l188 -502l190 498v31h215v-41l-62 -5l-12 -14v-551l12 -14l62 -5v-41h-240v41l66 5l10 14v564l-237 -624h-43l-228 614v-546l18 -19l61 -8v-41h-211v41z" />
    <glyph glyph-name="afii10030" unicode="&#x41c;" horiz-adv-x="868" 
d="M31 41l60 8l18 19v543l-13 14l-66 5v41h212v-27l188 -502l190 498v31h215v-41l-62 -5l-12 -14v-551l12 -14l62 -5v-41h-240v41l66 5l10 14v564l-237 -624h-43l-228 614v-546l18 -19l61 -8v-41h-211v41z" />
    <glyph glyph-name="afii10031" unicode="&#xcd;" horiz-adv-x="738" 
d="M276 671v-41l-62 -5l-17 -14v-236h344v236l-17 14l-62 5v41h243v-41l-57 -5l-17 -14v-551l17 -14l57 -5v-41h-243v41l62 5l17 14v269h-344v-269l17 -14l62 -5v-41h-243v41l57 5l17 14v551l-17 14l-57 5v41h243z" />
    <glyph glyph-name="afii10031" unicode="&#x41d;" horiz-adv-x="738" 
d="M276 671v-41l-62 -5l-17 -14v-236h344v236l-17 14l-62 5v41h243v-41l-57 -5l-17 -14v-551l17 -14l57 -5v-41h-243v41l62 5l17 14v269h-344v-269l17 -14l62 -5v-41h-243v41l57 5l17 14v551l-17 14l-57 5v41h243z" />
    <glyph glyph-name="afii10032" unicode="&#xce;" horiz-adv-x="732" 
d="M364 634q-57 0 -98 -24t-67.5 -65t-38.5 -95t-12 -113q0 -15 1.5 -39.5t7 -53.5t16.5 -60.5t31 -59.5q18 -27 39 -43.5t42.5 -26.5t42.5 -13.5t39 -3.5q13 0 32.5 2.5t40.5 11t43 24.5t42 43q21 28 32.5 59.5t17.5 61.5t7.5 55t1.5 40q0 78 -20 139.5t-55 99.5
q-20 21 -41 33t-40.5 18.5t-36.5 8t-27 1.5zM369 687q75 0 134.5 -27.5t100.5 -74.5t63 -111.5t22 -137.5q0 -81 -25 -145t-65 -108q-17 -18 -39 -35.5t-51 -32t-64.5 -23t-77.5 -8.5q-78 0 -135 27.5t-95 67.5q-15 15 -31.5 38.5t-30.5 55t-23 72.5t-9 91q0 52 10 94t26 76
t36 59.5t40 43.5q15 13 35.5 27t47 25t59.5 18.5t72 7.5z" />
    <glyph glyph-name="afii10032" unicode="&#x41e;" horiz-adv-x="732" 
d="M364 634q-57 0 -98 -24t-67.5 -65t-38.5 -95t-12 -113q0 -15 1.5 -39.5t7 -53.5t16.5 -60.5t31 -59.5q18 -27 39 -43.5t42.5 -26.5t42.5 -13.5t39 -3.5q13 0 32.5 2.5t40.5 11t43 24.5t42 43q21 28 32.5 59.5t17.5 61.5t7.5 55t1.5 40q0 78 -20 139.5t-55 99.5
q-20 21 -41 33t-40.5 18.5t-36.5 8t-27 1.5zM369 687q75 0 134.5 -27.5t100.5 -74.5t63 -111.5t22 -137.5q0 -81 -25 -145t-65 -108q-17 -18 -39 -35.5t-51 -32t-64.5 -23t-77.5 -8.5q-78 0 -135 27.5t-95 67.5q-15 15 -31.5 38.5t-30.5 55t-23 72.5t-9 91q0 52 10 94t26 76
t36 59.5t40 43.5q15 13 35.5 27t47 25t59.5 18.5t72 7.5z" />
    <glyph glyph-name="afii10033" unicode="&#xcf;" horiz-adv-x="718" 
d="M685 671v-41l-57 -5l-17 -14v-551l17 -14l57 -5v-41h-243v41l62 5l17 14v565h-324v-565l17 -14l62 -5v-41h-243v41l57 5l17 14v551l-17 14l-57 5v41h652z" />
    <glyph glyph-name="afii10033" unicode="&#x41f;" horiz-adv-x="718" 
d="M685 671v-41l-57 -5l-17 -14v-551l17 -14l57 -5v-41h-243v41l62 5l17 14v565h-324v-565l17 -14l62 -5v-41h-243v41l57 5l17 14v551l-17 14l-57 5v41h652z" />
    <glyph glyph-name="afii10034" unicode="&#xd0;" horiz-adv-x="566" 
d="M205 305q25 -5 43 -5.5t24 -0.5q36 0 66.5 11t53 32.5t35 53.5t12.5 73q0 32 -8.5 61.5t-32.5 52.5q-15 14 -32.5 22.5t-35.5 13t-36 5.5t-34 1q-17 0 -31.5 -0.5t-23.5 -1.5v-318zM41 41l57 5l17 14v551l-17 14l-65 5v41h228q85 0 139 -14.5t85 -40.5t42.5 -61.5
t11.5 -77.5q0 -64 -21.5 -107t-57 -69t-82 -37t-97.5 -11q-18 0 -42.5 1.5t-33.5 2.5v-197l17 -14l71 -5v-41h-252v41z" />
    <glyph glyph-name="afii10034" unicode="&#x420;" horiz-adv-x="566" 
d="M205 305q25 -5 43 -5.5t24 -0.5q36 0 66.5 11t53 32.5t35 53.5t12.5 73q0 32 -8.5 61.5t-32.5 52.5q-15 14 -32.5 22.5t-35.5 13t-36 5.5t-34 1q-17 0 -31.5 -0.5t-23.5 -1.5v-318zM41 41l57 5l17 14v551l-17 14l-65 5v41h228q85 0 139 -14.5t85 -40.5t42.5 -61.5
t11.5 -77.5q0 -64 -21.5 -107t-57 -69t-82 -37t-97.5 -11q-18 0 -42.5 1.5t-33.5 2.5v-197l17 -14l71 -5v-41h-252v41z" />
    <glyph glyph-name="afii10035" unicode="&#xd1;" horiz-adv-x="632" 
d="M588 23q-47 -17 -97.5 -26t-100.5 -9q-30 0 -63 4.5t-66 16t-65 31.5t-61 52q-12 12 -27.5 33.5t-30 52t-24.5 71t-10 91.5q0 46 9 85.5t24 71.5t34.5 58t41.5 45q18 16 41.5 31t54.5 26.5t68.5 18.5t83.5 7q64 0 111.5 -11.5t76.5 -22.5v-154h-56l-15 91l-13 18
q-23 11 -49.5 18.5t-61.5 7.5q-71 0 -118 -26t-75.5 -67.5t-40 -93.5t-11.5 -104q0 -71 18 -123.5t45 -86.5q12 -15 29.5 -30.5t41 -28.5t54.5 -21t70 -8q27 0 48.5 4t39.5 9l16 16l22 111h56v-158z" />
    <glyph glyph-name="afii10035" unicode="&#x421;" horiz-adv-x="632" 
d="M588 23q-47 -17 -97.5 -26t-100.5 -9q-30 0 -63 4.5t-66 16t-65 31.5t-61 52q-12 12 -27.5 33.5t-30 52t-24.5 71t-10 91.5q0 46 9 85.5t24 71.5t34.5 58t41.5 45q18 16 41.5 31t54.5 26.5t68.5 18.5t83.5 7q64 0 111.5 -11.5t76.5 -22.5v-154h-56l-15 91l-13 18
q-23 11 -49.5 18.5t-61.5 7.5q-71 0 -118 -26t-75.5 -67.5t-40 -93.5t-11.5 -104q0 -71 18 -123.5t45 -86.5q12 -15 29.5 -30.5t41 -28.5t54.5 -21t70 -8q27 0 48.5 4t39.5 9l16 16l22 111h56v-158z" />
    <glyph glyph-name="afii10036" unicode="&#xd2;" horiz-adv-x="594" 
d="M578 671v-156h-55l-14 95l-14 15h-153v-565l17 -14l67 -5v-41h-258v41l67 5l17 14v565h-153l-14 -15l-14 -95h-55v156h562z" />
    <glyph glyph-name="afii10036" unicode="&#x422;" horiz-adv-x="594" 
d="M578 671v-156h-55l-14 95l-14 15h-153v-565l17 -14l67 -5v-41h-258v41l67 5l17 14v565h-153l-14 -15l-14 -95h-55v156h562z" />
    <glyph glyph-name="afii10037" unicode="&#xd3;" horiz-adv-x="604" 
d="M219 671v-41l-57 -5l-10 -11l196 -362l149 354l-9 14l-65 10v41h202v-41l-64 -12l-190 -434q-11 -25 -28 -58.5t-42 -64t-57 -52t-73 -21.5q-38 0 -66.5 9t-40.5 15v148h52l20 -102l14 -15q11 -7 25 -7q23 0 42 12t34 31t26.5 41.5t20.5 43.5l-250 457l-61 9v41h232z" />
    <glyph glyph-name="afii10037" unicode="&#x423;" horiz-adv-x="604" 
d="M219 671v-41l-57 -5l-10 -11l196 -362l149 354l-9 14l-65 10v41h202v-41l-64 -12l-190 -434q-11 -25 -28 -58.5t-42 -64t-57 -52t-73 -21.5q-38 0 -66.5 9t-40.5 15v148h52l20 -102l14 -15q11 -7 25 -7q23 0 42 12t34 31t26.5 41.5t20.5 43.5l-250 457l-61 9v41h232z" />
    <glyph glyph-name="afii10038" unicode="&#xd4;" horiz-adv-x="752" 
d="M421 164h20q56 0 92.5 17t57.5 44.5t29.5 61.5t8.5 67q0 45 -14.5 85t-43.5 66q-14 12 -45 27t-85 15h-20v-383zM331 547h-20q-59 0 -95.5 -17.5t-57 -45t-28 -62t-7.5 -68.5q0 -33 8.5 -67t29.5 -61.5t57.5 -44.5t92.5 -17h20v383zM502 700v-41l-64 -5l-17 -14v-47h22
q17 0 40 -1.5t48.5 -7t51.5 -16t50 -28.5q10 -8 25 -22.5t28.5 -37t23 -54t9.5 -72.5q0 -60 -21 -103t-59 -73q-10 -8 -26.5 -18.5t-40.5 -19.5t-55.5 -15.5t-71.5 -6.5h-24v-58l17 -14l64 -5v-41h-252v41l64 5l17 14v58h-24q-40 0 -71.5 6.5t-55.5 15.5t-40.5 19.5
t-26.5 18.5q-38 30 -59 73t-21 103q0 41 9.5 72.5t23 54t28 37t25.5 22.5q24 18 50 28.5t51.5 16t48.5 7t40 1.5h22v47l-17 14l-64 5v41h252z" />
    <glyph glyph-name="afii10038" unicode="&#x424;" horiz-adv-x="752" 
d="M421 164h20q56 0 92.5 17t57.5 44.5t29.5 61.5t8.5 67q0 45 -14.5 85t-43.5 66q-14 12 -45 27t-85 15h-20v-383zM331 547h-20q-59 0 -95.5 -17.5t-57 -45t-28 -62t-7.5 -68.5q0 -33 8.5 -67t29.5 -61.5t57.5 -44.5t92.5 -17h20v383zM502 700v-41l-64 -5l-17 -14v-47h22
q17 0 40 -1.5t48.5 -7t51.5 -16t50 -28.5q10 -8 25 -22.5t28.5 -37t23 -54t9.5 -72.5q0 -60 -21 -103t-59 -73q-10 -8 -26.5 -18.5t-40.5 -19.5t-55.5 -15.5t-71.5 -6.5h-24v-58l17 -14l64 -5v-41h-252v41l64 5l17 14v58h-24q-40 0 -71.5 6.5t-55.5 15.5t-40.5 19.5
t-26.5 18.5q-38 30 -59 73t-21 103q0 41 9.5 72.5t23 54t28 37t25.5 22.5q24 18 50 28.5t51.5 16t48.5 7t40 1.5h22v47l-17 14l-64 5v41h252z" />
    <glyph glyph-name="afii10039" unicode="&#xd5;" horiz-adv-x="600" 
d="M252 671v-41l-60 -5l-8 -12l131 -206l142 202l-9 13l-58 8v41h204v-41l-64 -9l-183 -261l194 -307l68 -12v-41h-253v41l67 7l7 14l-141 227l-158 -224l6 -18l67 -6v-41h-213v41l66 13l201 281l-181 283l-66 12v41h241z" />
    <glyph glyph-name="afii10039" unicode="&#x425;" horiz-adv-x="600" 
d="M252 671v-41l-60 -5l-8 -12l131 -206l142 202l-9 13l-58 8v41h204v-41l-64 -9l-183 -261l194 -307l68 -12v-41h-253v41l67 7l7 14l-141 227l-158 -224l6 -18l67 -6v-41h-213v41l66 13l201 281l-181 283l-66 12v41h241z" />
    <glyph glyph-name="afii10040" unicode="&#xd6;" horiz-adv-x="720" 
d="M276 671v-41l-62 -5l-17 -14v-565h324v565l-17 14l-62 5v41h243v-41l-57 -5l-17 -14v-555l12 -10h74v-216h-56l-20 155l-14 15h-574v41l57 5l17 14v551l-17 14l-57 5v41h243z" />
    <glyph glyph-name="afii10040" unicode="&#x426;" horiz-adv-x="720" 
d="M276 671v-41l-62 -5l-17 -14v-565h324v565l-17 14l-62 5v41h243v-41l-57 -5l-17 -14v-555l12 -10h74v-216h-56l-20 155l-14 15h-574v41l57 5l17 14v551l-17 14l-57 5v41h243z" />
    <glyph glyph-name="afii10041" unicode="&#xd7;" horiz-adv-x="662" 
d="M251 671v-41l-57 -5l-17 -14v-153q0 -21 4 -43.5t18.5 -40.5t41.5 -30t73 -12q30 0 70.5 5.5t80.5 17.5v256l-17 14l-62 5v41h243v-41l-57 -5l-17 -14v-551l17 -14l57 -5v-41h-252v41l71 5l17 14v245q-45 -12 -90.5 -19t-84.5 -7q-60 0 -103 15t-66 42q-13 15 -20 30.5
t-10 31.5t-3.5 32t-0.5 33v148l-17 14l-57 5v41h238z" />
    <glyph glyph-name="afii10041" unicode="&#x427;" horiz-adv-x="662" 
d="M251 671v-41l-57 -5l-17 -14v-153q0 -21 4 -43.5t18.5 -40.5t41.5 -30t73 -12q30 0 70.5 5.5t80.5 17.5v256l-17 14l-62 5v41h243v-41l-57 -5l-17 -14v-551l17 -14l57 -5v-41h-252v41l71 5l17 14v245q-45 -12 -90.5 -19t-84.5 -7q-60 0 -103 15t-66 42q-13 15 -20 30.5
t-10 31.5t-3.5 32t-0.5 33v148l-17 14l-57 5v41h238z" />
    <glyph glyph-name="afii10042" unicode="&#xd8;" horiz-adv-x="972" 
d="M276 671v-41l-62 -5l-17 -14v-565h244v565l-17 14l-62 5v41h248v-41l-62 -5l-17 -14v-565h244v565l-17 14l-62 5v41h243v-41l-57 -5l-17 -14v-551l17 -14l57 -5v-41h-906v41l57 5l17 14v551l-17 14l-57 5v41h243z" />
    <glyph glyph-name="afii10042" unicode="&#x428;" horiz-adv-x="972" 
d="M276 671v-41l-62 -5l-17 -14v-565h244v565l-17 14l-62 5v41h248v-41l-62 -5l-17 -14v-565h244v565l-17 14l-62 5v41h243v-41l-57 -5l-17 -14v-551l17 -14l57 -5v-41h-906v41l57 5l17 14v551l-17 14l-57 5v41h243z" />
    <glyph glyph-name="afii10043" unicode="&#xd9;" horiz-adv-x="974" 
d="M276 671v-41l-62 -5l-17 -14v-565h244v565l-17 14l-62 5v41h248v-41l-62 -5l-17 -14v-565h244v565l-17 14l-62 5v41h243v-41l-57 -5l-17 -14v-555l12 -10h74v-216h-56l-20 155l-14 15h-828v41l57 5l17 14v551l-17 14l-57 5v41h243z" />
    <glyph glyph-name="afii10043" unicode="&#x429;" horiz-adv-x="974" 
d="M276 671v-41l-62 -5l-17 -14v-565h244v565l-17 14l-62 5v41h248v-41l-62 -5l-17 -14v-565h244v565l-17 14l-62 5v41h243v-41l-57 -5l-17 -14v-555l12 -10h74v-216h-56l-20 155l-14 15h-828v41l57 5l17 14v551l-17 14l-57 5v41h243z" />
    <glyph glyph-name="afii10044" unicode="&#xda;" horiz-adv-x="720" 
d="M323 50q20 -2 38 -3t38 -1q15 0 34 1t38.5 5t38.5 12t34 23q26 24 33.5 54.5t7.5 56.5q0 23 -6 52t-31 54q-26 27 -61 34.5t-67 7.5q-21 0 -45.5 -1.5t-51.5 -6.5v-288zM404 671v-41l-64 -5l-17 -14v-225q25 3 51.5 4.5t52.5 1.5q34 0 79 -7t84.5 -27.5t67 -58.5
t27.5 -100q0 -31 -12 -70.5t-53 -73.5q-22 -18 -48 -29t-52.5 -17t-51.5 -7.5t-45 -1.5h-264v41l57 5l17 14v565h-134l-14 -15l-14 -95h-55v156h388z" />
    <glyph glyph-name="afii10044" unicode="&#x42a;" horiz-adv-x="720" 
d="M323 50q20 -2 38 -3t38 -1q15 0 34 1t38.5 5t38.5 12t34 23q26 24 33.5 54.5t7.5 56.5q0 23 -6 52t-31 54q-26 27 -61 34.5t-67 7.5q-21 0 -45.5 -1.5t-51.5 -6.5v-288zM404 671v-41l-64 -5l-17 -14v-225q25 3 51.5 4.5t52.5 1.5q34 0 79 -7t84.5 -27.5t67 -58.5
t27.5 -100q0 -31 -12 -70.5t-53 -73.5q-22 -18 -48 -29t-52.5 -17t-51.5 -7.5t-45 -1.5h-264v41l57 5l17 14v565h-134l-14 -15l-14 -95h-55v156h388z" />
    <glyph glyph-name="afii10045" unicode="&#xdb;" horiz-adv-x="850" 
d="M572 41l64 5l17 14v551l-17 14l-64 5v41h245v-41l-57 -5l-17 -14v-551l17 -14l57 -5v-41h-245v41zM197 50q17 -2 31 -3t31 -1q15 0 34.5 1t39 5t39 12t34.5 23q26 24 33.5 55t7.5 56q0 22 -6 51.5t-31 54.5q-26 26 -62.5 34t-70.5 8q-20 0 -40 -1.5t-40 -6.5v-288z
M278 671v-41l-64 -5l-17 -14v-225q29 4 52.5 5t37.5 1q35 0 80 -7t85 -27.5t67.5 -58.5t27.5 -100q0 -31 -12 -70.5t-53 -73.5q-23 -18 -49 -29t-53 -17t-52 -7.5t-45 -1.5h-250v41l57 5l17 14v551l-17 14l-57 5v41h245z" />
    <glyph glyph-name="afii10045" unicode="&#x42b;" horiz-adv-x="850" 
d="M572 41l64 5l17 14v551l-17 14l-64 5v41h245v-41l-57 -5l-17 -14v-551l17 -14l57 -5v-41h-245v41zM197 50q17 -2 31 -3t31 -1q15 0 34.5 1t39 5t39 12t34.5 23q26 24 33.5 55t7.5 56q0 22 -6 51.5t-31 54.5q-26 26 -62.5 34t-70.5 8q-20 0 -40 -1.5t-40 -6.5v-288z
M278 671v-41l-64 -5l-17 -14v-225q29 4 52.5 5t37.5 1q35 0 80 -7t85 -27.5t67.5 -58.5t27.5 -100q0 -31 -12 -70.5t-53 -73.5q-23 -18 -49 -29t-53 -17t-52 -7.5t-45 -1.5h-250v41l57 5l17 14v551l-17 14l-57 5v41h245z" />
    <glyph glyph-name="afii10046" unicode="&#xdc;" horiz-adv-x="594" 
d="M197 50q20 -2 38 -3t38 -1q15 0 34 1t38.5 5t38.5 12t34 23q26 24 33.5 54.5t7.5 56.5q0 23 -6 52t-31 54q-26 27 -61 34.5t-67 7.5q-21 0 -45.5 -1.5t-51.5 -6.5v-288zM278 671v-41l-64 -5l-17 -14v-225q25 3 51.5 4.5t52.5 1.5q34 0 79 -7t84.5 -27.5t67 -58.5
t27.5 -100q0 -31 -12 -70.5t-53 -73.5q-22 -18 -48 -29t-52.5 -17t-51.5 -7.5t-45 -1.5h-264v41l57 5l17 14v551l-17 14l-57 5v41h245z" />
    <glyph glyph-name="afii10046" unicode="&#x42c;" horiz-adv-x="594" 
d="M197 50q20 -2 38 -3t38 -1q15 0 34 1t38.5 5t38.5 12t34 23q26 24 33.5 54.5t7.5 56.5q0 23 -6 52t-31 54q-26 27 -61 34.5t-67 7.5q-21 0 -45.5 -1.5t-51.5 -6.5v-288zM278 671v-41l-64 -5l-17 -14v-225q25 3 51.5 4.5t52.5 1.5q34 0 79 -7t84.5 -27.5t67 -58.5
t27.5 -100q0 -31 -12 -70.5t-53 -73.5q-22 -18 -48 -29t-52.5 -17t-51.5 -7.5t-45 -1.5h-264v41l57 5l17 14v551l-17 14l-57 5v41h245z" />
    <glyph glyph-name="afii10047" unicode="&#xdd;" horiz-adv-x="636" 
d="M100 181l22 -111l16 -16q23 -7 46.5 -10t55.5 -3q56 0 102.5 16t83.5 64q31 40 46.5 95t15.5 106h-290v46h290q-2 51 -16 98t-43 83.5t-74.5 58.5t-109.5 22q-35 0 -61.5 -7.5t-49.5 -18.5l-13 -18l-15 -91h-56v154q53 20 101 27t87 7q81 0 143.5 -22.5t104.5 -60.5
q21 -18 40 -44t34 -59t24 -73t9 -88q0 -91 -29 -156.5t-76.5 -108t-109.5 -63t-128 -20.5q-32 0 -84.5 5.5t-121.5 29.5v158h56z" />
    <glyph glyph-name="afii10047" unicode="&#x42d;" horiz-adv-x="636" 
d="M100 181l22 -111l16 -16q23 -7 46.5 -10t55.5 -3q56 0 102.5 16t83.5 64q31 40 46.5 95t15.5 106h-290v46h290q-2 51 -16 98t-43 83.5t-74.5 58.5t-109.5 22q-35 0 -61.5 -7.5t-49.5 -18.5l-13 -18l-15 -91h-56v154q53 20 101 27t87 7q81 0 143.5 -22.5t104.5 -60.5
q21 -18 40 -44t34 -59t24 -73t9 -88q0 -91 -29 -156.5t-76.5 -108t-109.5 -63t-128 -20.5q-32 0 -84.5 5.5t-121.5 29.5v158h56z" />
    <glyph glyph-name="afii10048" unicode="&#xde;" horiz-adv-x="1008" 
d="M654 634q-64 0 -106 -28.5t-67 -72t-35 -96t-10 -100.5q0 -55 12.5 -113t41.5 -100q17 -26 37.5 -43t41.5 -26.5t41.5 -13.5t38.5 -4q51 0 90.5 24t66.5 65t40.5 95t13.5 113q0 51 -10.5 104t-35 96.5t-64 71.5t-96.5 28zM336 375q4 68 28 125t64.5 98.5t97 65
t126.5 23.5q39 0 71 -7.5t58 -18.5t45.5 -25t33.5 -27q48 -45 76.5 -114.5t28.5 -157.5q0 -81 -23.5 -145t-64.5 -109q-16 -18 -37.5 -35.5t-50 -32t-63.5 -23t-78 -8.5q-42 0 -76 8.5t-61.5 22t-49 30.5t-36.5 34q-35 40 -62 104.5t-27 145.5h-139v-269l17 -14l62 -5v-41
h-243v41l57 5l17 14v551l-17 14l-57 5v41h243v-41l-62 -5l-17 -14v-236h139z" />
    <glyph glyph-name="afii10048" unicode="&#x42e;" horiz-adv-x="1008" 
d="M654 634q-64 0 -106 -28.5t-67 -72t-35 -96t-10 -100.5q0 -55 12.5 -113t41.5 -100q17 -26 37.5 -43t41.5 -26.5t41.5 -13.5t38.5 -4q51 0 90.5 24t66.5 65t40.5 95t13.5 113q0 51 -10.5 104t-35 96.5t-64 71.5t-96.5 28zM336 375q4 68 28 125t64.5 98.5t97 65
t126.5 23.5q39 0 71 -7.5t58 -18.5t45.5 -25t33.5 -27q48 -45 76.5 -114.5t28.5 -157.5q0 -81 -23.5 -145t-64.5 -109q-16 -18 -37.5 -35.5t-50 -32t-63.5 -23t-78 -8.5q-42 0 -76 8.5t-61.5 22t-49 30.5t-36.5 34q-35 40 -62 104.5t-27 145.5h-139v-269l17 -14l62 -5v-41
h-243v41l57 5l17 14v551l-17 14l-57 5v41h243v-41l-62 -5l-17 -14v-236h139z" />
    <glyph glyph-name="afii10049" unicode="&#xdf;" horiz-adv-x="630" 
d="M433 625h-52h-8q-29 0 -65.5 -4t-65.5 -25q-33 -24 -42 -56t-9 -56q0 -17 4.5 -39.5t22.5 -42.5t53 -34t95 -14q17 0 36.5 0.5t30.5 1.5v269zM597 630l-57 -5l-17 -14v-551l17 -14l57 -5v-41h-238v41l57 5l17 14v246q-5 0 -24 1t-35 1q-43 0 -74 -20t-53 -76l-71 -182
v-30h-186v41l69 5l27 17l55 119l21.5 43.5t27 42t35.5 34t48 20.5v2q-30 1 -62 10t-58 28.5t-43 50.5t-17 75q0 63 26.5 99.5t63.5 55t76.5 23.5t66.5 5h271v-41z" />
    <glyph glyph-name="afii10049" unicode="&#x42f;" horiz-adv-x="630" 
d="M433 625h-52h-8q-29 0 -65.5 -4t-65.5 -25q-33 -24 -42 -56t-9 -56q0 -17 4.5 -39.5t22.5 -42.5t53 -34t95 -14q17 0 36.5 0.5t30.5 1.5v269zM597 630l-57 -5l-17 -14v-551l17 -14l57 -5v-41h-238v41l57 5l17 14v246q-5 0 -24 1t-35 1q-43 0 -74 -20t-53 -76l-71 -182
v-30h-186v41l69 5l27 17l55 119l21.5 43.5t27 42t35.5 34t48 20.5v2q-30 1 -62 10t-58 28.5t-43 50.5t-17 75q0 63 26.5 99.5t63.5 55t76.5 23.5t66.5 5h271v-41z" />
    <glyph glyph-name="afii10065" unicode="&#xe0;" horiz-adv-x="506" 
d="M334 268q-32 -9 -70 -21.5t-64 -24.5q-12 -6 -24.5 -13t-22.5 -18t-16.5 -25.5t-6.5 -35.5q0 -14 4 -28.5t13 -26.5t24.5 -20t38.5 -8q20 0 48 8.5t76 36.5v176zM334 58q-58 -41 -97 -54t-67 -13q-34 0 -58 11.5t-39.5 30.5t-23 42t-7.5 47q0 28 9 48.5t23.5 35
t32.5 24.5t36 17l29.5 11t39 12.5l52.5 14.5l70 18v32q0 15 -0.5 34t-8.5 36t-26 29t-53 12q-20 0 -40 -4t-39 -11v-84h-69q-9 0 -20 4t-11 22q0 20 10.5 40.5t34.5 37.5t62 28t93 11q9 0 23.5 -0.5t31.5 -4.5t34 -11.5t30 -21.5q12 -12 18.5 -27t9.5 -30t3.5 -27.5
t0.5 -20.5v-290l17 -21h53v-36h-140z" />
    <glyph glyph-name="afii10065" unicode="&#x430;" horiz-adv-x="506" 
d="M334 268q-32 -9 -70 -21.5t-64 -24.5q-12 -6 -24.5 -13t-22.5 -18t-16.5 -25.5t-6.5 -35.5q0 -14 4 -28.5t13 -26.5t24.5 -20t38.5 -8q20 0 48 8.5t76 36.5v176zM334 58q-58 -41 -97 -54t-67 -13q-34 0 -58 11.5t-39.5 30.5t-23 42t-7.5 47q0 28 9 48.5t23.5 35
t32.5 24.5t36 17l29.5 11t39 12.5l52.5 14.5l70 18v32q0 15 -0.5 34t-8.5 36t-26 29t-53 12q-20 0 -40 -4t-39 -11v-84h-69q-9 0 -20 4t-11 22q0 20 10.5 40.5t34.5 37.5t62 28t93 11q9 0 23.5 -0.5t31.5 -4.5t34 -11.5t30 -21.5q12 -12 18.5 -27t9.5 -30t3.5 -27.5
t0.5 -20.5v-290l17 -21h53v-36h-140z" />
    <glyph glyph-name="afii10066" unicode="&#xe1;" horiz-adv-x="546" 
d="M284 446q-50 0 -79 -26.5t-44 -61t-19.5 -68.5t-4.5 -49q0 -23 4.5 -58.5t21.5 -70.5q12 -24 26 -39t29 -23.5t29.5 -11.5t27.5 -3q24 0 52 12t51 47q24 36 30.5 76t6.5 73q0 24 -5.5 58.5t-19.5 66.5t-40 55t-66 23zM509 746q-7 -41 -22.5 -65t-34 -37t-37 -18t-31.5 -7
l-94 -13q-36 -5 -67 -17.5t-55 -38t-38.5 -66.5t-17.5 -104h2q11 19 26.5 39t37 35.5t50.5 25.5t66 10q52 0 92 -19.5t67.5 -52.5t41.5 -77.5t14 -94.5q0 -67 -20 -113t-49 -75q-23 -24 -63.5 -45.5t-101.5 -21.5q-51 0 -88.5 15t-63 39t-41.5 54.5t-24.5 61t-11.5 59
t-3 48.5q0 29 3 61.5t8.5 66t13.5 66t19 60.5q19 49 45 80t57 50t64.5 28t68.5 14l84 13q20 3 40.5 10.5t28.5 28.5h34z" />
    <glyph glyph-name="afii10066" unicode="&#x431;" horiz-adv-x="546" 
d="M284 446q-50 0 -79 -26.5t-44 -61t-19.5 -68.5t-4.5 -49q0 -23 4.5 -58.5t21.5 -70.5q12 -24 26 -39t29 -23.5t29.5 -11.5t27.5 -3q24 0 52 12t51 47q24 36 30.5 76t6.5 73q0 24 -5.5 58.5t-19.5 66.5t-40 55t-66 23zM509 746q-7 -41 -22.5 -65t-34 -37t-37 -18t-31.5 -7
l-94 -13q-36 -5 -67 -17.5t-55 -38t-38.5 -66.5t-17.5 -104h2q11 19 26.5 39t37 35.5t50.5 25.5t66 10q52 0 92 -19.5t67.5 -52.5t41.5 -77.5t14 -94.5q0 -67 -20 -113t-49 -75q-23 -24 -63.5 -45.5t-101.5 -21.5q-51 0 -88.5 15t-63 39t-41.5 54.5t-24.5 61t-11.5 59
t-3 48.5q0 29 3 61.5t8.5 66t13.5 66t19 60.5q19 49 45 80t57 50t64.5 28t68.5 14l84 13q20 3 40.5 10.5t28.5 28.5h34z" />
    <glyph glyph-name="afii10067" unicode="&#xe2;" horiz-adv-x="510" 
d="M185 46q20 -5 37 -6.5t39 -1.5t44.5 5t41 16.5t30 30.5t11.5 47q0 20 -6.5 41.5t-30.5 37.5q-20 13 -45 15.5t-45 2.5t-39.5 -1.5t-36.5 -3.5v-183zM185 271q14 -2 26 -2.5t29 -0.5q16 0 38 2t41.5 10.5t33 26.5t13.5 50q0 27 -10 43.5t-25.5 26t-34 13t-36.5 3.5
q-19 0 -37 -1.5t-38 -6.5v-164zM278 481q52 0 85 -9t52 -24t26 -34.5t7 -41.5q0 -44 -27 -74t-69 -41v-2q21 -2 42.5 -9t39 -20.5t29 -35.5t11.5 -53q0 -24 -11.5 -52.5t-45.5 -51.5q-32 -22 -67.5 -27.5t-66.5 -5.5h-253v36l54 5l17 16v367l-17 16l-54 5v36h248z" />
    <glyph glyph-name="afii10067" unicode="&#x432;" horiz-adv-x="510" 
d="M185 46q20 -5 37 -6.5t39 -1.5t44.5 5t41 16.5t30 30.5t11.5 47q0 20 -6.5 41.5t-30.5 37.5q-20 13 -45 15.5t-45 2.5t-39.5 -1.5t-36.5 -3.5v-183zM185 271q14 -2 26 -2.5t29 -0.5q16 0 38 2t41.5 10.5t33 26.5t13.5 50q0 27 -10 43.5t-25.5 26t-34 13t-36.5 3.5
q-19 0 -37 -1.5t-38 -6.5v-164zM278 481q52 0 85 -9t52 -24t26 -34.5t7 -41.5q0 -44 -27 -74t-69 -41v-2q21 -2 42.5 -9t39 -20.5t29 -35.5t11.5 -53q0 -24 -11.5 -52.5t-45.5 -51.5q-32 -22 -67.5 -27.5t-66.5 -5.5h-253v36l54 5l17 16v367l-17 16l-54 5v36h248z" />
    <glyph glyph-name="afii10068" unicode="&#xe3;" horiz-adv-x="440" 
d="M30 36l54 5l17 16v367l-17 16l-54 5v36h394v-165h-51l-14 103l-15 16h-159v-378l17 -16l70 -5v-36h-242v36z" />
    <glyph glyph-name="afii10068" unicode="&#x433;" horiz-adv-x="440" 
d="M30 36l54 5l17 16v367l-17 16l-54 5v36h394v-165h-51l-14 103l-15 16h-159v-378l17 -16l70 -5v-36h-242v36z" />
    <glyph glyph-name="afii10069" unicode="&#xe4;" horiz-adv-x="514" 
d="M329 46v389h-94q-8 -44 -21 -93.5t-30.5 -100.5t-39 -101t-46.5 -94h231zM484 481v-36l-54 -5l-17 -16v-368l12 -10h65v-186h-51l-18 124l-15 16h-332l-15 -16l-18 -124h-51v186h50q31 46 54.5 95t41 98t29 95.5t18.5 87.5l-17 18l-62 5v36h380z" />
    <glyph glyph-name="afii10069" unicode="&#x434;" horiz-adv-x="514" 
d="M329 46v389h-94q-8 -44 -21 -93.5t-30.5 -100.5t-39 -101t-46.5 -94h231zM484 481v-36l-54 -5l-17 -16v-368l12 -10h65v-186h-51l-18 124l-15 16h-332l-15 -16l-18 -124h-51v186h50q31 46 54.5 95t41 98t29 95.5t18.5 87.5l-17 18l-62 5v36h380z" />
    <glyph glyph-name="afii10070" unicode="&#xe5;" horiz-adv-x="490" 
d="M359 305v25q0 15 -4 34.5t-10 30.5q-2 4 -8 13t-16.5 17t-26 14.5t-37.5 6.5q-32 0 -55.5 -13t-39 -33t-23.5 -45t-11 -50h231zM448 51q-40 -28 -87.5 -44t-96.5 -16q-57 0 -99.5 19t-71 52t-42.5 78t-14 97q0 57 18.5 105.5t51.5 82.5q10 10 25 21.5t35 21.5t45.5 16
t56.5 6q29 0 60.5 -8.5t58 -30.5t43 -61t16.5 -99v-28h-324v-15q0 -37 10 -71t31 -63.5t52.5 -47.5t74.5 -18q25 0 64 10.5t93 47.5v-55z" />
    <glyph glyph-name="afii10070" unicode="&#x435;" horiz-adv-x="490" 
d="M359 305v25q0 15 -4 34.5t-10 30.5q-2 4 -8 13t-16.5 17t-26 14.5t-37.5 6.5q-32 0 -55.5 -13t-39 -33t-23.5 -45t-11 -50h231zM448 51q-40 -28 -87.5 -44t-96.5 -16q-57 0 -99.5 19t-71 52t-42.5 78t-14 97q0 57 18.5 105.5t51.5 82.5q10 10 25 21.5t35 21.5t45.5 16
t56.5 6q29 0 60.5 -8.5t58 -30.5t43 -61t16.5 -99v-28h-324v-15q0 -37 10 -71t31 -63.5t52.5 -47.5t74.5 -18q25 0 64 10.5t93 47.5v-55z" />
    <glyph glyph-name="afii10072" unicode="&#xe6;" horiz-adv-x="734" 
d="M472 481v-36l-50 -5l-17 -16v-154h34q35 0 56.5 18t31.5 44l29 76q5 12 12 26.5t17.5 26.5t25.5 20.5t36 8.5q25 0 44 -14.5t19 -40.5q0 -10 -5.5 -25t-22.5 -24l-68 40q-8 -10 -10.5 -16.5t-5.5 -15.5l-27 -71q-3 -8 -7.5 -18t-12 -19.5t-19.5 -17.5t-30 -12v-2
q26 -3 54 -23.5t52 -71.5l49 -104l17 -12l60 -7v-36h-148v32l-49 115q-6 14 -13.5 28t-17.5 25.5t-23.5 18.5t-31.5 7h-46v-169l17 -16l50 -5v-36h-210v36l50 5l17 16v169h-46q-18 0 -31.5 -7t-23.5 -18.5t-17.5 -25.5t-13.5 -28l-49 -115v-32h-148v36l60 7l17 12l49 104
q24 51 52 71.5t54 23.5v2q-18 4 -30 12t-19.5 17.5t-12 19.5t-7.5 18l-27 71q-3 9 -5.5 15.5t-10.5 16.5l-68 -40q-17 9 -22.5 24t-5.5 25q0 26 19 40.5t44 14.5q21 0 36 -8.5t25.5 -20.5t17.5 -26.5t12 -26.5l29 -76q10 -26 31.5 -44t56.5 -18h34v154l-17 16l-50 5v36h210z
" />
    <glyph glyph-name="afii10072" unicode="&#x436;" horiz-adv-x="734" 
d="M472 481v-36l-50 -5l-17 -16v-154h34q35 0 56.5 18t31.5 44l29 76q5 12 12 26.5t17.5 26.5t25.5 20.5t36 8.5q25 0 44 -14.5t19 -40.5q0 -10 -5.5 -25t-22.5 -24l-68 40q-8 -10 -10.5 -16.5t-5.5 -15.5l-27 -71q-3 -8 -7.5 -18t-12 -19.5t-19.5 -17.5t-30 -12v-2
q26 -3 54 -23.5t52 -71.5l49 -104l17 -12l60 -7v-36h-148v32l-49 115q-6 14 -13.5 28t-17.5 25.5t-23.5 18.5t-31.5 7h-46v-169l17 -16l50 -5v-36h-210v36l50 5l17 16v169h-46q-18 0 -31.5 -7t-23.5 -18.5t-17.5 -25.5t-13.5 -28l-49 -115v-32h-148v36l60 7l17 12l49 104
q24 51 52 71.5t54 23.5v2q-18 4 -30 12t-19.5 17.5t-12 19.5t-7.5 18l-27 71q-3 9 -5.5 15.5t-10.5 16.5l-68 -40q-17 9 -22.5 24t-5.5 25q0 26 19 40.5t44 14.5q21 0 36 -8.5t25.5 -20.5t17.5 -26.5t12 -26.5l29 -76q10 -26 31.5 -44t56.5 -18h34v154l-17 16l-50 5v36h210z
" />
    <glyph glyph-name="afii10073" unicode="&#xe7;" horiz-adv-x="426" 
d="M138 273q21 -3 46 -3q13 0 31 2t34.5 11t27.5 27t11 50q0 29 -10.5 46t-25.5 26t-31.5 11.5t-27.5 2.5q-19 0 -40 -4t-44 -15l-11 -71h-48v113q54 14 90 17.5t56 3.5q24 0 55 -3t58.5 -15t46 -36t18.5 -66q0 -40 -28 -70.5t-75 -41.5v-2q19 -2 40.5 -8t40.5 -19.5
t31.5 -36t12.5 -56.5q0 -45 -20.5 -73.5t-52 -44.5t-68 -21.5t-68.5 -5.5q-52 0 -92 7t-65 14v130h48l14 -85q26 -14 50.5 -18t42.5 -4q22 0 43.5 5t38.5 16t27 30t10 48q0 33 -13 51.5t-30 27.5t-35.5 11t-28.5 2q-14 0 -34 -1.5t-25 -2.5v51z" />
    <glyph glyph-name="afii10073" unicode="&#x437;" horiz-adv-x="426" 
d="M138 273q21 -3 46 -3q13 0 31 2t34.5 11t27.5 27t11 50q0 29 -10.5 46t-25.5 26t-31.5 11.5t-27.5 2.5q-19 0 -40 -4t-44 -15l-11 -71h-48v113q54 14 90 17.5t56 3.5q24 0 55 -3t58.5 -15t46 -36t18.5 -66q0 -40 -28 -70.5t-75 -41.5v-2q19 -2 40.5 -8t40.5 -19.5
t31.5 -36t12.5 -56.5q0 -45 -20.5 -73.5t-52 -44.5t-68 -21.5t-68.5 -5.5q-52 0 -92 7t-65 14v130h48l14 -85q26 -14 50.5 -18t42.5 -4q22 0 43.5 5t38.5 16t27 30t10 48q0 33 -13 51.5t-30 27.5t-35.5 11t-28.5 2q-14 0 -34 -1.5t-25 -2.5v51z" />
    <glyph glyph-name="afii10074" unicode="&#xe8;" horiz-adv-x="602" 
d="M30 36l54 5l17 16v367l-17 16l-54 5v36h220v-36l-48 -5l-17 -16v-273l232 249v24l-17 16l-48 5v36h220v-36l-54 -5l-17 -16v-367l17 -16l54 -5v-36h-220v36l48 5l17 16v281l-232 -249v-32l17 -16l48 -5v-36h-220v36z" />
    <glyph glyph-name="afii10074" unicode="&#x438;" horiz-adv-x="602" 
d="M30 36l54 5l17 16v367l-17 16l-54 5v36h220v-36l-48 -5l-17 -16v-273l232 249v24l-17 16l-48 5v36h220v-36l-54 -5l-17 -16v-367l17 -16l54 -5v-36h-220v36l48 5l17 16v281l-232 -249v-32l17 -16l48 -5v-36h-220v36z" />
    <glyph glyph-name="afii10075" unicode="&#xe9;" horiz-adv-x="602" 
d="M225 615q14 -10 31.5 -15.5t44.5 -5.5t44.5 5.5t31.5 15.5v78q5 8 15 15.5t28 7.5q20 0 33.5 -13t13.5 -36q0 -25 -13 -45.5t-35.5 -35t-53 -22.5t-64.5 -8q-35 0 -65 8t-52.5 22.5t-35.5 35t-13 45.5q0 23 13.5 36t33.5 13q18 0 28 -7.5t15 -15.5v-78zM30 36l54 5l17 16
v367l-17 16l-54 5v36h220v-36l-48 -5l-17 -16v-273l232 249v24l-17 16l-48 5v36h220v-36l-54 -5l-17 -16v-367l17 -16l54 -5v-36h-220v36l48 5l17 16v281l-232 -249v-32l17 -16l48 -5v-36h-220v36z" />
    <glyph glyph-name="afii10075" unicode="&#x439;" horiz-adv-x="602" 
d="M225 615q14 -10 31.5 -15.5t44.5 -5.5t44.5 5.5t31.5 15.5v78q5 8 15 15.5t28 7.5q20 0 33.5 -13t13.5 -36q0 -25 -13 -45.5t-35.5 -35t-53 -22.5t-64.5 -8q-35 0 -65 8t-52.5 22.5t-35.5 35t-13 45.5q0 23 13.5 36t33.5 13q18 0 28 -7.5t15 -15.5v-78zM30 36l54 5l17 16
v367l-17 16l-54 5v36h220v-36l-48 -5l-17 -16v-273l232 249v24l-17 16l-48 5v36h220v-36l-54 -5l-17 -16v-367l17 -16l54 -5v-36h-220v36l48 5l17 16v281l-232 -249v-32l17 -16l48 -5v-36h-220v36z" />
    <glyph glyph-name="afii10076" unicode="&#xea;" horiz-adv-x="536" 
d="M30 36l54 5l17 16v367l-17 16l-54 5v36h220v-36l-48 -5l-17 -16v-154h48q29 0 53 14t38 47l34 78q14 35 37.5 58t59.5 23q31 0 47 -16.5t16 -38.5q0 -33 -28 -49l-70 40q-8 -9 -11 -16.5t-7 -15.5l-30 -71q-16 -38 -36.5 -51t-31.5 -16v-2q23 -5 37.5 -15t24.5 -22
t16.5 -25l13.5 -26l55 -111l17 -12l68 -7v-36h-166v32l-54 124q-17 39 -37.5 54.5t-47.5 15.5h-46v-167l17 -18l48 -5v-36h-220v36z" />
    <glyph glyph-name="afii10076" unicode="&#x43a;" horiz-adv-x="536" 
d="M30 36l54 5l17 16v367l-17 16l-54 5v36h220v-36l-48 -5l-17 -16v-154h48q29 0 53 14t38 47l34 78q14 35 37.5 58t59.5 23q31 0 47 -16.5t16 -38.5q0 -33 -28 -49l-70 40q-8 -9 -11 -16.5t-7 -15.5l-30 -71q-16 -38 -36.5 -51t-31.5 -16v-2q23 -5 37.5 -15t24.5 -22
t16.5 -25l13.5 -26l55 -111l17 -12l68 -7v-36h-166v32l-54 124q-17 39 -37.5 54.5t-47.5 15.5h-46v-167l17 -18l48 -5v-36h-220v36z" />
    <glyph glyph-name="afii10077" unicode="&#xeb;" horiz-adv-x="516" 
d="M486 481v-36l-54 -5l-17 -16v-367l17 -16l54 -5v-36h-220v36l48 5l17 16v378h-110q-2 -55 -9 -117t-18 -113q-17 -74 -36.5 -113t-35.5 -57q-14 -16 -35.5 -30t-51.5 -14q-17 0 -27.5 6t-16.5 14.5t-8.5 17t-2.5 14.5q0 17 9 32.5t27 24.5l63 -42q9 10 17.5 24t17.5 34
t17 47t16 63q9 46 14.5 99.5t7.5 96.5l-17 18l-62 5v36h396z" />
    <glyph glyph-name="afii10077" unicode="&#x43b;" horiz-adv-x="516" 
d="M486 481v-36l-54 -5l-17 -16v-367l17 -16l54 -5v-36h-220v36l48 5l17 16v378h-110q-2 -55 -9 -117t-18 -113q-17 -74 -36.5 -113t-35.5 -57q-14 -16 -35.5 -30t-51.5 -14q-17 0 -27.5 6t-16.5 14.5t-8.5 17t-2.5 14.5q0 17 9 32.5t27 24.5l63 -42q9 10 17.5 24t17.5 34
t17 47t16 63q9 46 14.5 99.5t7.5 96.5l-17 18l-62 5v36h396z" />
    <glyph glyph-name="afii10078" unicode="&#xec;" horiz-adv-x="700" 
d="M228 481v-24l124 -343l124 343v24h194v-36l-54 -5l-17 -16v-367l17 -16l54 -5v-36h-220v36l48 5l17 16v383l-162 -440h-36l-164 440v-383l17 -16l48 -5v-36h-188v36l54 5l17 16v367l-17 16l-54 5v36h198z" />
    <glyph glyph-name="afii10078" unicode="&#x43c;" horiz-adv-x="700" 
d="M228 481v-24l124 -343l124 343v24h194v-36l-54 -5l-17 -16v-367l17 -16l54 -5v-36h-220v36l48 5l17 16v383l-162 -440h-36l-164 440v-383l17 -16l48 -5v-36h-188v36l54 5l17 16v367l-17 16l-54 5v36h198z" />
    <glyph glyph-name="afii10079" unicode="&#xed;" horiz-adv-x="594" 
d="M30 36l54 5l17 16v367l-17 16l-54 5v36h220v-36l-48 -5l-17 -16v-150h224v150l-17 16l-48 5v36h220v-36l-54 -5l-17 -16v-367l17 -16l54 -5v-36h-220v36l48 5l17 16v171h-224v-171l17 -16l48 -5v-36h-220v36z" />
    <glyph glyph-name="afii10079" unicode="&#x43d;" horiz-adv-x="594" 
d="M30 36l54 5l17 16v367l-17 16l-54 5v36h220v-36l-48 -5l-17 -16v-150h224v150l-17 16l-48 5v36h220v-36l-54 -5l-17 -16v-367l17 -16l54 -5v-36h-220v36l48 5l17 16v171h-224v-171l17 -16l48 -5v-36h-220v36z" />
    <glyph glyph-name="afii10080" unicode="&#xee;" horiz-adv-x="540" 
d="M268 446q-16 0 -43 -8.5t-52 -40.5q-23 -31 -32.5 -72.5t-9.5 -83.5q0 -30 5.5 -63.5t20.5 -65.5q12 -24 26 -39t29 -23.5t29.5 -11.5t27.5 -3q24 0 52 12t51 47t30 73.5t7 72.5q0 16 -1.5 35.5t-6 40.5t-13.5 42t-23 39q-26 32 -53 40.5t-44 8.5zM271 490q54 0 97 -19.5
t73 -53.5t46 -79.5t16 -97.5q0 -61 -20 -106.5t-49 -75.5q-23 -24 -63.5 -45.5t-101.5 -21.5q-33 0 -59.5 7t-47.5 17.5t-36.5 23t-25.5 24.5q-26 28 -44.5 71.5t-18.5 105.5q0 48 14 93.5t42.5 80t72.5 55.5t105 21z" />
    <glyph glyph-name="afii10080" unicode="&#x43e;" horiz-adv-x="540" 
d="M268 446q-16 0 -43 -8.5t-52 -40.5q-23 -31 -32.5 -72.5t-9.5 -83.5q0 -30 5.5 -63.5t20.5 -65.5q12 -24 26 -39t29 -23.5t29.5 -11.5t27.5 -3q24 0 52 12t51 47t30 73.5t7 72.5q0 16 -1.5 35.5t-6 40.5t-13.5 42t-23 39q-26 32 -53 40.5t-44 8.5zM271 490q54 0 97 -19.5
t73 -53.5t46 -79.5t16 -97.5q0 -61 -20 -106.5t-49 -75.5q-23 -24 -63.5 -45.5t-101.5 -21.5q-33 0 -59.5 7t-47.5 17.5t-36.5 23t-25.5 24.5q-26 28 -44.5 71.5t-18.5 105.5q0 48 14 93.5t42.5 80t72.5 55.5t105 21z" />
    <glyph glyph-name="afii10081" unicode="&#xef;" horiz-adv-x="576" 
d="M30 36l54 5l17 16v367l-17 16l-54 5v36h516v-36l-54 -5l-17 -16v-367l17 -16l54 -5v-36h-220v36l48 5l17 16v378h-206v-378l17 -16l48 -5v-36h-220v36z" />
    <glyph glyph-name="afii10081" unicode="&#x43f;" horiz-adv-x="576" 
d="M30 36l54 5l17 16v367l-17 16l-54 5v36h516v-36l-54 -5l-17 -16v-367l17 -16l54 -5v-36h-220v36l48 5l17 16v378h-206v-378l17 -16l48 -5v-36h-220v36z" />
    <glyph glyph-name="afii10082" unicode="&#xf0;" horiz-adv-x="552" 
d="M177 58q26 -11 44.5 -14t29.5 -3q44 0 76.5 16.5t54.5 44.5t32.5 65t10.5 78q0 36 -8.5 69t-26.5 58t-45 39.5t-64 14.5q-29 0 -57.5 -10.5t-46.5 -21.5v-336zM22 -182l55 5l16 16v580h-71v31l117 36h38v-55q25 19 45.5 30.5t38.5 18t33.5 8.5t29.5 2q37 0 71.5 -14
t61 -42.5t42.5 -72.5t16 -104q0 -73 -23.5 -121.5t-50.5 -74.5q-29 -29 -71 -46.5t-99 -17.5q-9 0 -32.5 1t-61.5 8v-167l17 -16l64 -5v-36h-236v36z" />
    <glyph glyph-name="afii10082" unicode="&#x440;" horiz-adv-x="552" 
d="M177 58q26 -11 44.5 -14t29.5 -3q44 0 76.5 16.5t54.5 44.5t32.5 65t10.5 78q0 36 -8.5 69t-26.5 58t-45 39.5t-64 14.5q-29 0 -57.5 -10.5t-46.5 -21.5v-336zM22 -182l55 5l16 16v580h-71v31l117 36h38v-55q25 19 45.5 30.5t38.5 18t33.5 8.5t29.5 2q37 0 71.5 -14
t61 -42.5t42.5 -72.5t16 -104q0 -73 -23.5 -121.5t-50.5 -74.5q-29 -29 -71 -46.5t-99 -17.5q-9 0 -32.5 1t-61.5 8v-167l17 -16l64 -5v-36h-236v36z" />
    <glyph glyph-name="afii10083" unicode="&#xf1;" horiz-adv-x="446" 
d="M425 42q-57 -34 -96.5 -42.5t-65.5 -8.5q-49 0 -90.5 16.5t-71.5 48.5t-47 78.5t-17 105.5q0 58 17 104.5t48.5 79t76.5 49.5t100 17q41 0 68.5 -9t44.5 -23t24.5 -30.5t7.5 -31.5q0 -25 -15 -40t-39 -15q-8 0 -21 3t-26 11v82q-8 5 -20 9t-30 4t-45 -8.5t-52 -37.5
t-36 -71t-11 -84q0 -8 1 -26t6 -40t15 -45.5t28.5 -42.5t47 -31.5t70.5 -12.5q39 0 72 14t56 29v-52z" />
    <glyph glyph-name="afii10083" unicode="&#x441;" horiz-adv-x="446" 
d="M425 42q-57 -34 -96.5 -42.5t-65.5 -8.5q-49 0 -90.5 16.5t-71.5 48.5t-47 78.5t-17 105.5q0 58 17 104.5t48.5 79t76.5 49.5t100 17q41 0 68.5 -9t44.5 -23t24.5 -30.5t7.5 -31.5q0 -25 -15 -40t-39 -15q-8 0 -21 3t-26 11v82q-8 5 -20 9t-30 4t-45 -8.5t-52 -37.5
t-36 -71t-11 -84q0 -8 1 -26t6 -40t15 -45.5t28.5 -42.5t47 -31.5t70.5 -12.5q39 0 72 14t56 29v-52z" />
    <glyph glyph-name="afii10084" unicode="&#xf2;" horiz-adv-x="472" 
d="M107 36l70 5l17 16v378h-101l-15 -16l-11 -84h-51v146h440v-146h-51l-11 84l-15 16h-101v-378l17 -16l70 -5v-36h-258v36z" />
    <glyph glyph-name="afii10084" unicode="&#x442;" horiz-adv-x="472" 
d="M107 36l70 5l17 16v378h-101l-15 -16l-11 -84h-51v146h440v-146h-51l-11 84l-15 16h-101v-378l17 -16l70 -5v-36h-258v36z" />
    <glyph glyph-name="afii10085" unicode="&#xf3;" horiz-adv-x="496" 
d="M217 481v-36l-53 -5l-12 -16l120 -311l125 311l-8 16l-54 5v36h178v-36l-58 -9l-200 -486q-20 -48 -35.5 -73.5t-23.5 -35.5q-15 -20 -39.5 -39.5t-62.5 -19.5q-33 0 -50.5 17t-17.5 40q0 10 5 25.5t21 27.5l96 -38q30 33 48 72.5t33 77.5l-169 434l-61 7v36h218z" />
    <glyph glyph-name="afii10085" unicode="&#x443;" horiz-adv-x="496" 
d="M217 481v-36l-53 -5l-12 -16l120 -311l125 311l-8 16l-54 5v36h178v-36l-58 -9l-200 -486q-20 -48 -35.5 -73.5t-23.5 -35.5q-15 -20 -39.5 -39.5t-62.5 -19.5q-33 0 -50.5 17t-17.5 40q0 10 5 25.5t21 27.5l96 -38q30 33 48 72.5t33 77.5l-169 434l-61 7v36h218z" />
    <glyph glyph-name="afii10086" unicode="&#xf4;" horiz-adv-x="678" 
d="M377 39h18q46 0 74.5 16t45.5 41q8 12 20 43.5t12 92.5q0 9 -1 28t-4.5 42t-11.5 47.5t-23 42.5q-23 28 -54.5 38.5t-75.5 10.5v-402zM301 441q-40 0 -73.5 -10t-56.5 -39q-15 -18 -23 -42.5t-11.5 -47.5t-4.5 -42t-1 -28q0 -61 12 -92.5t20 -43.5q17 -25 45.5 -41
t74.5 -16h18v402zM381 736v-255h12q47 0 93.5 -13.5t80.5 -43.5t54 -77t20 -113q0 -46 -13.5 -88t-39.5 -73q-20 -24 -44 -38.5t-48 -22.5t-47 -10.5t-41 -1.5h-27v-161l17 -16l64 -5v-36h-246v36l64 5l17 16v161h-27q-18 -1 -41 1.5t-47 10.5t-48 22.5t-44 38.5
q-26 31 -39.5 73t-13.5 88q0 66 20 113t54 77t80 43.5t94 13.5h12v188h-77v31l123 36h38z" />
    <glyph glyph-name="afii10086" unicode="&#x444;" horiz-adv-x="678" 
d="M377 39h18q46 0 74.5 16t45.5 41q8 12 20 43.5t12 92.5q0 9 -1 28t-4.5 42t-11.5 47.5t-23 42.5q-23 28 -54.5 38.5t-75.5 10.5v-402zM301 441q-40 0 -73.5 -10t-56.5 -39q-15 -18 -23 -42.5t-11.5 -47.5t-4.5 -42t-1 -28q0 -61 12 -92.5t20 -43.5q17 -25 45.5 -41
t74.5 -16h18v402zM381 736v-255h12q47 0 93.5 -13.5t80.5 -43.5t54 -77t20 -113q0 -46 -13.5 -88t-39.5 -73q-20 -24 -44 -38.5t-48 -22.5t-47 -10.5t-41 -1.5h-27v-161l17 -16l64 -5v-36h-246v36l64 5l17 16v161h-27q-18 -1 -41 1.5t-47 10.5t-48 22.5t-44 38.5
q-26 31 -39.5 73t-13.5 88q0 66 20 113t54 77t80 43.5t94 13.5h12v188h-77v31l123 36h38z" />
    <glyph glyph-name="afii10087" unicode="&#xf5;" horiz-adv-x="504" 
d="M233 481v-36l-46 -7l-5 -10l84 -131l91 128l-8 13l-48 7v36h180v-36l-56 -11l-132 -175l147 -214l60 -8v-37h-213v37l42 7l5 8l-93 149l-102 -145l5 -12l57 -7v-37h-189v37l57 8l144 193l-134 195l-61 12v36h215z" />
    <glyph glyph-name="afii10087" unicode="&#x445;" horiz-adv-x="504" 
d="M233 481v-36l-46 -7l-5 -10l84 -131l91 128l-8 13l-48 7v36h180v-36l-56 -11l-132 -175l147 -214l60 -8v-37h-213v37l42 7l5 8l-93 149l-102 -145l5 -12l57 -7v-37h-189v37l57 8l144 193l-134 195l-61 12v36h215z" />
    <glyph glyph-name="afii10088" unicode="&#xf6;" horiz-adv-x="576" 
d="M30 36l54 5l17 16v367l-17 16l-54 5v36h220v-36l-48 -5l-17 -16v-378h206v378l-17 16l-48 5v36h220v-36l-54 -5l-17 -16v-368l12 -10h65v-186h-51l-18 124l-15 16h-438v36z" />
    <glyph glyph-name="afii10088" unicode="&#x446;" horiz-adv-x="576" 
d="M30 36l54 5l17 16v367l-17 16l-54 5v36h220v-36l-48 -5l-17 -16v-378h206v378l-17 16l-48 5v36h220v-36l-54 -5l-17 -16v-368l12 -10h65v-186h-51l-18 124l-15 16h-438v36z" />
    <glyph glyph-name="afii10089" unicode="&#xf7;" horiz-adv-x="536" 
d="M226 481v-36l-48 -5l-17 -16v-103q0 -12 2.5 -26.5t11.5 -27.5t26 -22t46 -9q23 0 51 6.5t53 15.5v166l-17 16l-48 5v36h220v-36l-54 -5l-17 -16v-367l17 -16l54 -5v-36h-226v36l54 5l17 16v157q-29 -10 -64 -17t-64 -7q-27 0 -46.5 4.5t-33.5 10.5t-21.5 11.5t-10.5 8.5
q-23 21 -28.5 46t-5.5 46v107l-17 16l-48 5v36h214z" />
    <glyph glyph-name="afii10089" unicode="&#x447;" horiz-adv-x="536" 
d="M226 481v-36l-48 -5l-17 -16v-103q0 -12 2.5 -26.5t11.5 -27.5t26 -22t46 -9q23 0 51 6.5t53 15.5v166l-17 16l-48 5v36h220v-36l-54 -5l-17 -16v-367l17 -16l54 -5v-36h-226v36l54 5l17 16v157q-29 -10 -64 -17t-64 -7q-27 0 -46.5 4.5t-33.5 10.5t-21.5 11.5t-10.5 8.5
q-23 21 -28.5 46t-5.5 46v107l-17 16l-48 5v36h214z" />
    <glyph glyph-name="afii10090" unicode="&#xf8;" horiz-adv-x="810" 
d="M30 36l54 5l17 16v367l-17 16l-54 5v36h218v-36l-46 -5l-17 -16v-378h178v378l-17 16l-46 5v36h210v-36l-46 -5l-17 -16v-378h178v378l-17 16l-46 5v36h218v-36l-54 -5l-17 -16v-367l17 -16l54 -5v-36h-750v36z" />
    <glyph glyph-name="afii10090" unicode="&#x448;" horiz-adv-x="810" 
d="M30 36l54 5l17 16v367l-17 16l-54 5v36h218v-36l-46 -5l-17 -16v-378h178v378l-17 16l-46 5v36h210v-36l-46 -5l-17 -16v-378h178v378l-17 16l-46 5v36h218v-36l-54 -5l-17 -16v-367l17 -16l54 -5v-36h-750v36z" />
    <glyph glyph-name="afii10091" unicode="&#xf9;" horiz-adv-x="810" 
d="M30 36l54 5l17 16v367l-17 16l-54 5v36h218v-36l-46 -5l-17 -16v-378h178v378l-17 16l-46 5v36h210v-36l-46 -5l-17 -16v-378h178v378l-17 16l-46 5v36h218v-36l-54 -5l-17 -16v-368l12 -10h65v-186h-51l-18 124l-15 16h-672v36z" />
    <glyph glyph-name="afii10091" unicode="&#x449;" horiz-adv-x="810" 
d="M30 36l54 5l17 16v367l-17 16l-54 5v36h218v-36l-46 -5l-17 -16v-378h178v378l-17 16l-46 5v36h210v-36l-46 -5l-17 -16v-378h178v378l-17 16l-46 5v36h218v-36l-54 -5l-17 -16v-368l12 -10h65v-186h-51l-18 124l-15 16h-672v36z" />
    <glyph glyph-name="afii10092" unicode="&#xfa;" horiz-adv-x="586" 
d="M271 50q30 -6 65 -6q44 0 64.5 8.5t28.5 13.5q11 8 22.5 26.5t11.5 50.5q0 37 -13.5 58t-33 31t-40 12t-34.5 2q-20 0 -37 -2t-34 -6v-188zM116 36l54 5l17 16v378h-94l-15 -16l-11 -84h-51v146h326v-36l-54 -5l-17 -16v-138q20 2 38 3t39 1q38 0 78.5 -6.5t73.5 -32.5
q32 -25 41.5 -53.5t9.5 -52.5q0 -47 -21.5 -75t-51.5 -44t-60.5 -21t-48.5 -5h-253v36z" />
    <glyph glyph-name="afii10092" unicode="&#x44a;" horiz-adv-x="586" 
d="M271 50q30 -6 65 -6q44 0 64.5 8.5t28.5 13.5q11 8 22.5 26.5t11.5 50.5q0 37 -13.5 58t-33 31t-40 12t-34.5 2q-20 0 -37 -2t-34 -6v-188zM116 36l54 5l17 16v378h-94l-15 -16l-11 -84h-51v146h326v-36l-54 -5l-17 -16v-138q20 2 38 3t39 1q38 0 78.5 -6.5t73.5 -32.5
q32 -25 41.5 -53.5t9.5 -52.5q0 -47 -21.5 -75t-51.5 -44t-60.5 -21t-48.5 -5h-253v36z" />
    <glyph glyph-name="afii10093" unicode="&#xfb;" horiz-adv-x="716" 
d="M460 481h226v-36l-54 -5l-17 -16v-367l17 -16l54 -5v-36h-226v36l54 5l17 16v367l-17 16l-54 5v36zM185 50q27 -6 59 -6q12 0 33.5 1.5t42.5 10.5t36 29t15 58q0 37 -13.5 58t-33 31t-40 12t-35.5 2q-18 0 -33 -1.5t-31 -6.5v-188zM30 36l54 5l17 16v367l-17 16l-54 5v36
h226v-36l-54 -5l-17 -16v-138q19 2 35 3t36 1q31 0 66 -6t64.5 -21.5t49 -44t19.5 -73.5q0 -47 -21.5 -75t-51.5 -44t-60.5 -21t-48.5 -5h-243v36z" />
    <glyph glyph-name="afii10093" unicode="&#x44b;" horiz-adv-x="716" 
d="M460 481h226v-36l-54 -5l-17 -16v-367l17 -16l54 -5v-36h-226v36l54 5l17 16v367l-17 16l-54 5v36zM185 50q27 -6 59 -6q12 0 33.5 1.5t42.5 10.5t36 29t15 58q0 37 -13.5 58t-33 31t-40 12t-35.5 2q-18 0 -33 -1.5t-31 -6.5v-188zM30 36l54 5l17 16v367l-17 16l-54 5v36
h226v-36l-54 -5l-17 -16v-138q19 2 35 3t36 1q31 0 66 -6t64.5 -21.5t49 -44t19.5 -73.5q0 -47 -21.5 -75t-51.5 -44t-60.5 -21t-48.5 -5h-243v36z" />
    <glyph glyph-name="afii10094" unicode="&#xfc;" 
d="M185 50q30 -6 65 -6q44 0 64.5 8.5t28.5 13.5q11 8 22.5 26.5t11.5 50.5q0 37 -13.5 58t-33 31t-40 12t-34.5 2q-20 0 -37 -2t-34 -6v-188zM30 36l54 5l17 16v367l-17 16l-54 5v36h226v-36l-54 -5l-17 -16v-138q20 2 38 3t39 1q38 0 78.5 -6.5t73.5 -32.5
q32 -25 41.5 -53.5t9.5 -52.5q0 -47 -21.5 -75t-51.5 -44t-60.5 -21t-48.5 -5h-253v36z" />
    <glyph glyph-name="afii10094" unicode="&#x44c;" 
d="M185 50q30 -6 65 -6q44 0 64.5 8.5t28.5 13.5q11 8 22.5 26.5t11.5 50.5q0 37 -13.5 58t-33 31t-40 12t-34.5 2q-20 0 -37 -2t-34 -6v-188zM30 36l54 5l17 16v367l-17 16l-54 5v36h226v-36l-54 -5l-17 -16v-138q20 2 38 3t39 1q38 0 78.5 -6.5t73.5 -32.5
q32 -25 41.5 -53.5t9.5 -52.5q0 -47 -21.5 -75t-51.5 -44t-60.5 -21t-48.5 -5h-253v36z" />
    <glyph glyph-name="afii10095" unicode="&#xfd;" horiz-adv-x="472" 
d="M341 274q-2 33 -10 64t-26 55t-46.5 38.5t-69.5 14.5q-15 0 -39 -3.5t-51 -15.5l-11 -71h-48v113q18 5 57 13t98 8q35 0 77 -11t78 -38t60.5 -73.5t24.5 -117.5q0 -62 -21.5 -111.5t-56.5 -83.5q-41 -39 -85.5 -51.5t-86.5 -12.5q-19 0 -61.5 3t-93.5 18v130h48l14 -85
q28 -13 52.5 -17.5t44.5 -4.5q73 0 112.5 50t39.5 135v6h-206v48h206z" />
    <glyph glyph-name="afii10095" unicode="&#x44d;" horiz-adv-x="472" 
d="M341 274q-2 33 -10 64t-26 55t-46.5 38.5t-69.5 14.5q-15 0 -39 -3.5t-51 -15.5l-11 -71h-48v113q18 5 57 13t98 8q35 0 77 -11t78 -38t60.5 -73.5t24.5 -117.5q0 -62 -21.5 -111.5t-56.5 -83.5q-41 -39 -85.5 -51.5t-86.5 -12.5q-19 0 -61.5 3t-93.5 18v130h48l14 -85
q28 -13 52.5 -17.5t44.5 -4.5q73 0 112.5 50t39.5 135v6h-206v48h206z" />
    <glyph glyph-name="afii10096" unicode="&#xfe;" horiz-adv-x="792" 
d="M522 446q-36 0 -61.5 -17.5t-42 -46.5t-24 -66t-7.5 -75q0 -23 4.5 -59.5t21.5 -71.5q13 -26 28.5 -41t31 -22.5t29 -9.5t21.5 -2q44 0 71 24.5t42 58t20 68t5 54.5q0 38 -5.5 66t-12.5 47t-14 30t-11 16q-18 23 -44 35t-52 12zM299 274q4 45 21.5 84t46.5 68.5
t68.5 46.5t89.5 17q60 0 98.5 -21t60.5 -43q32 -33 51.5 -81t19.5 -105t-18.5 -103.5t-50 -78.5t-73.5 -49.5t-90 -17.5q-53 0 -94.5 18t-70 50t-43.5 75.5t-16 93.5h-114v-171l17 -16l48 -5v-36h-220v36l54 5l17 16v367l-17 16l-54 5v36h220v-36l-48 -5l-17 -16v-150h114z
" />
    <glyph glyph-name="afii10096" unicode="&#x44e;" horiz-adv-x="792" 
d="M522 446q-36 0 -61.5 -17.5t-42 -46.5t-24 -66t-7.5 -75q0 -23 4.5 -59.5t21.5 -71.5q13 -26 28.5 -41t31 -22.5t29 -9.5t21.5 -2q44 0 71 24.5t42 58t20 68t5 54.5q0 38 -5.5 66t-12.5 47t-14 30t-11 16q-18 23 -44 35t-52 12zM299 274q4 45 21.5 84t46.5 68.5
t68.5 46.5t89.5 17q60 0 98.5 -21t60.5 -43q32 -33 51.5 -81t19.5 -105t-18.5 -103.5t-50 -78.5t-73.5 -49.5t-90 -17.5q-53 0 -94.5 18t-70 50t-43.5 75.5t-16 93.5h-114v-171l17 -16l48 -5v-36h-220v36l54 5l17 16v367l-17 16l-54 5v36h220v-36l-48 -5l-17 -16v-150h114z
" />
    <glyph glyph-name="afii10097" unicode="&#xff;" horiz-adv-x="513" 
d="M328 432q-18 3 -33 4t-30 1q-17 0 -38 -2t-40 -11t-32 -28t-13 -53q0 -26 9 -43.5t25.5 -27.5t39.5 -14t52 -4q20 0 33.5 1t26.5 3v174zM483 445l-54 -5l-17 -16v-367l17 -16l54 -5v-36h-220v36l48 5l17 16v157h-66q-32 0 -48 -18t-27 -40l-57 -124v-32h-140v36l50 7
l17 12l57 110q8 14 23.5 34t47.5 31v2q-57 3 -91 35t-34 83q0 43 18 69t45 40t57.5 18t55.5 4h247v-36z" />
    <glyph glyph-name="afii10097" unicode="&#x44f;" horiz-adv-x="513" 
d="M328 432q-18 3 -33 4t-30 1q-17 0 -38 -2t-40 -11t-32 -28t-13 -53q0 -26 9 -43.5t25.5 -27.5t39.5 -14t52 -4q20 0 33.5 1t26.5 3v174zM483 445l-54 -5l-17 -16v-367l17 -16l54 -5v-36h-220v36l48 5l17 16v157h-66q-32 0 -48 -18t-27 -40l-57 -124v-32h-140v36l50 7
l17 12l57 110q8 14 23.5 34t47.5 31v2q-57 3 -91 35t-34 83q0 43 18 69t45 40t57.5 18t55.5 4h247v-36z" />
    <glyph glyph-name="hyphen" horiz-adv-x="319" 
d="M272 274v-67h-225v67h225z" />
    <glyph glyph-name="acute" 
d="M408 736l-146 -190h-50l97 190h99z" />
    <glyph glyph-name="dieresis" 
d="M290 639q0 22 15 37t37 15t37 -15t15 -37t-15 -37t-37 -15t-37 15t-15 37zM106 639q0 22 15 37t37 15t37 -15t15 -37t-15 -37t-37 -15t-37 15t-15 37z" />
    <glyph glyph-name="dotaccent" 
d="M192 650q0 24 17 41t41 17t41 -17t17 -41t-17 -41t-41 -17t-41 17t-17 41z" />
    <glyph glyph-name="cyrbreve" 
d="M174 615q14 -10 31.5 -15.5t44.5 -5.5t44.5 5.5t31.5 15.5v78q5 8 15 15.5t28 7.5q20 0 33.5 -13t13.5 -36q0 -25 -13 -45.5t-35.5 -35t-53 -22.5t-64.5 -8q-35 0 -65 8t-52.5 22.5t-35.5 35t-13 45.5q0 23 13.5 36t33.5 13q18 0 28 -7.5t15 -15.5v-78z" />
    <glyph glyph-name="Acute" 
d="M402 892l-140 -148h-50l90 148h100z" />
    <glyph glyph-name="Dieresis" 
d="M290 816q0 22 15 37t37 15t37 -15t15 -37t-15 -37t-37 -15t-37 15t-15 37zM106 816q0 22 15 37t37 15t37 -15t15 -37t-15 -37t-37 -15t-37 15t-15 37z" />
    <glyph glyph-name="cyrBreve" 
d="M164 789q13 -10 32 -16.5t54 -6.5t54 6.5t32 16.5v69q6 5 15 8.5t22 3.5q23 0 38 -13t15 -35q0 -28 -18 -45.5t-45 -28t-57.5 -14.5t-55.5 -4t-55.5 4t-57.5 14.5t-45 28t-18 45.5q0 22 15 35t38 13q13 0 22 -3.5t15 -8.5v-69z" />
    <glyph glyph-name="dotlessi" horiz-adv-x="280" 
d="M189 486v-429l17 -16l54 -5v-36h-225v36l53 5l17 16v362h-70v31l115 36h39z" />
    <glyph glyph-name="mu" horiz-adv-x="546" 
d="M167 432l-47 -220q-4 -20 -7 -37.5t-3 -37.5q0 -41 22.5 -63t55.5 -22q31 0 53 14t37.5 36t24.5 47.5t14 48.5l51 234h73l-57 -264q-5 -22 -7 -35.5t-2 -24.5q0 -20 11.5 -38t34.5 -18q27 0 41 17t23 38t15.5 38t17.5 17q2 0 7 -3t5 -16q0 -28 -9.5 -55.5t-26.5 -49
t-40 -35t-50 -13.5q-42 0 -61 27.5t-19 67.5v6h-2q-26 -59 -61 -80t-74 -21q-14 0 -31 3t-33 13.5t-28 30t-16 52.5h-2l-8 -44q-4 -22 -9.5 -58.5l-11 -71t-8.5 -60t-3 -24.5q-2 -10 -10.5 -22.5t-29.5 -12.5q-12 0 -19.5 5t-11 12t-5 14.5t-1.5 13.5q0 7 9 41.5l21.5 83
l26 103.5t23.5 102l55 261h72z" />
    </font>
</defs>
</svg>
